<?xml version="1.0" encoding="UTF-8" standalone="no"?>
<svg width="148px" height="24px" viewBox="0 0 148 24" version="1.1" xmlns="http://www.w3.org/2000/svg" xmlns:xlink="http://www.w3.org/1999/xlink">
    <!-- Generator: Sketch 3.8.3 (29802) - http://www.bohemiancoding.com/sketch -->
    <title>logo-prohelvetia-hinted</title>
    <desc>Created with Sketch.</desc>
    <defs></defs>
    <g id="Page-1" stroke="none" stroke-width="1" fill="none" fill-rule="evenodd">
        <g id="logo-prohelvetia-hinted" fill="#D10074">
            <path d="M34.1193876,5 L30.7703068,5 C28.0202232,5 26.1000004,6.92490251 26.1000004,9.66874652 L26.1000004,10.2037883 L30.5332037,10.2037883 L30.5332037,6.45693593 L34.3455714,6.45693593 L34.3455714,10.2037883 L38.7912539,10.2037883 L38.7912539,9.66874652 C38.7912539,6.92490251 36.871031,5 34.1193876,5 L34.1193876,5 Z M34.3455714,17.5461838 L30.5659614,17.5461838 L30.5659614,13.7462953 L26.1000004,13.7462953 L26.1000004,14.3312535 C26.1000004,17.0782173 28.0202232,19 30.7703068,19 L34.1193876,19 C36.871031,19 38.7912539,17.0782173 38.7912539,14.3312535 L38.7912539,13.7462953 L34.3455714,13.7462953 L34.3455714,17.5461838 Z" id="Fill-1"></path>
            <path d="M4.63749337,5 C1.90552054,5 -0.000152475248,6.9039539 -0.000152475248,9.62606051 L-0.000152475248,23.9969585 L3.02453173,24 L3.02453185,18.6829249 C3.03215454,18.7118187 3.15106854,18.749837 3.15106854,18.749837 C3.70295144,18.9125551 4.17403381,18.9901123 4.63749349,18.9901123 L8.3811531,18.9098185 C11.1131259,18.9098185 13.0187989,17.0104268 13.0187989,14.2852787 L13.0187988,9.54576667 C13.0187988,6.82366006 11.1131258,4.91970616 8.38115298,4.91970616 L4.63749337,5 Z M8.27156656,16 L4.75608596,16 C3.59244224,16 3.02453173,15.4605053 3.02453173,14.3455496 L3.02453173,9.67149259 C3.02453173,8.55810063 3.59244224,8.02016968 4.75608596,8.02016968 L8.27156656,8.02016968 C9.40247768,8.02016968 9.99984752,8.59250319 9.99984752,9.67149259 L9.99984752,14.3455496 C9.99984752,15.4261027 9.40247768,15.9984362 8.27156656,16" id="Fill-3"></path>
            <path d="M49.3678189,5.01363194 L46.635723,5.01363194 C46.2087485,5.01363194 45.7207777,5.10150925 45.1519867,5.27572217 L44.9933962,5.31888997 L44.9933962,0 L42.0213487,0 L42,19 L44.9933962,19 L44.9367268,9.59520593 C44.9367268,8.54684501 45.5207669,7.96716309 46.5790537,7.96716309 L49.3678188,7.96716309 C50.453554,7.96716309 50.9811724,8.49751038 50.9811724,9.59520593 L51.0378418,19 L54.0065918,19 L54.0065918,9.70350536 C54.0065918,6.9438494 52.6438641,5.01363194 49.9112273,5.01363194" id="Fill-6"></path>
            <path d="M131,0 L128.001524,0 L128,3 L131,3 L131,0 Z M128.001524,19 L131,19 L131,5.00268009 L128,4.99959393 L128.001524,19 Z" id="Fill-9"></path>
            <path d="M123.981756,7.98983352 L123.986328,5.00113678 L119.982178,4.99805092 L119.982178,-0.00308609009 L117.014453,-0.00308609009 L117.009881,5.00113709 L114,5.00113701 L114,7.99291992 L117.014453,7.98983383 L117.009881,14.3043938 C117.009881,17.1097215 118.87535,18.9969139 121.64917,18.9969139 L123.932985,18.9969136 L123.932985,16.0157471 L121.596175,16.0172905 C120.509508,16.0172905 119.982178,15.46178 119.982178,14.3615607 L119.982178,7.98983383 L123.981756,7.98983352 Z" id="Fill-11"></path>
            <path d="M77.5345884,15.9612353 C76.4658746,15.9612353 75.9473004,15.4053637 75.9473004,14.3044291 L75.9473004,0 L72.9861666,0 L72.9831604,14.3044291 C72.9831604,17.1115807 74.7989216,19 77.5345884,19 L79.9831604,19 L79.9831604,15.9596912 L77.5345884,15.9612353 Z" id="Fill-13"></path>
            <path d="M20.4848931,5 C17.8039794,5 16,6.89210062 16,9.69704325 L16,19 L18.9818115,19 L18.9818115,9.63560326 C18.9818115,8.53741261 19.4932338,8.00299072 20.5411336,8.00299072 L24,8.00299072 L24,5.00308914 L20.4848931,5 Z" id="Fill-15"></path>
            <path d="M92.7706813,5 L91.3799529,9.82218812 L89.8949377,15.0495505 C89.6435066,15.8859899 89.6246492,15.9550537 89.0055001,15.9550537 C88.3989224,15.9550537 88.369065,15.9028722 88.1694915,15.2137689 L85.2544618,5 L82,5 L85.1381749,15.9013374 C85.8091817,18.1881166 86.8227635,19 89.0055001,19 C91.1898081,19 92.2081042,18.1727691 92.8806825,15.8414821 L96,5 L92.7706813,5 Z" id="Fill-17"></path>
            <path d="M61.6367723,5 C58.9059406,5 57,6.93209877 57,9.69444444 L57,14.3070988 C57,17.0725309 58.9059406,19 61.6367723,19 L68.9906006,19 L68.9906006,16.0153809 L61.4995446,16.0169241 C60.4428911,16.0169241 59.8878812,15.4258747 59.8878812,14.3595167 L59.968775,13.0095215 L67.520874,13.0095215 C68.5394087,13.0095215 69.6311314,12.1993363 69.6311314,10.8552005 L69.5502376,9.69444444 C69.5502376,6.93209877 67.6427723,5 64.9119406,5 L61.6367723,5 Z M61.6367723,8 L64.9119406,8 C66.0966733,8 66.6989505,8.44507042 66.6989505,9.3171831 L66.6989505,10 L59.8528119,10 L59.8528119,9.3171831 C59.8528119,8.46647887 60.4871089,8 61.6367723,8" id="Fill-19"></path>
            <path d="M103.636772,5 C100.905941,5 99,6.93209877 99,9.69444444 L99,14.3070988 C99,17.0725309 100.905941,19 103.636772,19 L110.990601,19 L110.990601,16.0153809 L103.499545,16.0169241 C102.442891,16.0169241 101.887881,15.4258747 101.887881,14.3595167 L101.968775,13.0095215 L109.520874,13.0095215 C110.539409,13.0095215 111.631131,12.1993363 111.631131,10.8552005 L111.550238,9.69444444 C111.550238,6.93209877 109.642772,5 106.911941,5 L103.636772,5 Z M103.636772,8 L106.911941,8 C108.096673,8 108.69895,8.44507042 108.69895,9.3171831 L108.69895,10 L101.852812,10 L101.852812,9.3171831 C101.852812,8.46647887 102.487109,8 103.636772,8" id="Fill-19"></path>
            <path d="M136.991699,4.99999996 L136.991699,8.06481477 L143.269576,8.06481481 C144.221333,8.06481481 144.752364,8.5 144.848485,9.35648148 L144.848485,9.56635802 C144.813818,9.75 144.667273,9.88734568 144.052727,9.97685185 L139.301818,10.4537037 C135.559394,10.8503086 135,13.2993827 135,14.7299383 C135,17.6805556 137.404606,19 139.793455,19 L144.008606,19 C146.362788,19 148,17.3904321 148,15.087963 L148,9.69444444 C148,6.93209877 146.058667,5 143.269576,5 L136.991699,4.99999996 Z M144.008606,16 L139.793455,16 C138.138909,16 137.951394,15.2365579 137.951394,14.6609941 C137.951394,13.6962538 138.253939,13.4457493 139.583879,13.3204971 L144.441939,12.8239615 C144.445091,12.8239615 145.050182,12.694236 145.078545,12.6882716 L145.081697,15.0069288 C145.081697,15.7017804 144.741333,16 144.008606,16" id="Fill-23"></path>
        </g>
    </g>
</svg>