<svg xmlns="http://www.w3.org/2000/svg" width="41.893" height="41.838" viewBox="0 0 41.893 41.838">
  <path id="Path_1" data-name="Path 1" d="M237.592,432.923a20.884,20.884,0,0,1-20.8-19.092,20.406,20.406,0,0,1,4.536-14.915,20.039,20.039,0,0,1,15.39-7.815,20.923,20.923,0,1,1,.875,41.822Zm6.242-29.5c0-1.458.008-2.9-.014-4.343a.473.473,0,0,0-.312-.34c-1.536-.014-3.073-.016-4.608.018a4.851,4.851,0,0,0-2.734.862,4.007,4.007,0,0,0-1.786,3.091c-.081,1.413-.081,2.831-.092,4.246,0,.39-.086.563-.527.539-.752-.04-1.508-.011-2.269-.011v4.489c.8,0,1.586,0,2.37,0,.327,0,.414.165.413.488q-.029,6.319-.031,12.637c0,.306.125.437.468.434,1.48-.014,2.959,0,4.439.013.38,0,.57-.075.567-.559-.027-4.148-.016-8.3-.016-12.443v-.579h3.746c.11-1.282.208-2.511.322-3.739.069-.744.081-.743-.643-.743H239.76c0-1.151.008-2.244,0-3.337-.006-.529.344-.7.755-.716C241.608,403.407,242.706,403.427,243.834,403.427Z" transform="translate(-216.713 -391.087)" fill="#393939"/>
</svg>
