<svg data-name="Group 1" xmlns="http://www.w3.org/2000/svg" width="41.838" height="41.838"><path data-name="Path 8" d="M0 29.287V12.551c.066-.478.166-.953.194-1.432A11.122 11.122 0 0 1 9.172.504C10.282.26 11.424.16 12.551 0h16.735c.476.067.95.167 1.428.2A11.056 11.056 0 0 1 41.26 8.985c.3 1.234.392 2.516.58 3.776v16.107c-.071.615-.173 1.23-.208 1.847a11.043 11.043 0 0 1-8.764 10.534c-1.306.309-2.664.4-4 .589H12.76c-.547-.071-1.09-.176-1.639-.207a11.136 11.136 0 0 1-10.64-9.064C.26 31.487.16 30.38 0 29.287Zm20.8 8.6v-.009c3.1 0 6.205.07 9.3-.024a7.683 7.683 0 0 0 5.931-2.632 7.976 7.976 0 0 0 1.829-5.228c.056-5.993.116-11.988 0-17.98-.1-5.02-2.98-7.892-8-8.044-5.12-.155-10.246-.162-15.369-.154a23.248 23.248 0 0 0-4.673.438c-3.53.733-5.754 3.48-5.829 7.424-.116 6.1-.135 12.2-.008 18.291.1 4.875 3.046 7.729 7.927 7.9 2.962.091 5.926.013 8.888.013Z" fill="#393939"/><path data-name="Path 9" d="M10.185 20.86A10.728 10.728 0 1 1 20.89 31.641 10.661 10.661 0 0 1 10.185 20.86Zm10.693 6.984a6.934 6.934 0 1 0-6.9-7 6.876 6.876 0 0 0 6.9 7.004Z" fill="#393939"/><path data-name="Path 10" d="M34.57 9.712a2.517 2.517 0 0 1-2.458 2.57 2.6 2.6 0 0 1-2.575-2.492 2.515 2.515 0 0 1 2.5-2.531 2.423 2.423 0 0 1 2.533 2.453Z" fill="#393939"/></svg>
