<svg id="Group_1" data-name="Group 1"
  xmlns="http://www.w3.org/2000/svg" width="41.838" height="41.838" viewBox="0 0 41.838 41.838">
  <path id="Path_8" data-name="Path 8" d="M.24,29.527V12.791c.066-.478.166-.953.194-1.432A11.122,11.122,0,0,1,9.412.744C10.522.5,11.664.4,12.791.24H29.526c.476.067.95.167,1.428.2A11.056,11.056,0,0,1,41.5,9.225c.3,1.234.392,2.516.58,3.776V29.108c-.071.615-.173,1.23-.208,1.847a11.043,11.043,0,0,1-8.764,10.534c-1.306.309-2.664.4-4,.589H13c-.547-.071-1.09-.176-1.639-.207A11.136,11.136,0,0,1,.721,32.807C.5,31.727.4,30.62.24,29.527Zm20.8,8.6v-.009c3.1,0,6.205.07,9.3-.024a7.683,7.683,0,0,0,5.931-2.632A7.976,7.976,0,0,0,38.1,30.234c.056-5.993.116-11.988,0-17.98-.1-5.02-2.98-7.892-8-8.044-5.12-.155-10.246-.162-15.369-.154a23.248,23.248,0,0,0-4.673.438c-3.53.733-5.754,3.48-5.829,7.424-.116,6.1-.135,12.2-.008,18.291.1,4.875,3.046,7.729,7.927,7.9C15.11,38.2,18.074,38.122,21.036,38.122Z" transform="translate(-0.24 -0.24)" fill="#393939"/>
  <path id="Path_9" data-name="Path 9" d="M11.925,22.6A10.728,10.728,0,1,1,22.63,33.381,10.661,10.661,0,0,1,11.925,22.6Zm10.693,6.984a6.934,6.934,0,1,0-6.9-7A6.876,6.876,0,0,0,22.618,29.588Z" transform="translate(-1.74 -1.74)" fill="#393939"/>
  <path id="Path_10" data-name="Path 10" d="M39.161,11.022a2.517,2.517,0,0,1-2.458,2.57A2.6,2.6,0,0,1,34.128,11.1a2.515,2.515,0,0,1,2.5-2.531A2.423,2.423,0,0,1,39.161,11.022Z" transform="translate(-4.591 -1.31)" fill="#393939"/>
</svg>
