<svg xmlns="http://www.w3.org/2000/svg" viewBox="0 0 213 104.775"><path fill="#ee6f22" d="M101.898 14.12q3.299 1.539 4.722 2.116-1.404 1.411-2.192 2.363a9.318 9.318 0 0 0-1.011 1.307l-.544-.253a16.252 16.252 0 0 0 1.091-1.787 1.862 1.862 0 0 0 .141-1.655 3.5 3.5 0 0 0-1.675-1.269l-1.722-.803a4.992 4.992 0 0 0-1.32-.458 1.355 1.355 0 0 0-.92.217 5.234 5.234 0 0 0-1.099 1.065l-4.077 4.87 1.555.724a2.522 2.522 0 0 0 1.548.249 3.3 3.3 0 0 0 1.27-.51 9.747 9.747 0 0 0 1.229-1.035 4.338 4.338 0 0 1 .419-.407l.544.254q-1.22 1.324-2.133 2.42l-.394.477Q96.417 23.1 95.015 25l-.544-.254.29-.438q.101-.154.313-.486a5.212 5.212 0 0 0 .34-.59 1.746 1.746 0 0 0 .155-1.277 1.82 1.82 0 0 0-1.08-.995l-1.556-.726-4.145 4.952a4.88 4.88 0 0 0-.75 1.056.7.7 0 0 0 .05.813 3.869 3.869 0 0 0 1.18.739l1.722.803a6.415 6.415 0 0 0 2.514.699 3.75 3.75 0 0 0 2.033-.573 13.574 13.574 0 0 0 2.373-1.983l.544.254a17.882 17.882 0 0 0-1.31 1.455 27.091 27.091 0 0 0-2.05 2.723q-1.567-.816-5.363-2.587-4.525-2.11-6.843-3.105l.337-.416a5.555 5.555 0 0 0 1.349.4 1.419 1.419 0 0 0 .925-.231 5.234 5.234 0 0 0 1.1-1.065l8.585-10.23a5.132 5.132 0 0 0 .75-1.056.727.727 0 0 0-.033-.82 4 4 0 0 0-1.139-.788l.338-.416q2.274 1.152 6.798 3.262Zm10.458 20.454-1.393 1.447q-1.979 2.03-3.982 1.096a1.772 1.772 0 0 1-1.166-1.375 1.532 1.532 0 0 1 .174-.866 7.037 7.037 0 0 1 1.258-1.651l5.381-5.696a4.927 4.927 0 0 0 .774-1.044q.385-.825-.37-1.177a3.369 3.369 0 0 0-2.644.36 17.979 17.979 0 0 0-3.926 2.543 35.093 35.093 0 0 0-4.274 4.173l-1.227 1.524-2.05-.956 7.542-8.79a4.318 4.318 0 0 0 .571-.795q.275-.59-.243-.83a1.27 1.27 0 0 0-1.161.09 8.337 8.337 0 0 0-1.78 1.465l-.712.729-.448-.21 1.392-1.446q1.98-2.032 3.936-1.12a1.5 1.5 0 0 1 .903.862 1.667 1.667 0 0 1-.16 1.174 9.286 9.286 0 0 1-1.22 1.755l-2.33 2.843a19.907 19.907 0 0 1 5.239-3.696 4.506 4.506 0 0 1 3.72-.067q1.908.89 1.084 2.657a6.105 6.105 0 0 1-1.189 1.626l-5.488 5.817a3.344 3.344 0 0 0-.606.808.552.552 0 0 0 .301.83 1.332 1.332 0 0 0 1.154-.108 7.22 7.22 0 0 0 1.78-1.451l.713-.73Zm3.184 3.692a2.374 2.374 0 0 0-.313.485.957.957 0 0 0-.047.839 1.217 1.217 0 0 0 .621.576 1.689 1.689 0 0 0 1.332.005 5.854 5.854 0 0 0 1.86-1.385l.758-.766.448.21-1.187 1.253a4.654 4.654 0 0 1-2.242 1.466 3.438 3.438 0 0 1-2.222-.303 2.37 2.37 0 0 1-1.337-1.255 2.144 2.144 0 0 1 .152-1.68 5.348 5.348 0 0 1 .838-1.243l6.542-7.507-2.121-.99.337-.416 2.121.99 2.707-3.099a8.5 8.5 0 0 0 2.275.66L123.13 29.5l3.11 1.45-.29.44-3.18-1.484Zm19.241-3.736a1.511 1.511 0 0 1 .838.85 1.443 1.443 0 0 1-.074 1.141 1.805 1.805 0 0 1-1.055.971 1.746 1.746 0 0 1-1.385-.044 1.113 1.113 0 0 1-.58-.542.862.862 0 0 1 .033-.745 1.642 1.642 0 0 1 .711-.788 2.056 2.056 0 0 1 1.052-.226.386.386 0 0 0-.216-.212q-1.27-.591-4.05 1.455a41.329 41.329 0 0 0-6.194 5.932l-1.339 1.64-2.05-.956 7.542-8.79a3.4 3.4 0 0 0 .593-.842q.254-.544-.24-.775a1.352 1.352 0 0 0-1.213.11 7.337 7.337 0 0 0-1.747 1.437l-.713.729-.447-.209 1.392-1.447q1.98-2.032 3.983-1.098a1.322 1.322 0 0 1 .706 1.993 9.308 9.308 0 0 1-1.231 1.779l-2.139 2.617a21.089 21.089 0 0 1 4.65-3.727 3.516 3.516 0 0 1 3.173-.252Zm9.335 6.246a4.481 4.481 0 0 1-3.703 2.349 21.682 21.682 0 0 1-5.99.047 11.726 11.726 0 0 0-1.325 2.165q-1.056 2.266.57 3.024 2.026.945 4.724-.666l.289.364a7.97 7.97 0 0 1-3.071 1.275 5 5 0 0 1-3.132-.328 3.354 3.354 0 0 1-1.89-1.914 3.763 3.763 0 0 1 .328-2.859 10.739 10.739 0 0 1 2.933-3.552 12.721 12.721 0 0 1 4.625-2.505 6.366 6.366 0 0 1 4.625.234 2.119 2.119 0 0 1 1.062.983 1.544 1.544 0 0 1-.044 1.386Zm-1.749-2.164a2.888 2.888 0 0 0-2.097.098 10.74 10.74 0 0 0-2.832 1.536 14.4 14.4 0 0 0-2.688 2.533 13.558 13.558 0 0 0 3.906-.01 5.268 5.268 0 0 0 2.134-1.027 5.182 5.182 0 0 0 1.467-1.884 2.716 2.716 0 0 0 .305-.89.335.335 0 0 0-.19-.352Zm-.114-2.893q1.435-.68 3.464-1.77a17.664 17.664 0 0 1 2.158-1.06 1.412 1.412 0 0 1 1.214-.063.839.839 0 0 1 .441.407.675.675 0 0 1-.02.536 1.671 1.671 0 0 1-1.016.76 12.073 12.073 0 0 1-2.204.545q-.22.041-1.347.304t-2.547.663Zm11.967 9.773a4.481 4.481 0 0 1-3.698 2.347 21.682 21.682 0 0 1-5.99.047 11.726 11.726 0 0 0-1.325 2.165q-1.056 2.265.57 3.024 2.026.945 4.724-.666l.289.364a7.97 7.97 0 0 1-3.071 1.274 5 5 0 0 1-3.133-.327 3.354 3.354 0 0 1-1.89-1.914 3.763 3.763 0 0 1 .324-2.86 10.739 10.739 0 0 1 2.938-3.551 12.721 12.721 0 0 1 4.625-2.505 6.366 6.366 0 0 1 4.625.234 2.119 2.119 0 0 1 1.062.983 1.544 1.544 0 0 1-.044 1.385Zm-1.75-2.164a2.888 2.888 0 0 0-2.096.098 10.74 10.74 0 0 0-2.827 1.534 14.4 14.4 0 0 0-2.688 2.533 13.558 13.558 0 0 0 3.905-.01 5.268 5.268 0 0 0 2.136-1.031 5.182 5.182 0 0 0 1.467-1.884 2.716 2.716 0 0 0 .305-.89.335.335 0 0 0-.191-.348Zm6.285 15.092a3.438 3.438 0 0 0-.526.758q-.296.635.248.888a1.257 1.257 0 0 0 1.137-.131 8.14 8.14 0 0 0 1.752-1.45l.713-.729.445.208-1.392 1.447q-1.956 2.045-3.96 1.11-1.625-.757-.911-2.29a8.019 8.019 0 0 1 1.154-1.613l9.785-10.957a2.932 2.932 0 0 0 .426-.605.806.806 0 0 0-.044-.852 2.893 2.893 0 0 0-1.138-.789l.395-.418a11.85 11.85 0 0 0 2.372.79 9.8 9.8 0 0 0 2.273.2Zm15.125-10.103a1.957 1.957 0 0 1 1.118-1.013 1.807 1.807 0 0 1 1.472.012 1.254 1.254 0 0 1 .707.76 1.357 1.357 0 0 1-.077 1.025 1.893 1.893 0 0 1-1.126.996 1.866 1.866 0 0 1-1.479-.028 1.244 1.244 0 0 1-.689-.737 1.311 1.311 0 0 1 .074-1.015Zm-3.496 5.652a3.318 3.318 0 0 0 .595-.784q.274-.589-.244-.83a1.331 1.331 0 0 0-1.23.114 8.446 8.446 0 0 0-1.752 1.42l-.737.719-.447-.209 1.415-1.436a4.051 4.051 0 0 1 2.14-1.298 3.188 3.188 0 0 1 1.915.231q1.555.725.863 2.21a5.985 5.985 0 0 1-1.223 1.637l-5.855 5.973a3.318 3.318 0 0 0-.595.784q-.274.59.291.853a1.307 1.307 0 0 0 1.173-.115 8.247 8.247 0 0 0 1.786-1.432l.736-.718.448.21-1.415 1.435a4.292 4.292 0 0 1-2.105 1.283 3.023 3.023 0 0 1-1.93-.211q-1.649-.77-.978-2.207a6.516 6.516 0 0 1 1.292-1.663Zm13.01 3.227a2.374 2.374 0 0 1 1.413 1.677 4.43 4.43 0 0 1-.51 2.788 12.882 12.882 0 0 1-2.779 3.743 11.4 11.4 0 0 1-4.185 2.639 5.565 5.565 0 0 1-4.344-.15 2.16 2.16 0 0 1-1.044-.99 2.392 2.392 0 0 1-.199-1.512l-2.766.694-.277-.33a6.694 6.694 0 0 0 1.085-1.158l10.915-12.64a2.374 2.374 0 0 0 .386-.592.843.843 0 0 0-.03-.86 2.681 2.681 0 0 0-1.12-.795l.348-.44a11.652 11.652 0 0 0 2.36.785 9.343 9.343 0 0 0 2.238.183l-8.22 9.703a14.618 14.618 0 0 1 3.894-2.674 3.463 3.463 0 0 1 2.834-.067Zm-10.18 10.146a3.4 3.4 0 0 0 3.11-.457 14.44 14.44 0 0 0 3.601-2.955 15.229 15.229 0 0 0 2.585-3.73 3.5 3.5 0 0 0 .42-1.668 1 1 0 0 0-.574-.899q-.943-.44-3.241 1.013a26.819 26.819 0 0 0-4.776 3.998l-2.196 2.618a2.42 2.42 0 0 0 .228 1.325 1.807 1.807 0 0 0 .842.755Zm22.831-4.242a1.511 1.511 0 0 1 .838.849 1.443 1.443 0 0 1-.074 1.142 1.805 1.805 0 0 1-1.055.971 1.746 1.746 0 0 1-1.385-.044 1.113 1.113 0 0 1-.58-.542.862.862 0 0 1 .033-.745 1.642 1.642 0 0 1 .71-.788 2.056 2.056 0 0 1 1.053-.226.386.386 0 0 0-.217-.212q-1.269-.591-4.049 1.455a41.33 41.33 0 0 0-6.194 5.932l-1.336 1.64-2.05-.957 7.541-8.79a3.4 3.4 0 0 0 .594-.842q.253-.544-.241-.775a1.352 1.352 0 0 0-1.213.11 7.337 7.337 0 0 0-1.746 1.437l-.713.729-.448-.209 1.392-1.447q1.98-2.032 3.983-1.098a1.322 1.322 0 0 1 .706 1.993 9.308 9.308 0 0 1-1.23 1.779l-2.14 2.617a21.089 21.089 0 0 1 4.65-3.727 3.516 3.516 0 0 1 3.173-.252Zm9.335 6.246a4.481 4.481 0 0 1-3.701 2.348 21.682 21.682 0 0 1-5.99.047 11.726 11.726 0 0 0-1.324 2.165q-1.057 2.266.57 3.024 2.026.945 4.723-.666l.29.364a7.97 7.97 0 0 1-3.072 1.275 5 5 0 0 1-3.132-.328 3.354 3.354 0 0 1-1.89-1.914 3.763 3.763 0 0 1 .329-2.859 10.739 10.739 0 0 1 2.933-3.552 12.72 12.72 0 0 1 4.625-2.505 6.366 6.366 0 0 1 4.624.234 2.12 2.12 0 0 1 1.062.983 1.544 1.544 0 0 1-.043 1.386Zm-1.75-2.164a2.888 2.888 0 0 0-2.096.098 10.74 10.74 0 0 0-2.837 1.531 14.4 14.4 0 0 0-2.68 2.537 13.558 13.558 0 0 0 3.906-.01 5.268 5.268 0 0 0 2.13-1.03 5.182 5.182 0 0 0 1.466-1.883 2.716 2.716 0 0 0 .305-.89.335.335 0 0 0-.186-.35Z" data-name="Path 1062"/><path fill="#ee6f22" d="m205.633 46.786-.006-.002a1.25 1.25 0 0 1-.604-1.662 1.25 1.25 0 0 1 1.66-.604l.006.002a1.25 1.25 0 0 1 .605 1.661 1.25 1.25 0 0 1-1.661.605Zm-5.897-2.75-.004-.002a1.25 1.25 0 0 1-.605-1.66 1.25 1.25 0 0 1 1.661-.605l.005.002a1.25 1.25 0 0 1 .604 1.66 1.25 1.25 0 0 1-1.66.606Zm-5.895-2.749-.005-.002a1.25 1.25 0 0 1-.605-1.661 1.25 1.25 0 0 1 1.66-.605l.005.002a1.25 1.25 0 0 1 .606 1.662 1.25 1.25 0 0 1-1.661.604Zm-5.896-2.749-.005-.002a1.25 1.25 0 0 1-.605-1.661 1.25 1.25 0 0 1 1.661-.605l.006.002a1.25 1.25 0 0 1 .603 1.661 1.25 1.25 0 0 1-1.66.605Zm-5.896-2.75-.005-.001a1.25 1.25 0 0 1-.605-1.662 1.25 1.25 0 0 1 1.66-.605l.005.003a1.25 1.25 0 0 1 .606 1.661 1.25 1.25 0 0 1-1.661.605Zm-5.896-2.748-.005-.003a1.25 1.25 0 0 1-.605-1.661 1.25 1.25 0 0 1 1.661-.605l.006.003a1.25 1.25 0 0 1 .603 1.66 1.25 1.25 0 0 1-1.66.605Zm-5.896-2.75-.005-.002a1.25 1.25 0 0 1-.609-1.663 1.25 1.25 0 0 1 1.661-.605l.005.002a1.25 1.25 0 0 1 .609 1.663 1.25 1.25 0 0 1-1.661.605Zm-5.896-2.75-.005-.002a1.25 1.25 0 0 1-.604-1.66 1.25 1.25 0 0 1 1.661-.605l.006.003a1.25 1.25 0 0 1 .599 1.658 1.25 1.25 0 0 1-1.658.606Zm-5.896-2.749-.005-.002a1.25 1.25 0 0 1-.605-1.661 1.25 1.25 0 0 1 1.66-.605l.005.002a1.25 1.25 0 0 1 .607 1.662 1.25 1.25 0 0 1-1.662.604Zm-5.896-2.749-.005-.002a1.25 1.25 0 0 1-.605-1.661 1.25 1.25 0 0 1 1.661-.605l.006.002a1.25 1.25 0 0 1 .604 1.661 1.25 1.25 0 0 1-1.662.605Zm-5.896-2.75-.005-.001a1.25 1.25 0 0 1-.605-1.662 1.25 1.25 0 0 1 1.66-.605l.005.002a1.25 1.25 0 0 1 .606 1.662 1.25 1.25 0 0 1-1.661.605Zm-5.896-2.748-.005-.003a1.25 1.25 0 0 1-.605-1.661 1.25 1.25 0 0 1 1.661-.605l.006.003a1.25 1.25 0 0 1 .604 1.66 1.25 1.25 0 0 1-1.662.605Zm-5.896-2.75-.005-.002a1.25 1.25 0 0 1-.605-1.662 1.25 1.25 0 0 1 1.66-.604l.005.002a1.25 1.25 0 0 1 .606 1.661 1.25 1.25 0 0 1-1.661.605Zm-5.896-2.75-.004-.001a1.25 1.25 0 0 1-.606-1.662 1.25 1.25 0 0 1 1.661-.604l.005.002a1.25 1.25 0 0 1 .605 1.66 1.25 1.25 0 0 1-1.662.605Zm-5.895-2.748-.006-.003a1.25 1.25 0 0 1-.605-1.661 1.25 1.25 0 0 1 1.661-.605l.005.003a1.25 1.25 0 0 1 .605 1.66 1.25 1.25 0 0 1-1.661.605Zm-5.897-2.75-.01-.004a1.25 1.25 0 0 1-.6-1.66 1.25 1.25 0 0 1 1.661-.604l.006.002a1.25 1.25 0 0 1 .604 1.661 1.25 1.25 0 0 1-1.662.605Zm-5.896-2.75-.005-.002a1.25 1.25 0 0 1-.605-1.661 1.25 1.25 0 0 1 1.661-.605l.005.002a1.25 1.25 0 0 1 .605 1.662 1.25 1.25 0 0 1-1.666.602Z" data-name="Line 105"/><path fill="#ee6f22" d="M209.311 104.689a1.245 1.245 0 0 1-.538-.122 1.25 1.25 0 1 1 1.078-2.256 1.25 1.25 0 0 1-.54 2.378Zm-5.87-2.8a1.245 1.245 0 0 1-.538-.122 1.25 1.25 0 1 1 1.078-2.256 1.25 1.25 0 0 1-.54 2.378Zm-5.87-2.8a1.245 1.245 0 0 1-.538-.122 1.25 1.25 0 0 1 1.078-2.256 1.25 1.25 0 0 1-.54 2.378Zm-5.871-2.814a1.245 1.245 0 0 1-.538-.122 1.25 1.25 0 1 1 1.078-2.256 1.25 1.25 0 0 1-.54 2.378Zm-5.87-2.8a1.245 1.245 0 0 1-.538-.122 1.25 1.25 0 1 1 1.078-2.256 1.25 1.25 0 0 1-.54 2.378Zm-5.87-2.8a1.245 1.245 0 0 1-.538-.122 1.254 1.254 0 0 1 1.078-2.265 1.25 1.25 0 0 1-.54 2.378Zm-5.87-2.8a1.245 1.245 0 0 1-.538-.122 1.25 1.25 0 1 1 1.078-2.256 1.25 1.25 0 0 1-.54 2.378Zm-5.87-2.8a1.245 1.245 0 0 1-.538-.122 1.25 1.25 0 1 1 1.078-2.256 1.25 1.25 0 0 1-.54 2.378Zm-5.87-2.8a1.245 1.245 0 0 1-.538-.122 1.25 1.25 0 0 1 1.078-2.256 1.25 1.25 0 0 1-.54 2.378Zm-5.87-2.8a1.245 1.245 0 0 1-.538-.122 1.25 1.25 0 0 1 1.078-2.256 1.25 1.25 0 0 1-.54 2.378Zm-5.87-2.8a1.245 1.245 0 0 1-.538-.122 1.25 1.25 0 1 1 1.078-2.256 1.25 1.25 0 0 1-.54 2.378Zm-5.87-2.8a1.245 1.245 0 0 1-.538-.122 1.25 1.25 0 1 1 1.078-2.256 1.25 1.25 0 0 1-.54 2.378Zm-5.87-2.8a1.245 1.245 0 0 1-.538-.122 1.25 1.25 0 0 1 1.078-2.256 1.25 1.25 0 0 1-.54 2.378Zm-5.87-2.8a1.245 1.245 0 0 1-.538-.122 1.25 1.25 0 1 1 1.078-2.256 1.25 1.25 0 0 1-.54 2.378Zm-5.87-2.8a1.245 1.245 0 0 1-.538-.122 1.25 1.25 0 1 1 1.078-2.256 1.25 1.25 0 0 1-.54 2.378Zm-5.87-2.8a1.245 1.245 0 0 1-.538-.122 1.25 1.25 0 0 1 1.078-2.256 1.25 1.25 0 0 1-.54 2.378Zm-5.87-2.8a1.245 1.245 0 0 1-.538-.122 1.25 1.25 0 1 1 1.078-2.256 1.25 1.25 0 0 1-.54 2.378Zm-5.87-2.8a1.245 1.245 0 0 1-.538-.122 1.25 1.25 0 1 1 1.078-2.256 1.25 1.25 0 0 1-.54 2.378Zm-5.87-2.8a1.245 1.245 0 0 1-.538-.122 1.25 1.25 0 0 1 1.078-2.256 1.25 1.25 0 0 1-.54 2.378Zm-5.87-2.8a1.245 1.245 0 0 1-.538-.122 1.25 1.25 0 0 1 1.078-2.256 1.25 1.25 0 0 1-.54 2.378Zm-5.87-2.8a1.245 1.245 0 0 1-.538-.122 1.25 1.25 0 1 1 1.078-2.256 1.25 1.25 0 0 1-.54 2.378Zm-5.87-2.8a1.245 1.245 0 0 1-.538-.122 1.25 1.25 0 1 1 1.078-2.256 1.25 1.25 0 0 1-.54 2.378Zm-5.87-2.8a1.245 1.245 0 0 1-.538-.122 1.25 1.25 0 0 1 1.078-2.256 1.25 1.25 0 0 1-.54 2.378Zm-5.87-2.8a1.245 1.245 0 0 1-.538-.122 1.25 1.25 0 1 1 1.078-2.256 1.25 1.25 0 0 1-.54 2.378Zm-5.87-2.8a1.245 1.245 0 0 1-.538-.122 1.25 1.25 0 1 1 1.078-2.256 1.25 1.25 0 0 1-.54 2.378Zm-5.87-2.8a1.245 1.245 0 0 1-.538-.122 1.25 1.25 0 0 1 1.078-2.256 1.25 1.25 0 0 1-.54 2.378Zm-5.87-2.8a1.245 1.245 0 0 1-.538-.122 1.25 1.25 0 1 1 1.078-2.256 1.25 1.25 0 0 1-.54 2.378Zm-5.87-2.8a1.245 1.245 0 0 1-.538-.122 1.25 1.25 0 1 1 1.078-2.256 1.25 1.25 0 0 1-.54 2.378Zm-5.87-2.8a1.245 1.245 0 0 1-.538-.122 1.25 1.25 0 0 1 1.078-2.256 1.25 1.25 0 0 1-.54 2.378Zm-5.87-2.8a1.245 1.245 0 0 1-.538-.122 1.25 1.25 0 0 1 1.078-2.256 1.25 1.25 0 0 1-.54 2.378Zm-5.87-2.8a1.245 1.245 0 0 1-.538-.122 1.25 1.25 0 1 1 1.078-2.256 1.25 1.25 0 0 1-.54 2.378Zm-5.87-2.8a1.245 1.245 0 0 1-.538-.122 1.25 1.25 0 1 1 1.078-2.256 1.25 1.25 0 0 1-.54 2.378Zm-5.87-2.8a1.245 1.245 0 0 1-.538-.122A1.303 1.303 0 0 1 22 12.575a1.25 1.25 0 0 1-.54 2.378Zm-5.87-2.8a1.245 1.245 0 0 1-.538-.122 1.303 1.303 0 1 1 1.068-2.378 1.25 1.25 0 0 1-.54 2.378Zm-5.87-2.8a1.245 1.245 0 0 1-.538-.122 1.303 1.303 0 1 1 1.068-2.378 1.25 1.25 0 0 1-.54 2.378Zm-5.87-2.8a1.245 1.245 0 0 1-.538-.122c-.633-.428 1-.005.533-.005Z" data-name="Line 106"/><path fill="none" d="M0 3.775h213v101H0z" data-name="Rectangle 405"/></svg>
