<svg xmlns="http://www.w3.org/2000/svg" viewBox="0 0 238 128.023"><path fill="#ee6f22" d="M94.197 13.363q3.299 1.538 4.722 2.116-1.37 1.398-2.372 2.565-.643.762-1.35 1.724l-.543-.254a16.392 16.392 0 0 0 1.358-2.235 2.1 2.1 0 0 0 .153-1.866 3.956 3.956 0 0 0-1.907-1.448l-1.249-.582a4.992 4.992 0 0 0-1.32-.459 1.355 1.355 0 0 0-.92.217 5.234 5.234 0 0 0-1.099 1.066l-4.26 5.075 1.722.803a2.406 2.406 0 0 0 2.126.116 5.631 5.631 0 0 0 1.536-1.049q.613-.604.802-.773l.544.253q-1.22 1.325-2.132 2.42l-.395.478q-1.102 1.379-2.314 2.994l-.544-.254.312-.485a6.834 6.834 0 0 0 .635-1.053 1.733 1.733 0 0 0 .157-1.26 1.808 1.808 0 0 0-1.068-.971l-1.722-.803-3.988 4.738a5.017 5.017 0 0 0-.666.946.815.815 0 0 0 .084.958 5.587 5.587 0 0 0 1.481.977l-.338.416q-1.192-.642-3.43-1.686-2.003-.934-3.024-1.324l.337-.416a5.555 5.555 0 0 0 1.344.397 1.419 1.419 0 0 0 .925-.23 5.234 5.234 0 0 0 1.1-1.066l8.585-10.23a5.132 5.132 0 0 0 .75-1.055.727.727 0 0 0-.033-.82 4 4 0 0 0-1.138-.788l.337-.417q2.278 1.155 6.802 3.265Zm10.262 9.86a1.511 1.511 0 0 1 .837.85 1.443 1.443 0 0 1-.073 1.142 1.805 1.805 0 0 1-1.055.97 1.746 1.746 0 0 1-1.386-.043 1.113 1.113 0 0 1-.579-.542.862.862 0 0 1 .032-.745 1.642 1.642 0 0 1 .712-.788 2.056 2.056 0 0 1 1.052-.226.386.386 0 0 0-.217-.212q-1.269-.591-4.049 1.454a41.329 41.329 0 0 0-6.195 5.933l-1.338 1.64-2.05-.956 7.541-8.79a3.4 3.4 0 0 0 .594-.842q.254-.544-.241-.775a1.352 1.352 0 0 0-1.213.11 7.337 7.337 0 0 0-1.746 1.437l-.713.729-.448-.209 1.392-1.447q1.98-2.032 3.983-1.098a1.322 1.322 0 0 1 .706 1.993 9.308 9.308 0 0 1-1.23 1.779l-2.14 2.617a21.089 21.089 0 0 1 4.65-3.727 3.516 3.516 0 0 1 3.173-.252Zm9.335 6.247a4.481 4.481 0 0 1-3.704 2.349 21.682 21.682 0 0 1-5.989.047 11.726 11.726 0 0 0-1.325 2.165q-1.057 2.265.57 3.024 2.026.945 4.723-.666l.29.364a7.97 7.97 0 0 1-3.072 1.274 5 5 0 0 1-3.132-.327 3.354 3.354 0 0 1-1.89-1.914 3.763 3.763 0 0 1 .329-2.859 10.739 10.739 0 0 1 2.933-3.552 12.72 12.72 0 0 1 4.625-2.505 6.366 6.366 0 0 1 4.624.234 2.119 2.119 0 0 1 1.062.983 1.544 1.544 0 0 1-.043 1.385Zm-1.75-2.164a2.888 2.888 0 0 0-2.096.098 10.741 10.741 0 0 0-2.835 1.535 14.4 14.4 0 0 0-2.685 2.534 13.558 13.558 0 0 0 3.906-.01 5.268 5.268 0 0 0 2.13-1.03 5.182 5.182 0 0 0 1.466-1.883 2.716 2.716 0 0 0 .306-.895.335.335 0 0 0-.187-.345Zm8.911-.837a1.957 1.957 0 0 1 1.118-1.013 1.807 1.807 0 0 1 1.472.012 1.254 1.254 0 0 1 .707.76 1.357 1.357 0 0 1-.077 1.025 1.893 1.893 0 0 1-1.126.996 1.866 1.866 0 0 1-1.479-.028 1.244 1.244 0 0 1-.689-.737 1.311 1.311 0 0 1 .079-1.01Zm-3.496 5.652a3.318 3.318 0 0 0 .595-.784q.275-.59-.244-.83a1.331 1.331 0 0 0-1.23.114 8.446 8.446 0 0 0-1.752 1.42l-.737.719-.447-.21 1.415-1.435a4.051 4.051 0 0 1 2.14-1.298 3.188 3.188 0 0 1 1.915.231q1.555.725.863 2.21a5.985 5.985 0 0 1-1.222 1.637l-5.85 5.977a3.318 3.318 0 0 0-.596.784q-.275.59.29.853a1.307 1.307 0 0 0 1.175-.116 8.247 8.247 0 0 0 1.785-1.43l.736-.718.448.208-1.416 1.437a4.292 4.292 0 0 1-2.104 1.283 3.023 3.023 0 0 1-1.922-.208q-1.65-.77-.98-2.207a6.516 6.516 0 0 1 1.293-1.664Zm13.558 5.376a4.481 4.481 0 0 1-3.702 2.354 21.682 21.682 0 0 1-5.989.047 11.726 11.726 0 0 0-1.325 2.165q-1.056 2.266.57 3.024 2.026.945 4.724-.666l.289.364a7.97 7.97 0 0 1-3.072 1.275 5 5 0 0 1-3.132-.328 3.354 3.354 0 0 1-1.89-1.914 3.763 3.763 0 0 1 .33-2.859 10.739 10.739 0 0 1 2.932-3.552 12.72 12.72 0 0 1 4.625-2.505 6.366 6.366 0 0 1 4.625.234 2.119 2.119 0 0 1 1.062.983 1.544 1.544 0 0 1-.044 1.386Zm-1.75-2.164a2.888 2.888 0 0 0-2.096.098 10.74 10.74 0 0 0-2.837 1.531 14.4 14.4 0 0 0-2.681 2.543 13.558 13.558 0 0 0 3.906-.01 5.268 5.268 0 0 0 2.13-1.03 5.182 5.182 0 0 0 1.466-1.883 2.716 2.716 0 0 0 .3-.897.335.335 0 0 0-.18-.343Zm12.082 5.088a1.511 1.511 0 0 1 .838.85 1.443 1.443 0 0 1-.074 1.142 1.805 1.805 0 0 1-1.055.97 1.746 1.746 0 0 1-1.385-.043 1.113 1.113 0 0 1-.58-.542.862.862 0 0 1 .033-.746 1.642 1.642 0 0 1 .71-.787 2.056 2.056 0 0 1 1.053-.226.386.386 0 0 0-.217-.212q-1.269-.592-4.049 1.454a41.329 41.329 0 0 0-6.194 5.933l-1.328 1.65-2.05-.956 7.542-8.79a3.4 3.4 0 0 0 .593-.843q.254-.544-.241-.774a1.352 1.352 0 0 0-1.213.108 7.337 7.337 0 0 0-1.746 1.438l-.713.73-.447-.21 1.392-1.447q1.98-2.031 3.983-1.097a1.322 1.322 0 0 1 .705 1.993 9.308 9.308 0 0 1-1.23 1.778l-2.139 2.617a21.089 21.089 0 0 1 4.65-3.727 3.516 3.516 0 0 1 3.177-.25Zm19.074 3.819q3.299 1.538 4.722 2.116-1.404 1.41-2.192 2.363a9.319 9.319 0 0 0-1.011 1.307l-.544-.254a16.252 16.252 0 0 0 1.09-1.786 1.862 1.862 0 0 0 .142-1.656 3.5 3.5 0 0 0-1.675-1.268l-1.722-.803a4.992 4.992 0 0 0-1.321-.458 1.355 1.355 0 0 0-.919.217 5.234 5.234 0 0 0-1.1 1.065l-4.06 4.88 1.555.726a2.522 2.522 0 0 0 1.548.248 3.3 3.3 0 0 0 1.27-.51 9.747 9.747 0 0 0 1.228-1.033 4.338 4.338 0 0 1 .42-.407l.543.253q-1.22 1.325-2.132 2.42l-.395.478q-.912 1.095-2.314 2.994l-.544-.253.29-.439.313-.485a5.212 5.212 0 0 0 .333-.59 1.746 1.746 0 0 0 .154-1.277 1.82 1.82 0 0 0-1.074-.997l-1.555-.726-4.142 4.958a4.88 4.88 0 0 0-.75 1.056.7.7 0 0 0 .05.813 3.869 3.869 0 0 0 1.174.732l1.722.802a6.415 6.415 0 0 0 2.51.7 3.75 3.75 0 0 0 2.031-.568 13.573 13.573 0 0 0 2.374-1.983l.543.254a17.882 17.882 0 0 0-1.31 1.455 27.09 27.09 0 0 0-2.044 2.718q-1.57-.818-5.363-2.587-4.524-2.11-6.843-3.105l.338-.416a5.555 5.555 0 0 0 1.348.4 1.419 1.419 0 0 0 .925-.231 5.234 5.234 0 0 0 1.1-1.065l8.585-10.23a5.132 5.132 0 0 0 .75-1.056.727.727 0 0 0-.033-.82 4 4 0 0 0-1.138-.788l.337-.417q2.274 1.153 6.801 3.264Zm8.123 4.419a1.957 1.957 0 0 1 1.118-1.014 1.807 1.807 0 0 1 1.472.013 1.254 1.254 0 0 1 .707.76 1.357 1.357 0 0 1-.077 1.025 1.893 1.893 0 0 1-1.126.996 1.866 1.866 0 0 1-1.479-.028 1.244 1.244 0 0 1-.689-.737 1.311 1.311 0 0 1 .087-1.005Zm-3.496 5.652a3.318 3.318 0 0 0 .595-.784q.275-.59-.244-.83a1.331 1.331 0 0 0-1.23.114 8.446 8.446 0 0 0-1.752 1.42l-.737.719-.447-.21 1.415-1.436a4.051 4.051 0 0 1 2.14-1.297 3.188 3.188 0 0 1 1.915.231q1.555.725.863 2.21a5.985 5.985 0 0 1-1.222 1.637l-5.843 5.983a3.318 3.318 0 0 0-.595.784q-.274.59.291.853a1.307 1.307 0 0 0 1.173-.115 8.247 8.247 0 0 0 1.786-1.431l.736-.718.448.208-1.415 1.437a4.292 4.292 0 0 1-2.105 1.283 3.023 3.023 0 0 1-1.925-.21q-1.65-.769-.979-2.206a6.516 6.516 0 0 1 1.292-1.664Zm12.96 13.711-1.393 1.448q-1.979 2.03-3.982 1.095a1.772 1.772 0 0 1-1.166-1.375 1.532 1.532 0 0 1 .174-.866 7.037 7.037 0 0 1 1.258-1.65l5.381-5.696a4.927 4.927 0 0 0 .774-1.045q.385-.825-.37-1.176a3.369 3.369 0 0 0-2.647.357 17.978 17.978 0 0 0-3.927 2.544 35.093 35.093 0 0 0-4.27 4.174l-1.227 1.525-2.05-.957 7.54-8.79a4.318 4.318 0 0 0 .572-.795q.275-.59-.244-.83a1.27 1.27 0 0 0-1.16.089 8.337 8.337 0 0 0-1.775 1.468l-.713.729-.444-.208 1.392-1.447q1.98-2.031 3.936-1.12a1.5 1.5 0 0 1 .903.863 1.667 1.667 0 0 1-.16 1.174 9.286 9.286 0 0 1-1.22 1.754l-2.335 2.847a19.907 19.907 0 0 1 5.238-3.697 4.506 4.506 0 0 1 3.72-.072q1.909.89 1.085 2.657a6.105 6.105 0 0 1-1.189 1.626l-5.493 5.815a3.345 3.345 0 0 0-.606.808.552.552 0 0 0 .301.83 1.332 1.332 0 0 0 1.154-.108 7.22 7.22 0 0 0 1.78-1.451l.713-.73Zm3.183 3.692a2.374 2.374 0 0 0-.312.485.957.957 0 0 0-.047.84 1.217 1.217 0 0 0 .62.575 1.689 1.689 0 0 0 1.333.005 5.854 5.854 0 0 0 1.86-1.385l.758-.765.447.209-1.187 1.253a4.654 4.654 0 0 1-2.241 1.466 3.438 3.438 0 0 1-2.225-.305 2.37 2.37 0 0 1-1.337-1.255 2.144 2.144 0 0 1 .152-1.68 5.348 5.348 0 0 1 .839-1.243l6.543-7.505-2.12-.989.337-.416 2.121.989 2.707-3.099a8.5 8.5 0 0 0 2.275.66l-2.932 3.395 3.11 1.45-.29.438-3.181-1.483Zm19.242-3.736a1.511 1.511 0 0 1 .838.85 1.443 1.443 0 0 1-.074 1.141 1.805 1.805 0 0 1-1.055.971 1.746 1.746 0 0 1-1.385-.043 1.113 1.113 0 0 1-.58-.543.862.862 0 0 1 .033-.745 1.642 1.642 0 0 1 .71-.787 2.056 2.056 0 0 1 1.053-.227.386.386 0 0 0-.217-.211q-1.269-.592-4.049 1.454a41.33 41.33 0 0 0-6.194 5.933l-1.339 1.64-2.05-.956 7.542-8.79a3.4 3.4 0 0 0 .593-.843q.254-.543-.241-.774a1.352 1.352 0 0 0-1.213.109 7.337 7.337 0 0 0-1.746 1.437l-.713.73-.448-.21 1.393-1.447q1.98-2.031 3.983-1.097a1.322 1.322 0 0 1 .705 1.993 9.308 9.308 0 0 1-1.23 1.778l-2.14 2.618a21.089 21.089 0 0 1 4.65-3.728 3.516 3.516 0 0 1 3.173-.251Zm6.864-1.246a1.957 1.957 0 0 1 1.118-1.014 1.807 1.807 0 0 1 1.475.016 1.254 1.254 0 0 1 .707.76 1.357 1.357 0 0 1-.076 1.026 1.893 1.893 0 0 1-1.126.995 1.866 1.866 0 0 1-1.48-.027 1.244 1.244 0 0 1-.688-.737 1.311 1.311 0 0 1 .07-1.017Zm-3.496 5.652a3.318 3.318 0 0 0 .595-.784q.274-.59-.244-.831a1.331 1.331 0 0 0-1.23.115 8.446 8.446 0 0 0-1.752 1.42l-.737.719-.447-.21 1.415-1.436a4.051 4.051 0 0 1 2.14-1.297 3.187 3.187 0 0 1 1.915.231q1.555.725.863 2.21a5.985 5.985 0 0 1-1.223 1.637l-5.855 5.975a3.318 3.318 0 0 0-.595.784q-.275.589.29.852a1.307 1.307 0 0 0 1.173-.115 8.247 8.247 0 0 0 1.786-1.431l.737-.718.447.209-1.415 1.436a4.292 4.292 0 0 1-2.105 1.283 3.023 3.023 0 0 1-1.925-.21q-1.65-.768-.979-2.206a6.516 6.516 0 0 1 1.292-1.664Zm2.464 11.018a2.374 2.374 0 0 0-.312.485.957.957 0 0 0-.047.839 1.217 1.217 0 0 0 .62.576 1.689 1.689 0 0 0 1.333.004 5.853 5.853 0 0 0 1.862-1.379l.758-.763.448.21-1.187 1.253a4.654 4.654 0 0 1-2.246 1.462 3.438 3.438 0 0 1-2.224-.306 2.37 2.37 0 0 1-1.337-1.255 2.144 2.144 0 0 1 .151-1.679 5.348 5.348 0 0 1 .839-1.244l6.541-7.507-2.12-.989.337-.416 2.12.989 2.708-3.098a8.5 8.5 0 0 0 2.274.659l-2.931 3.395 3.11 1.45-.29.439-3.179-1.483Zm7.918 3.692a2.374 2.374 0 0 0-.313.485.957.957 0 0 0-.047.839 1.217 1.217 0 0 0 .621.576 1.689 1.689 0 0 0 1.332.004 5.853 5.853 0 0 0 1.862-1.379l.759-.765.448.209-1.188 1.254a4.654 4.654 0 0 1-2.246 1.464 3.438 3.438 0 0 1-2.224-.306 2.37 2.37 0 0 1-1.337-1.255 2.144 2.144 0 0 1 .152-1.679 5.348 5.348 0 0 1 .838-1.244l6.544-7.505-2.12-.989.337-.416 2.12.989 2.708-3.098a8.5 8.5 0 0 0 2.274.659l-2.931 3.395 3.11 1.45-.29.439-3.182-1.484Z" data-name="Path 1065"/><path fill="#ee6f22" d="m221.633 55.034-.006-.002a1.25 1.25 0 0 1-.604-1.662 1.25 1.25 0 0 1 1.66-.604l.006.002a1.25 1.25 0 0 1 .605 1.661 1.25 1.25 0 0 1-1.661.605Zm-5.897-2.75-.004-.002a1.25 1.25 0 0 1-.605-1.66 1.25 1.25 0 0 1 1.661-.605l.005.002a1.25 1.25 0 0 1 .604 1.66 1.25 1.25 0 0 1-1.66.606Zm-5.895-2.749-.005-.002a1.25 1.25 0 0 1-.605-1.661 1.25 1.25 0 0 1 1.66-.605l.005.002a1.25 1.25 0 0 1 .606 1.662 1.25 1.25 0 0 1-1.661.604Zm-5.896-2.749-.005-.002a1.25 1.25 0 0 1-.605-1.661 1.25 1.25 0 0 1 1.661-.605l.006.002a1.25 1.25 0 0 1 .603 1.661 1.25 1.25 0 0 1-1.66.605Zm-5.896-2.75-.005-.001a1.25 1.25 0 0 1-.605-1.662 1.25 1.25 0 0 1 1.66-.605l.005.003a1.25 1.25 0 0 1 .606 1.661 1.25 1.25 0 0 1-1.661.605Zm-5.896-2.748-.005-.003a1.25 1.25 0 0 1-.605-1.661 1.25 1.25 0 0 1 1.661-.605l.006.003a1.25 1.25 0 0 1 .603 1.66 1.25 1.25 0 0 1-1.66.605Zm-5.896-2.75-.005-.002a1.25 1.25 0 0 1-.609-1.663 1.25 1.25 0 0 1 1.661-.605l.005.002a1.25 1.25 0 0 1 .609 1.663 1.25 1.25 0 0 1-1.661.605Zm-5.896-2.75-.005-.002a1.25 1.25 0 0 1-.604-1.66 1.25 1.25 0 0 1 1.661-.605l.006.003a1.25 1.25 0 0 1 .599 1.658 1.25 1.25 0 0 1-1.658.606Zm-5.896-2.749-.005-.002a1.25 1.25 0 0 1-.605-1.661 1.25 1.25 0 0 1 1.66-.605l.005.002a1.25 1.25 0 0 1 .607 1.662 1.25 1.25 0 0 1-1.662.604Zm-5.896-2.749-.005-.002a1.25 1.25 0 0 1-.605-1.661 1.25 1.25 0 0 1 1.661-.605l.006.002a1.25 1.25 0 0 1 .604 1.661 1.25 1.25 0 0 1-1.662.605Zm-5.896-2.75-.005-.001a1.25 1.25 0 0 1-.605-1.662 1.25 1.25 0 0 1 1.66-.605l.005.002a1.25 1.25 0 0 1 .606 1.662 1.25 1.25 0 0 1-1.661.605Zm-5.896-2.748-.005-.003a1.25 1.25 0 0 1-.605-1.661 1.25 1.25 0 0 1 1.661-.605l.006.003a1.25 1.25 0 0 1 .604 1.66 1.25 1.25 0 0 1-1.662.605Zm-5.896-2.75-.005-.002a1.25 1.25 0 0 1-.605-1.662 1.25 1.25 0 0 1 1.66-.604l.005.002a1.25 1.25 0 0 1 .606 1.661 1.25 1.25 0 0 1-1.661.605Zm-5.896-2.75-.004-.001a1.25 1.25 0 0 1-.606-1.662 1.25 1.25 0 0 1 1.661-.604l.005.002a1.25 1.25 0 0 1 .605 1.66 1.25 1.25 0 0 1-1.662.605Zm-5.895-2.748-.006-.003a1.25 1.25 0 0 1-.605-1.661 1.25 1.25 0 0 1 1.661-.605l.005.003a1.25 1.25 0 0 1 .605 1.66 1.25 1.25 0 0 1-1.661.605Zm-5.897-2.75-.01-.004a1.25 1.25 0 0 1-.6-1.66 1.25 1.25 0 0 1 1.661-.604l.006.002a1.25 1.25 0 0 1 .604 1.661 1.25 1.25 0 0 1-1.662.605Zm-5.896-2.75-.005-.002a1.25 1.25 0 0 1-.605-1.661 1.25 1.25 0 0 1 1.661-.605l.005.002a1.25 1.25 0 0 1 .605 1.662 1.25 1.25 0 0 1-1.666.602ZM121.4 8.296l-.005-.002a1.25 1.25 0 0 1-.605-1.661 1.25 1.25 0 0 1 1.661-.605l.006.003a1.25 1.25 0 0 1 .604 1.66 1.25 1.25 0 0 1-1.66.605Zm-5.896-2.75-.006-.002a1.25 1.25 0 0 1-.604-1.66 1.25 1.25 0 0 1 1.661-.605l.005.002a1.25 1.25 0 0 1 .605 1.661 1.25 1.25 0 0 1-1.661.605Zm-5.897-2.749-.005-.002a1.25 1.25 0 0 1-.604-1.66 1.25 1.25 0 0 1 1.662-.606l.005.003a1.25 1.25 0 0 1 .604 1.66 1.25 1.25 0 0 1-1.662.605Z" data-name="Line 132"/><path fill="#ee6f22" d="M219.441 110.133a1.245 1.245 0 0 1-.538-.122 1.25 1.25 0 1 1 1.078-2.256 1.25 1.25 0 0 1-.54 2.378Zm-5.87-2.8a1.245 1.245 0 0 1-.538-.122 1.25 1.25 0 0 1 1.078-2.256 1.25 1.25 0 0 1-.54 2.378Zm-5.871-2.81a1.245 1.245 0 0 1-.538-.122 1.25 1.25 0 1 1 1.078-2.256 1.25 1.25 0 0 1-.54 2.378Zm-5.87-2.8a1.245 1.245 0 0 1-.538-.122 1.25 1.25 0 1 1 1.078-2.256 1.25 1.25 0 0 1-.54 2.378Zm-5.87-2.8a1.245 1.245 0 0 1-.538-.122 1.254 1.254 0 0 1 1.078-2.265 1.25 1.25 0 0 1-.54 2.378Zm-5.87-2.8a1.245 1.245 0 0 1-.538-.122 1.25 1.25 0 1 1 1.078-2.256 1.25 1.25 0 0 1-.54 2.378Zm-5.87-2.8a1.245 1.245 0 0 1-.538-.122 1.25 1.25 0 1 1 1.078-2.256 1.25 1.25 0 0 1-.54 2.378Zm-5.87-2.8a1.245 1.245 0 0 1-.538-.122 1.25 1.25 0 0 1 1.078-2.256 1.25 1.25 0 0 1-.54 2.378Zm-5.87-2.8a1.245 1.245 0 0 1-.538-.122 1.25 1.25 0 0 1 1.078-2.256 1.25 1.25 0 0 1-.54 2.378Zm-5.87-2.8a1.245 1.245 0 0 1-.538-.122 1.25 1.25 0 1 1 1.078-2.256 1.25 1.25 0 0 1-.54 2.378Zm-5.87-2.8a1.245 1.245 0 0 1-.538-.122 1.25 1.25 0 1 1 1.078-2.256 1.25 1.25 0 0 1-.54 2.378Zm-5.87-2.8a1.245 1.245 0 0 1-.538-.122 1.25 1.25 0 0 1 1.078-2.256 1.25 1.25 0 0 1-.54 2.378Zm-5.87-2.8a1.245 1.245 0 0 1-.538-.122 1.25 1.25 0 1 1 1.078-2.256 1.25 1.25 0 0 1-.54 2.378Zm-5.87-2.8a1.245 1.245 0 0 1-.538-.122 1.25 1.25 0 1 1 1.078-2.256 1.25 1.25 0 0 1-.54 2.378Zm-5.87-2.8a1.245 1.245 0 0 1-.538-.122 1.25 1.25 0 0 1 1.078-2.256 1.25 1.25 0 0 1-.54 2.378Zm-5.87-2.8a1.245 1.245 0 0 1-.538-.122 1.25 1.25 0 1 1 1.078-2.256 1.25 1.25 0 0 1-.54 2.378Zm-5.87-2.8a1.245 1.245 0 0 1-.538-.122 1.25 1.25 0 1 1 1.078-2.256 1.25 1.25 0 0 1-.54 2.378Zm-5.87-2.8a1.245 1.245 0 0 1-.538-.122 1.25 1.25 0 0 1 1.078-2.256 1.25 1.25 0 0 1-.54 2.378Zm-5.87-2.8a1.245 1.245 0 0 1-.538-.122 1.25 1.25 0 0 1 1.078-2.256 1.25 1.25 0 0 1-.54 2.378Zm-5.87-2.8a1.245 1.245 0 0 1-.538-.122 1.25 1.25 0 1 1 1.078-2.256 1.25 1.25 0 0 1-.54 2.378Zm-5.87-2.8a1.245 1.245 0 0 1-.538-.122 1.25 1.25 0 1 1 1.078-2.256 1.25 1.25 0 0 1-.54 2.378Zm-5.87-2.8a1.245 1.245 0 0 1-.538-.122 1.25 1.25 0 0 1 1.078-2.256 1.25 1.25 0 0 1-.54 2.378Zm-5.87-2.8a1.245 1.245 0 0 1-.538-.122 1.25 1.25 0 1 1 1.078-2.256 1.25 1.25 0 0 1-.54 2.378Zm-5.87-2.8a1.245 1.245 0 0 1-.538-.122 1.25 1.25 0 1 1 1.078-2.256 1.25 1.25 0 0 1-.54 2.378Zm-5.87-2.8a1.245 1.245 0 0 1-.538-.122 1.25 1.25 0 0 1 1.078-2.256 1.25 1.25 0 0 1-.54 2.378Zm-5.87-2.8a1.245 1.245 0 0 1-.538-.122 1.25 1.25 0 1 1 1.078-2.256 1.25 1.25 0 0 1-.54 2.378Zm-5.87-2.8a1.245 1.245 0 0 1-.538-.122 1.25 1.25 0 1 1 1.078-2.256 1.25 1.25 0 0 1-.54 2.378Zm-5.87-2.8a1.245 1.245 0 0 1-.538-.122 1.25 1.25 0 0 1 1.078-2.256 1.25 1.25 0 0 1-.54 2.378Zm-5.87-2.8a1.245 1.245 0 0 1-.538-.122 1.25 1.25 0 0 1 1.078-2.256 1.25 1.25 0 0 1-.54 2.378Zm-5.87-2.8a1.245 1.245 0 0 1-.538-.122 1.25 1.25 0 1 1 1.078-2.256 1.25 1.25 0 0 1-.54 2.378Zm-5.87-2.8a1.245 1.245 0 0 1-.538-.122 1.25 1.25 0 1 1 1.078-2.256 1.25 1.25 0 0 1-.54 2.378Zm-5.87-2.8a1.245 1.245 0 0 1-.538-.122A1.303 1.303 0 0 1 38 20.823a1.25 1.25 0 0 1-.54 2.378Zm-5.87-2.8a1.245 1.245 0 0 1-.538-.122 1.303 1.303 0 1 1 1.068-2.378 1.25 1.25 0 0 1-.54 2.378Zm-5.87-2.8a1.245 1.245 0 0 1-.538-.122 1.303 1.303 0 1 1 1.068-2.378 1.25 1.25 0 0 1-.54 2.378Zm-5.87-2.8a1.245 1.245 0 0 1-.538-.122 1.25 1.25 0 0 1 1.078-2.256 1.25 1.25 0 0 1-.54 2.378Zm-5.87-2.8a1.245 1.245 0 0 1-.538-.122 1.25 1.25 0 1 1 1.078-2.256 1.25 1.25 0 0 1-.54 2.378Zm-5.87-2.8a1.245 1.245 0 0 1-.538-.122A1.25 1.25 0 1 1 8.66 6.945a1.25 1.25 0 0 1-.54 2.378Zm-5.87-2.8a1.245 1.245 0 0 1-.538-.122 1.312 1.312 0 0 1 1.067-2.398 1.25 1.25 0 0 1-.54 2.378Z" data-name="Line 131"/><path fill="none" d="M0 9.023h238v119H0z" data-name="Rectangle 407"/></svg>
