<?xml version="1.0" encoding="utf-8"?>
<svg xmlns="http://www.w3.org/2000/svg">
  <defs>
    <symbol id="email" xmlns="http://www.w3.org/2000/svg" viewBox="0 0 24 24">
      <path fill="currentColor"
        d="M12 .02c-6.627 0-12 5.373-12 12s5.373 12 12 12 12-5.373 12-12-5.373-12-12-12zm6.99 6.98l-6.99 5.666-6.991-5.666h13.981zm.01 10h-14v-8.505l7 5.673 7-5.672v8.504z" />
    </symbol>
    <symbol id="facebook" xmlns="http://www.w3.org/2000/svg" viewBox="0 0 24 24">
      <path fill="currentColor"
        d="M12 0c-6.627 0-12 5.373-12 12s5.373 12 12 12 12-5.373 12-12-5.373-12-12-12zm3 8h-1.35c-.538 0-.65.221-.65.778v1.222h2l-.209 2h-1.791v7h-3v-7h-2v-2h2v-2.308c0-1.769.931-2.692 3.029-2.692h1.971v3z" />
    </symbol>
    <symbol id="instagram" xmlns="http://www.w3.org/2000/svg" viewBox="0 0 24 24">
      <path fill="currentColor"
        d="M14.829 6.302c-.738-.034-.96-.04-2.829-.04s-2.09.007-2.828.04c-1.899.087-2.783.986-2.87 2.87-.033.738-.041.959-.041 2.828s.008 2.09.041 2.829c.087 1.879.967 2.783 2.87 2.87.737.033.959.041 2.828.041 1.87 0 2.091-.007 2.829-.041 1.899-.086 2.782-.988 2.87-2.87.033-.738.04-.96.04-2.829s-.007-2.09-.04-2.828c-.088-1.883-.973-2.783-2.87-2.87zm-2.829 9.293c-1.985 0-3.595-1.609-3.595-3.595 0-1.985 1.61-3.594 3.595-3.594s3.595 1.609 3.595 3.594c0 1.985-1.61 3.595-3.595 3.595zm3.737-6.491c-.464 0-.84-.376-.84-.84 0-.464.376-.84.84-.84.464 0 .84.376.84.84 0 .463-.376.84-.84.84zm-1.404 2.896c0 1.289-1.045 2.333-2.333 2.333s-2.333-1.044-2.333-2.333c0-1.289 1.045-2.333 2.333-2.333s2.333 1.044 2.333 2.333zm-2.333-12c-6.627 0-12 5.373-12 12s5.373 12 12 12 12-5.373 12-12-5.373-12-12-12zm6.958 14.886c-.115 2.545-1.532 3.955-4.071 4.072-.747.034-.986.042-2.887.042s-2.139-.008-2.886-.042c-2.544-.117-3.955-1.529-4.072-4.072-.034-.746-.042-.985-.042-2.886 0-1.901.008-2.139.042-2.886.117-2.544 1.529-3.955 4.072-4.071.747-.035.985-.043 2.886-.043s2.14.008 2.887.043c2.545.117 3.957 1.532 4.071 4.071.034.747.042.985.042 2.886 0 1.901-.008 2.14-.042 2.886z" />
    </symbol>
    <symbol id="youtube" xmlns="http://www.w3.org/2000/svg" viewBox="0 0 24 24">
      <path fill="currentColor"
        d="M12 0c-6.627 0-12 5.373-12 12s5.373 12 12 12 12-5.373 12-12-5.373-12-12-12zm4.441 16.892c-2.102.144-6.784.144-8.883 0-2.276-.156-2.541-1.27-2.558-4.892.017-3.629.285-4.736 2.558-4.892 2.099-.144 6.782-.144 8.883 0 2.277.156 2.541 1.27 2.559 4.892-.018 3.629-.285 4.736-2.559 4.892zm-6.441-7.234l4.917 2.338-4.917 2.346v-4.684z" />
    </symbol>
    <symbol id="web" xmlns="http://www.w3.org/2000/svg" viewBox="0 0 24 24">
      <path fill="currentColor" fill-rule="nonzero"
        d="M12 0C5.373 0 0 5.373 0 12s5.373 12 12 12 12-5.373 12-12S18.627 0 12 0Zm1 15.797V13h3a15.569 15.569 0 0 1-.457 3A26.566 26.566 0 0 0 13 15.797Zm2 2.384c-.51 1.47-1.184 2.76-2 3.819v-4c.68.03 1.348.09 2 .181ZM13 11V8.207c.87-.031 1.724-.095 2.553-.207.239.951.39 1.955.447 3h-3Zm0-5V2c.818 1.059 1.493 2.35 2 3.82-.651.091-1.32.15-2 .18Zm3-3a9.174 9.174 0 0 1 3 2.339c-.585.255-1.195.481-1.841.661A18.383 18.383 0 0 0 16 3ZM8.457 16A15.491 15.491 0 0 1 8 13h3v2.797c-.867.031-1.717.093-2.543.203ZM11 18v4c-.816-1.06-1.49-2.35-2-3.819.652-.091 1.32-.15 2-.181Zm-3-7c.057-1.045.207-2.049.447-3 .829.112 1.683.176 2.553.207V11H8Zm1-5.18c.508-1.47 1.183-2.761 2-3.82v4a21.12 21.12 0 0 1-2-.18ZM6.84 6A13.956 13.956 0 0 1 5 5.339 9.183 9.183 0 0 1 8 3c-.452.92-.845 1.92-1.16 3ZM6 7.004A27.343 27.343 0 0 0 5.555 11H2c.15-1.835.668-3.538 1.462-5 .795.4 1.641.741 2.538 1.004ZM6 17.01c-.891.26-1.732.596-2.523.989A12.483 12.483 0 0 1 2 13h3.549A26.96 26.96 0 0 0 6 17.011Zm.842.989c.315 1.08.707 2.08 1.158 3-1.127-.542-2.143-1.34-3-2.34A14.247 14.247 0 0 1 6.842 18Zm10.317 0c.645.18 1.254.406 1.841.66-.858.999-1.874 1.797-3 2.34.45-.92.843-1.92 1.159-3Zm.841-.989c.244-1.278.399-2.621.452-4.011H22c-.15 1.837-.675 3.541-1.477 5A15.228 15.228 0 0 0 18 17.011ZM18.445 11A27.467 27.467 0 0 0 18 7.004 15.104 15.104 0 0 0 20.54 6 12.648 12.648 0 0 1 22 11h-3.555Z">
      </path>
    </symbol>
    <symbol xmlns="http://www.w3.org/2000/svg" viewBox="0 0 28.096 28.756" id="info">
      <path fill="currentColor"
        d="M14.048 1A12.8 12.8 0 0 0 4.83 4.91a13.618 13.618 0 0 0 0 18.936 12.821 12.821 0 0 0 18.436 0 13.618 13.618 0 0 0 0-18.936A12.8 12.8 0 0 0 14.048 1m0-1A14.216 14.216 0 0 1 28.1 14.378a14.216 14.216 0 0 1-14.052 14.378A14.216 14.216 0 0 1 0 14.378 14.216 14.216 0 0 1 14.048 0Z">
      </path>
      <path fill="currentColor"
        d="M10.616 21.676a5.966 5.966 0 0 1 .429-1.9l2.46-6.967a2.631 2.631 0 0 0 .169-.767c0-.3-.11-.326-.256-.326a.933.933 0 0 0-.742.453 7.24 7.24 0 0 0-.84 1.729l-.384 1.015h-.963l.716-2.013a3.849 3.849 0 0 1 1.324-1.963 3.09 3.09 0 0 1 1.764-.572 1.55 1.55 0 0 1 1.768 1.7 5.553 5.553 0 0 1-.383 1.856l-2.46 6.968a2.631 2.631 0 0 0-.169.767c0 .275.1.325.3.325a.921.921 0 0 0 .7-.432 7.1 7.1 0 0 0 .859-1.751l.384-1.013h.963l-.716 2.014a4.06 4.06 0 0 1-1.294 1.934 2.934 2.934 0 0 1-1.77.6c-1.536-.004-1.859-.903-1.859-1.657Zm3.958-13.615a1.407 1.407 0 0 1-.393-1.013 1.976 1.976 0 0 1 .588-1.4 1.842 1.842 0 0 1 1.364-.618 1.352 1.352 0 0 1 1.034.424 1.449 1.449 0 0 1 .39 1.021 1.918 1.918 0 0 1-.6 1.4 1.894 1.894 0 0 1-1.372.6 1.348 1.348 0 0 1-1.011-.414Z">
      </path>
    </symbol>
    <symbol xmlns="http://www.w3.org/2000/svg" viewBox="0 0 11.839 11.839" id="close">
      <g fill="currentColor">
        <path d="M10.425 11.839 0 1.414 1.414 0l10.425 10.425Z"></path>
        <path d="M0 10.425 10.425 0l1.414 1.414L1.414 11.839Z"></path>
      </g>
    </symbol>
    <symbol xmlns="http://www.w3.org/2000/svg" viewBox="0 0 8.227 14.076" id="caret">
      <path fill="currentColor" d="m0 6.793.438-.415L6.813.003l1.416 1.414-5.417 5.417 5.417 5.832-1.416 1.414Z"></path>
    </symbol>
    <symbol xmlns="http://www.w3.org/2000/svg" preserveAspectRatio="xMaxYMid meet" viewBox="0 0 238 128.023"
      id="libre-de">
      <path fill="currentColor"
        d="M94.197 13.363q3.299 1.538 4.722 2.116-1.37 1.398-2.372 2.565-.643.762-1.35 1.724l-.543-.254a16.392 16.392 0 0 0 1.358-2.235 2.1 2.1 0 0 0 .153-1.866 3.956 3.956 0 0 0-1.907-1.448l-1.249-.582a4.992 4.992 0 0 0-1.32-.459 1.355 1.355 0 0 0-.92.217 5.234 5.234 0 0 0-1.099 1.066l-4.26 5.075 1.722.803a2.406 2.406 0 0 0 2.126.116 5.631 5.631 0 0 0 1.536-1.049q.613-.604.802-.773l.544.253q-1.22 1.325-2.132 2.42l-.395.478q-1.102 1.379-2.314 2.994l-.544-.254.312-.485a6.834 6.834 0 0 0 .635-1.053 1.733 1.733 0 0 0 .157-1.26 1.808 1.808 0 0 0-1.068-.971l-1.722-.803-3.988 4.738a5.017 5.017 0 0 0-.666.946.815.815 0 0 0 .084.958 5.587 5.587 0 0 0 1.481.977l-.338.416q-1.192-.642-3.43-1.686-2.003-.934-3.024-1.324l.337-.416a5.555 5.555 0 0 0 1.344.397 1.419 1.419 0 0 0 .925-.23 5.234 5.234 0 0 0 1.1-1.066l8.585-10.23a5.132 5.132 0 0 0 .75-1.055.727.727 0 0 0-.033-.82 4 4 0 0 0-1.138-.788l.337-.417q2.278 1.155 6.802 3.265Zm10.262 9.86a1.511 1.511 0 0 1 .837.85 1.443 1.443 0 0 1-.073 1.142 1.805 1.805 0 0 1-1.055.97 1.746 1.746 0 0 1-1.386-.043 1.113 1.113 0 0 1-.579-.542.862.862 0 0 1 .032-.745 1.642 1.642 0 0 1 .712-.788 2.056 2.056 0 0 1 1.052-.226.386.386 0 0 0-.217-.212q-1.269-.591-4.049 1.454a41.329 41.329 0 0 0-6.195 5.933l-1.338 1.64-2.05-.956 7.541-8.79a3.4 3.4 0 0 0 .594-.842q.254-.544-.241-.775a1.352 1.352 0 0 0-1.213.11 7.337 7.337 0 0 0-1.746 1.437l-.713.729-.448-.209 1.392-1.447q1.98-2.032 3.983-1.098a1.322 1.322 0 0 1 .706 1.993 9.308 9.308 0 0 1-1.23 1.779l-2.14 2.617a21.089 21.089 0 0 1 4.65-3.727 3.516 3.516 0 0 1 3.173-.252Zm9.335 6.247a4.481 4.481 0 0 1-3.704 2.349 21.682 21.682 0 0 1-5.989.047 11.726 11.726 0 0 0-1.325 2.165q-1.057 2.265.57 3.024 2.026.945 4.723-.666l.29.364a7.97 7.97 0 0 1-3.072 1.274 5 5 0 0 1-3.132-.327 3.354 3.354 0 0 1-1.89-1.914 3.763 3.763 0 0 1 .329-2.859 10.739 10.739 0 0 1 2.933-3.552 12.72 12.72 0 0 1 4.625-2.505 6.366 6.366 0 0 1 4.624.234 2.119 2.119 0 0 1 1.062.983 1.544 1.544 0 0 1-.043 1.385Zm-1.75-2.164a2.888 2.888 0 0 0-2.096.098 10.741 10.741 0 0 0-2.835 1.535 14.4 14.4 0 0 0-2.685 2.534 13.558 13.558 0 0 0 3.906-.01 5.268 5.268 0 0 0 2.13-1.03 5.182 5.182 0 0 0 1.466-1.883 2.716 2.716 0 0 0 .306-.895.335.335 0 0 0-.187-.345Zm8.911-.837a1.957 1.957 0 0 1 1.118-1.013 1.807 1.807 0 0 1 1.472.012 1.254 1.254 0 0 1 .707.76 1.357 1.357 0 0 1-.077 1.025 1.893 1.893 0 0 1-1.126.996 1.866 1.866 0 0 1-1.479-.028 1.244 1.244 0 0 1-.689-.737 1.311 1.311 0 0 1 .079-1.01Zm-3.496 5.652a3.318 3.318 0 0 0 .595-.784q.275-.59-.244-.83a1.331 1.331 0 0 0-1.23.114 8.446 8.446 0 0 0-1.752 1.42l-.737.719-.447-.21 1.415-1.435a4.051 4.051 0 0 1 2.14-1.298 3.188 3.188 0 0 1 1.915.231q1.555.725.863 2.21a5.985 5.985 0 0 1-1.222 1.637l-5.85 5.977a3.318 3.318 0 0 0-.596.784q-.275.59.29.853a1.307 1.307 0 0 0 1.175-.116 8.247 8.247 0 0 0 1.785-1.43l.736-.718.448.208-1.416 1.437a4.292 4.292 0 0 1-2.104 1.283 3.023 3.023 0 0 1-1.922-.208q-1.65-.77-.98-2.207a6.516 6.516 0 0 1 1.293-1.664Zm13.558 5.376a4.481 4.481 0 0 1-3.702 2.354 21.682 21.682 0 0 1-5.989.047 11.726 11.726 0 0 0-1.325 2.165q-1.056 2.266.57 3.024 2.026.945 4.724-.666l.289.364a7.97 7.97 0 0 1-3.072 1.275 5 5 0 0 1-3.132-.328 3.354 3.354 0 0 1-1.89-1.914 3.763 3.763 0 0 1 .33-2.859 10.739 10.739 0 0 1 2.932-3.552 12.72 12.72 0 0 1 4.625-2.505 6.366 6.366 0 0 1 4.625.234 2.119 2.119 0 0 1 1.062.983 1.544 1.544 0 0 1-.044 1.386Zm-1.75-2.164a2.888 2.888 0 0 0-2.096.098 10.74 10.74 0 0 0-2.837 1.531 14.4 14.4 0 0 0-2.681 2.543 13.558 13.558 0 0 0 3.906-.01 5.268 5.268 0 0 0 2.13-1.03 5.182 5.182 0 0 0 1.466-1.883 2.716 2.716 0 0 0 .3-.897.335.335 0 0 0-.18-.343Zm12.082 5.088a1.511 1.511 0 0 1 .838.85 1.443 1.443 0 0 1-.074 1.142 1.805 1.805 0 0 1-1.055.97 1.746 1.746 0 0 1-1.385-.043 1.113 1.113 0 0 1-.58-.542.862.862 0 0 1 .033-.746 1.642 1.642 0 0 1 .71-.787 2.056 2.056 0 0 1 1.053-.226.386.386 0 0 0-.217-.212q-1.269-.592-4.049 1.454a41.329 41.329 0 0 0-6.194 5.933l-1.328 1.65-2.05-.956 7.542-8.79a3.4 3.4 0 0 0 .593-.843q.254-.544-.241-.774a1.352 1.352 0 0 0-1.213.108 7.337 7.337 0 0 0-1.746 1.438l-.713.73-.447-.21 1.392-1.447q1.98-2.031 3.983-1.097a1.322 1.322 0 0 1 .705 1.993 9.308 9.308 0 0 1-1.23 1.778l-2.139 2.617a21.089 21.089 0 0 1 4.65-3.727 3.516 3.516 0 0 1 3.177-.25Zm19.074 3.819q3.299 1.538 4.722 2.116-1.404 1.41-2.192 2.363a9.319 9.319 0 0 0-1.011 1.307l-.544-.254a16.252 16.252 0 0 0 1.09-1.786 1.862 1.862 0 0 0 .142-1.656 3.5 3.5 0 0 0-1.675-1.268l-1.722-.803a4.992 4.992 0 0 0-1.321-.458 1.355 1.355 0 0 0-.919.217 5.234 5.234 0 0 0-1.1 1.065l-4.06 4.88 1.555.726a2.522 2.522 0 0 0 1.548.248 3.3 3.3 0 0 0 1.27-.51 9.747 9.747 0 0 0 1.228-1.033 4.338 4.338 0 0 1 .42-.407l.543.253q-1.22 1.325-2.132 2.42l-.395.478q-.912 1.095-2.314 2.994l-.544-.253.29-.439.313-.485a5.212 5.212 0 0 0 .333-.59 1.746 1.746 0 0 0 .154-1.277 1.82 1.82 0 0 0-1.074-.997l-1.555-.726-4.142 4.958a4.88 4.88 0 0 0-.75 1.056.7.7 0 0 0 .05.813 3.869 3.869 0 0 0 1.174.732l1.722.802a6.415 6.415 0 0 0 2.51.7 3.75 3.75 0 0 0 2.031-.568 13.573 13.573 0 0 0 2.374-1.983l.543.254a17.882 17.882 0 0 0-1.31 1.455 27.09 27.09 0 0 0-2.044 2.718q-1.57-.818-5.363-2.587-4.524-2.11-6.843-3.105l.338-.416a5.555 5.555 0 0 0 1.348.4 1.419 1.419 0 0 0 .925-.231 5.234 5.234 0 0 0 1.1-1.065l8.585-10.23a5.132 5.132 0 0 0 .75-1.056.727.727 0 0 0-.033-.82 4 4 0 0 0-1.138-.788l.337-.417q2.274 1.153 6.801 3.264Zm8.123 4.419a1.957 1.957 0 0 1 1.118-1.014 1.807 1.807 0 0 1 1.472.013 1.254 1.254 0 0 1 .707.76 1.357 1.357 0 0 1-.077 1.025 1.893 1.893 0 0 1-1.126.996 1.866 1.866 0 0 1-1.479-.028 1.244 1.244 0 0 1-.689-.737 1.311 1.311 0 0 1 .087-1.005Zm-3.496 5.652a3.318 3.318 0 0 0 .595-.784q.275-.59-.244-.83a1.331 1.331 0 0 0-1.23.114 8.446 8.446 0 0 0-1.752 1.42l-.737.719-.447-.21 1.415-1.436a4.051 4.051 0 0 1 2.14-1.297 3.188 3.188 0 0 1 1.915.231q1.555.725.863 2.21a5.985 5.985 0 0 1-1.222 1.637l-5.843 5.983a3.318 3.318 0 0 0-.595.784q-.274.59.291.853a1.307 1.307 0 0 0 1.173-.115 8.247 8.247 0 0 0 1.786-1.431l.736-.718.448.208-1.415 1.437a4.292 4.292 0 0 1-2.105 1.283 3.023 3.023 0 0 1-1.925-.21q-1.65-.769-.979-2.206a6.516 6.516 0 0 1 1.292-1.664Zm12.96 13.711-1.393 1.448q-1.979 2.03-3.982 1.095a1.772 1.772 0 0 1-1.166-1.375 1.532 1.532 0 0 1 .174-.866 7.037 7.037 0 0 1 1.258-1.65l5.381-5.696a4.927 4.927 0 0 0 .774-1.045q.385-.825-.37-1.176a3.369 3.369 0 0 0-2.647.357 17.978 17.978 0 0 0-3.927 2.544 35.093 35.093 0 0 0-4.27 4.174l-1.227 1.525-2.05-.957 7.54-8.79a4.318 4.318 0 0 0 .572-.795q.275-.59-.244-.83a1.27 1.27 0 0 0-1.16.089 8.337 8.337 0 0 0-1.775 1.468l-.713.729-.444-.208 1.392-1.447q1.98-2.031 3.936-1.12a1.5 1.5 0 0 1 .903.863 1.667 1.667 0 0 1-.16 1.174 9.286 9.286 0 0 1-1.22 1.754l-2.335 2.847a19.907 19.907 0 0 1 5.238-3.697 4.506 4.506 0 0 1 3.72-.072q1.909.89 1.085 2.657a6.105 6.105 0 0 1-1.189 1.626l-5.493 5.815a3.345 3.345 0 0 0-.606.808.552.552 0 0 0 .301.83 1.332 1.332 0 0 0 1.154-.108 7.22 7.22 0 0 0 1.78-1.451l.713-.73Zm3.183 3.692a2.374 2.374 0 0 0-.312.485.957.957 0 0 0-.047.84 1.217 1.217 0 0 0 .62.575 1.689 1.689 0 0 0 1.333.005 5.854 5.854 0 0 0 1.86-1.385l.758-.765.447.209-1.187 1.253a4.654 4.654 0 0 1-2.241 1.466 3.438 3.438 0 0 1-2.225-.305 2.37 2.37 0 0 1-1.337-1.255 2.144 2.144 0 0 1 .152-1.68 5.348 5.348 0 0 1 .839-1.243l6.543-7.505-2.12-.989.337-.416 2.121.989 2.707-3.099a8.5 8.5 0 0 0 2.275.66l-2.932 3.395 3.11 1.45-.29.438-3.181-1.483Zm19.242-3.736a1.511 1.511 0 0 1 .838.85 1.443 1.443 0 0 1-.074 1.141 1.805 1.805 0 0 1-1.055.971 1.746 1.746 0 0 1-1.385-.043 1.113 1.113 0 0 1-.58-.543.862.862 0 0 1 .033-.745 1.642 1.642 0 0 1 .71-.787 2.056 2.056 0 0 1 1.053-.227.386.386 0 0 0-.217-.211q-1.269-.592-4.049 1.454a41.33 41.33 0 0 0-6.194 5.933l-1.339 1.64-2.05-.956 7.542-8.79a3.4 3.4 0 0 0 .593-.843q.254-.543-.241-.774a1.352 1.352 0 0 0-1.213.109 7.337 7.337 0 0 0-1.746 1.437l-.713.73-.448-.21 1.393-1.447q1.98-2.031 3.983-1.097a1.322 1.322 0 0 1 .705 1.993 9.308 9.308 0 0 1-1.23 1.778l-2.14 2.618a21.089 21.089 0 0 1 4.65-3.728 3.516 3.516 0 0 1 3.173-.251Zm6.864-1.246a1.957 1.957 0 0 1 1.118-1.014 1.807 1.807 0 0 1 1.475.016 1.254 1.254 0 0 1 .707.76 1.357 1.357 0 0 1-.076 1.026 1.893 1.893 0 0 1-1.126.995 1.866 1.866 0 0 1-1.48-.027 1.244 1.244 0 0 1-.688-.737 1.311 1.311 0 0 1 .07-1.017Zm-3.496 5.652a3.318 3.318 0 0 0 .595-.784q.274-.59-.244-.831a1.331 1.331 0 0 0-1.23.115 8.446 8.446 0 0 0-1.752 1.42l-.737.719-.447-.21 1.415-1.436a4.051 4.051 0 0 1 2.14-1.297 3.187 3.187 0 0 1 1.915.231q1.555.725.863 2.21a5.985 5.985 0 0 1-1.223 1.637l-5.855 5.975a3.318 3.318 0 0 0-.595.784q-.275.589.29.852a1.307 1.307 0 0 0 1.173-.115 8.247 8.247 0 0 0 1.786-1.431l.737-.718.447.209-1.415 1.436a4.292 4.292 0 0 1-2.105 1.283 3.023 3.023 0 0 1-1.925-.21q-1.65-.768-.979-2.206a6.516 6.516 0 0 1 1.292-1.664Zm2.464 11.018a2.374 2.374 0 0 0-.312.485.957.957 0 0 0-.047.839 1.217 1.217 0 0 0 .62.576 1.689 1.689 0 0 0 1.333.004 5.853 5.853 0 0 0 1.862-1.379l.758-.763.448.21-1.187 1.253a4.654 4.654 0 0 1-2.246 1.462 3.438 3.438 0 0 1-2.224-.306 2.37 2.37 0 0 1-1.337-1.255 2.144 2.144 0 0 1 .151-1.679 5.348 5.348 0 0 1 .839-1.244l6.541-7.507-2.12-.989.337-.416 2.12.989 2.708-3.098a8.5 8.5 0 0 0 2.274.659l-2.931 3.395 3.11 1.45-.29.439-3.179-1.483Zm7.918 3.692a2.374 2.374 0 0 0-.313.485.957.957 0 0 0-.047.839 1.217 1.217 0 0 0 .621.576 1.689 1.689 0 0 0 1.332.004 5.853 5.853 0 0 0 1.862-1.379l.759-.765.448.209-1.188 1.254a4.654 4.654 0 0 1-2.246 1.464 3.438 3.438 0 0 1-2.224-.306 2.37 2.37 0 0 1-1.337-1.255 2.144 2.144 0 0 1 .152-1.679 5.348 5.348 0 0 1 .838-1.244l6.544-7.505-2.12-.989.337-.416 2.12.989 2.708-3.098a8.5 8.5 0 0 0 2.274.659l-2.931 3.395 3.11 1.45-.29.439-3.182-1.484Z">
      </path>
      <path fill="currentColor"
        d="m221.633 55.034-.006-.002a1.25 1.25 0 0 1-.604-1.662 1.25 1.25 0 0 1 1.66-.604l.006.002a1.25 1.25 0 0 1 .605 1.661 1.25 1.25 0 0 1-1.661.605Zm-5.897-2.75-.004-.002a1.25 1.25 0 0 1-.605-1.66 1.25 1.25 0 0 1 1.661-.605l.005.002a1.25 1.25 0 0 1 .604 1.66 1.25 1.25 0 0 1-1.66.606Zm-5.895-2.749-.005-.002a1.25 1.25 0 0 1-.605-1.661 1.25 1.25 0 0 1 1.66-.605l.005.002a1.25 1.25 0 0 1 .606 1.662 1.25 1.25 0 0 1-1.661.604Zm-5.896-2.749-.005-.002a1.25 1.25 0 0 1-.605-1.661 1.25 1.25 0 0 1 1.661-.605l.006.002a1.25 1.25 0 0 1 .603 1.661 1.25 1.25 0 0 1-1.66.605Zm-5.896-2.75-.005-.001a1.25 1.25 0 0 1-.605-1.662 1.25 1.25 0 0 1 1.66-.605l.005.003a1.25 1.25 0 0 1 .606 1.661 1.25 1.25 0 0 1-1.661.605Zm-5.896-2.748-.005-.003a1.25 1.25 0 0 1-.605-1.661 1.25 1.25 0 0 1 1.661-.605l.006.003a1.25 1.25 0 0 1 .603 1.66 1.25 1.25 0 0 1-1.66.605Zm-5.896-2.75-.005-.002a1.25 1.25 0 0 1-.609-1.663 1.25 1.25 0 0 1 1.661-.605l.005.002a1.25 1.25 0 0 1 .609 1.663 1.25 1.25 0 0 1-1.661.605Zm-5.896-2.75-.005-.002a1.25 1.25 0 0 1-.604-1.66 1.25 1.25 0 0 1 1.661-.605l.006.003a1.25 1.25 0 0 1 .599 1.658 1.25 1.25 0 0 1-1.658.606Zm-5.896-2.749-.005-.002a1.25 1.25 0 0 1-.605-1.661 1.25 1.25 0 0 1 1.66-.605l.005.002a1.25 1.25 0 0 1 .607 1.662 1.25 1.25 0 0 1-1.662.604Zm-5.896-2.749-.005-.002a1.25 1.25 0 0 1-.605-1.661 1.25 1.25 0 0 1 1.661-.605l.006.002a1.25 1.25 0 0 1 .604 1.661 1.25 1.25 0 0 1-1.662.605Zm-5.896-2.75-.005-.001a1.25 1.25 0 0 1-.605-1.662 1.25 1.25 0 0 1 1.66-.605l.005.002a1.25 1.25 0 0 1 .606 1.662 1.25 1.25 0 0 1-1.661.605Zm-5.896-2.748-.005-.003a1.25 1.25 0 0 1-.605-1.661 1.25 1.25 0 0 1 1.661-.605l.006.003a1.25 1.25 0 0 1 .604 1.66 1.25 1.25 0 0 1-1.662.605Zm-5.896-2.75-.005-.002a1.25 1.25 0 0 1-.605-1.662 1.25 1.25 0 0 1 1.66-.604l.005.002a1.25 1.25 0 0 1 .606 1.661 1.25 1.25 0 0 1-1.661.605Zm-5.896-2.75-.004-.001a1.25 1.25 0 0 1-.606-1.662 1.25 1.25 0 0 1 1.661-.604l.005.002a1.25 1.25 0 0 1 .605 1.66 1.25 1.25 0 0 1-1.662.605Zm-5.895-2.748-.006-.003a1.25 1.25 0 0 1-.605-1.661 1.25 1.25 0 0 1 1.661-.605l.005.003a1.25 1.25 0 0 1 .605 1.66 1.25 1.25 0 0 1-1.661.605Zm-5.897-2.75-.01-.004a1.25 1.25 0 0 1-.6-1.66 1.25 1.25 0 0 1 1.661-.604l.006.002a1.25 1.25 0 0 1 .604 1.661 1.25 1.25 0 0 1-1.662.605Zm-5.896-2.75-.005-.002a1.25 1.25 0 0 1-.605-1.661 1.25 1.25 0 0 1 1.661-.605l.005.002a1.25 1.25 0 0 1 .605 1.662 1.25 1.25 0 0 1-1.666.602ZM121.4 8.296l-.005-.002a1.25 1.25 0 0 1-.605-1.661 1.25 1.25 0 0 1 1.661-.605l.006.003a1.25 1.25 0 0 1 .604 1.66 1.25 1.25 0 0 1-1.66.605Zm-5.896-2.75-.006-.002a1.25 1.25 0 0 1-.604-1.66 1.25 1.25 0 0 1 1.661-.605l.005.002a1.25 1.25 0 0 1 .605 1.661 1.25 1.25 0 0 1-1.661.605Zm-5.897-2.749-.005-.002a1.25 1.25 0 0 1-.604-1.66 1.25 1.25 0 0 1 1.662-.606l.005.003a1.25 1.25 0 0 1 .604 1.66 1.25 1.25 0 0 1-1.662.605Z">
      </path>
      <path fill="currentColor"
        d="M219.441 110.133a1.245 1.245 0 0 1-.538-.122 1.25 1.25 0 1 1 1.078-2.256 1.25 1.25 0 0 1-.54 2.378Zm-5.87-2.8a1.245 1.245 0 0 1-.538-.122 1.25 1.25 0 0 1 1.078-2.256 1.25 1.25 0 0 1-.54 2.378Zm-5.871-2.81a1.245 1.245 0 0 1-.538-.122 1.25 1.25 0 1 1 1.078-2.256 1.25 1.25 0 0 1-.54 2.378Zm-5.87-2.8a1.245 1.245 0 0 1-.538-.122 1.25 1.25 0 1 1 1.078-2.256 1.25 1.25 0 0 1-.54 2.378Zm-5.87-2.8a1.245 1.245 0 0 1-.538-.122 1.254 1.254 0 0 1 1.078-2.265 1.25 1.25 0 0 1-.54 2.378Zm-5.87-2.8a1.245 1.245 0 0 1-.538-.122 1.25 1.25 0 1 1 1.078-2.256 1.25 1.25 0 0 1-.54 2.378Zm-5.87-2.8a1.245 1.245 0 0 1-.538-.122 1.25 1.25 0 1 1 1.078-2.256 1.25 1.25 0 0 1-.54 2.378Zm-5.87-2.8a1.245 1.245 0 0 1-.538-.122 1.25 1.25 0 0 1 1.078-2.256 1.25 1.25 0 0 1-.54 2.378Zm-5.87-2.8a1.245 1.245 0 0 1-.538-.122 1.25 1.25 0 0 1 1.078-2.256 1.25 1.25 0 0 1-.54 2.378Zm-5.87-2.8a1.245 1.245 0 0 1-.538-.122 1.25 1.25 0 1 1 1.078-2.256 1.25 1.25 0 0 1-.54 2.378Zm-5.87-2.8a1.245 1.245 0 0 1-.538-.122 1.25 1.25 0 1 1 1.078-2.256 1.25 1.25 0 0 1-.54 2.378Zm-5.87-2.8a1.245 1.245 0 0 1-.538-.122 1.25 1.25 0 0 1 1.078-2.256 1.25 1.25 0 0 1-.54 2.378Zm-5.87-2.8a1.245 1.245 0 0 1-.538-.122 1.25 1.25 0 1 1 1.078-2.256 1.25 1.25 0 0 1-.54 2.378Zm-5.87-2.8a1.245 1.245 0 0 1-.538-.122 1.25 1.25 0 1 1 1.078-2.256 1.25 1.25 0 0 1-.54 2.378Zm-5.87-2.8a1.245 1.245 0 0 1-.538-.122 1.25 1.25 0 0 1 1.078-2.256 1.25 1.25 0 0 1-.54 2.378Zm-5.87-2.8a1.245 1.245 0 0 1-.538-.122 1.25 1.25 0 1 1 1.078-2.256 1.25 1.25 0 0 1-.54 2.378Zm-5.87-2.8a1.245 1.245 0 0 1-.538-.122 1.25 1.25 0 1 1 1.078-2.256 1.25 1.25 0 0 1-.54 2.378Zm-5.87-2.8a1.245 1.245 0 0 1-.538-.122 1.25 1.25 0 0 1 1.078-2.256 1.25 1.25 0 0 1-.54 2.378Zm-5.87-2.8a1.245 1.245 0 0 1-.538-.122 1.25 1.25 0 0 1 1.078-2.256 1.25 1.25 0 0 1-.54 2.378Zm-5.87-2.8a1.245 1.245 0 0 1-.538-.122 1.25 1.25 0 1 1 1.078-2.256 1.25 1.25 0 0 1-.54 2.378Zm-5.87-2.8a1.245 1.245 0 0 1-.538-.122 1.25 1.25 0 1 1 1.078-2.256 1.25 1.25 0 0 1-.54 2.378Zm-5.87-2.8a1.245 1.245 0 0 1-.538-.122 1.25 1.25 0 0 1 1.078-2.256 1.25 1.25 0 0 1-.54 2.378Zm-5.87-2.8a1.245 1.245 0 0 1-.538-.122 1.25 1.25 0 1 1 1.078-2.256 1.25 1.25 0 0 1-.54 2.378Zm-5.87-2.8a1.245 1.245 0 0 1-.538-.122 1.25 1.25 0 1 1 1.078-2.256 1.25 1.25 0 0 1-.54 2.378Zm-5.87-2.8a1.245 1.245 0 0 1-.538-.122 1.25 1.25 0 0 1 1.078-2.256 1.25 1.25 0 0 1-.54 2.378Zm-5.87-2.8a1.245 1.245 0 0 1-.538-.122 1.25 1.25 0 1 1 1.078-2.256 1.25 1.25 0 0 1-.54 2.378Zm-5.87-2.8a1.245 1.245 0 0 1-.538-.122 1.25 1.25 0 1 1 1.078-2.256 1.25 1.25 0 0 1-.54 2.378Zm-5.87-2.8a1.245 1.245 0 0 1-.538-.122 1.25 1.25 0 0 1 1.078-2.256 1.25 1.25 0 0 1-.54 2.378Zm-5.87-2.8a1.245 1.245 0 0 1-.538-.122 1.25 1.25 0 0 1 1.078-2.256 1.25 1.25 0 0 1-.54 2.378Zm-5.87-2.8a1.245 1.245 0 0 1-.538-.122 1.25 1.25 0 1 1 1.078-2.256 1.25 1.25 0 0 1-.54 2.378Zm-5.87-2.8a1.245 1.245 0 0 1-.538-.122 1.25 1.25 0 1 1 1.078-2.256 1.25 1.25 0 0 1-.54 2.378Zm-5.87-2.8a1.245 1.245 0 0 1-.538-.122A1.303 1.303 0 0 1 38 20.823a1.25 1.25 0 0 1-.54 2.378Zm-5.87-2.8a1.245 1.245 0 0 1-.538-.122 1.303 1.303 0 1 1 1.068-2.378 1.25 1.25 0 0 1-.54 2.378Zm-5.87-2.8a1.245 1.245 0 0 1-.538-.122 1.303 1.303 0 1 1 1.068-2.378 1.25 1.25 0 0 1-.54 2.378Zm-5.87-2.8a1.245 1.245 0 0 1-.538-.122 1.25 1.25 0 0 1 1.078-2.256 1.25 1.25 0 0 1-.54 2.378Zm-5.87-2.8a1.245 1.245 0 0 1-.538-.122 1.25 1.25 0 1 1 1.078-2.256 1.25 1.25 0 0 1-.54 2.378Zm-5.87-2.8a1.245 1.245 0 0 1-.538-.122A1.25 1.25 0 1 1 8.66 6.945a1.25 1.25 0 0 1-.54 2.378Zm-5.87-2.8a1.245 1.245 0 0 1-.538-.122 1.312 1.312 0 0 1 1.067-2.398 1.25 1.25 0 0 1-.54 2.378Z">
      </path>
      <path fill="none" d="M0 9.023h238v119H0z"></path>
    </symbol>
    <symbol xmlns="http://www.w3.org/2000/svg" preserveAspectRatio="xMaxYMid meet" viewBox="0 0 213 104.775"
      id="libre-fr">
      <path fill="currentColor"
        d="M101.898 14.12q3.299 1.539 4.722 2.116-1.404 1.411-2.192 2.363a9.318 9.318 0 0 0-1.011 1.307l-.544-.253a16.252 16.252 0 0 0 1.091-1.787 1.862 1.862 0 0 0 .141-1.655 3.5 3.5 0 0 0-1.675-1.269l-1.722-.803a4.992 4.992 0 0 0-1.32-.458 1.355 1.355 0 0 0-.92.217 5.234 5.234 0 0 0-1.099 1.065l-4.077 4.87 1.555.724a2.522 2.522 0 0 0 1.548.249 3.3 3.3 0 0 0 1.27-.51 9.747 9.747 0 0 0 1.229-1.035 4.338 4.338 0 0 1 .419-.407l.544.254q-1.22 1.324-2.133 2.42l-.394.477Q96.417 23.1 95.015 25l-.544-.254.29-.438q.101-.154.313-.486a5.212 5.212 0 0 0 .34-.59 1.746 1.746 0 0 0 .155-1.277 1.82 1.82 0 0 0-1.08-.995l-1.556-.726-4.145 4.952a4.88 4.88 0 0 0-.75 1.056.7.7 0 0 0 .05.813 3.869 3.869 0 0 0 1.18.739l1.722.803a6.415 6.415 0 0 0 2.514.699 3.75 3.75 0 0 0 2.033-.573 13.574 13.574 0 0 0 2.373-1.983l.544.254a17.882 17.882 0 0 0-1.31 1.455 27.091 27.091 0 0 0-2.05 2.723q-1.567-.816-5.363-2.587-4.525-2.11-6.843-3.105l.337-.416a5.555 5.555 0 0 0 1.349.4 1.419 1.419 0 0 0 .925-.231 5.234 5.234 0 0 0 1.1-1.065l8.585-10.23a5.132 5.132 0 0 0 .75-1.056.727.727 0 0 0-.033-.82 4 4 0 0 0-1.139-.788l.338-.416q2.274 1.152 6.798 3.262Zm10.458 20.454-1.393 1.447q-1.979 2.03-3.982 1.096a1.772 1.772 0 0 1-1.166-1.375 1.532 1.532 0 0 1 .174-.866 7.037 7.037 0 0 1 1.258-1.651l5.381-5.696a4.927 4.927 0 0 0 .774-1.044q.385-.825-.37-1.177a3.369 3.369 0 0 0-2.644.36 17.979 17.979 0 0 0-3.926 2.543 35.093 35.093 0 0 0-4.274 4.173l-1.227 1.524-2.05-.956 7.542-8.79a4.318 4.318 0 0 0 .571-.795q.275-.59-.243-.83a1.27 1.27 0 0 0-1.161.09 8.337 8.337 0 0 0-1.78 1.465l-.712.729-.448-.21 1.392-1.446q1.98-2.032 3.936-1.12a1.5 1.5 0 0 1 .903.862 1.667 1.667 0 0 1-.16 1.174 9.286 9.286 0 0 1-1.22 1.755l-2.33 2.843a19.907 19.907 0 0 1 5.239-3.696 4.506 4.506 0 0 1 3.72-.067q1.908.89 1.084 2.657a6.105 6.105 0 0 1-1.189 1.626l-5.488 5.817a3.344 3.344 0 0 0-.606.808.552.552 0 0 0 .301.83 1.332 1.332 0 0 0 1.154-.108 7.22 7.22 0 0 0 1.78-1.451l.713-.73Zm3.184 3.692a2.374 2.374 0 0 0-.313.485.957.957 0 0 0-.047.839 1.217 1.217 0 0 0 .621.576 1.689 1.689 0 0 0 1.332.005 5.854 5.854 0 0 0 1.86-1.385l.758-.766.448.21-1.187 1.253a4.654 4.654 0 0 1-2.242 1.466 3.438 3.438 0 0 1-2.222-.303 2.37 2.37 0 0 1-1.337-1.255 2.144 2.144 0 0 1 .152-1.68 5.348 5.348 0 0 1 .838-1.243l6.542-7.507-2.121-.99.337-.416 2.121.99 2.707-3.099a8.5 8.5 0 0 0 2.275.66L123.13 29.5l3.11 1.45-.29.44-3.18-1.484Zm19.241-3.736a1.511 1.511 0 0 1 .838.85 1.443 1.443 0 0 1-.074 1.141 1.805 1.805 0 0 1-1.055.971 1.746 1.746 0 0 1-1.385-.044 1.113 1.113 0 0 1-.58-.542.862.862 0 0 1 .033-.745 1.642 1.642 0 0 1 .711-.788 2.056 2.056 0 0 1 1.052-.226.386.386 0 0 0-.216-.212q-1.27-.591-4.05 1.455a41.329 41.329 0 0 0-6.194 5.932l-1.339 1.64-2.05-.956 7.542-8.79a3.4 3.4 0 0 0 .593-.842q.254-.544-.24-.775a1.352 1.352 0 0 0-1.213.11 7.337 7.337 0 0 0-1.747 1.437l-.713.729-.447-.209 1.392-1.447q1.98-2.032 3.983-1.098a1.322 1.322 0 0 1 .706 1.993 9.308 9.308 0 0 1-1.231 1.779l-2.139 2.617a21.089 21.089 0 0 1 4.65-3.727 3.516 3.516 0 0 1 3.173-.252Zm9.335 6.246a4.481 4.481 0 0 1-3.703 2.349 21.682 21.682 0 0 1-5.99.047 11.726 11.726 0 0 0-1.325 2.165q-1.056 2.266.57 3.024 2.026.945 4.724-.666l.289.364a7.97 7.97 0 0 1-3.071 1.275 5 5 0 0 1-3.132-.328 3.354 3.354 0 0 1-1.89-1.914 3.763 3.763 0 0 1 .328-2.859 10.739 10.739 0 0 1 2.933-3.552 12.721 12.721 0 0 1 4.625-2.505 6.366 6.366 0 0 1 4.625.234 2.119 2.119 0 0 1 1.062.983 1.544 1.544 0 0 1-.044 1.386Zm-1.749-2.164a2.888 2.888 0 0 0-2.097.098 10.74 10.74 0 0 0-2.832 1.536 14.4 14.4 0 0 0-2.688 2.533 13.558 13.558 0 0 0 3.906-.01 5.268 5.268 0 0 0 2.134-1.027 5.182 5.182 0 0 0 1.467-1.884 2.716 2.716 0 0 0 .305-.89.335.335 0 0 0-.19-.352Zm-.114-2.893q1.435-.68 3.464-1.77a17.664 17.664 0 0 1 2.158-1.06 1.412 1.412 0 0 1 1.214-.063.839.839 0 0 1 .441.407.675.675 0 0 1-.02.536 1.671 1.671 0 0 1-1.016.76 12.073 12.073 0 0 1-2.204.545q-.22.041-1.347.304t-2.547.663Zm11.967 9.773a4.481 4.481 0 0 1-3.698 2.347 21.682 21.682 0 0 1-5.99.047 11.726 11.726 0 0 0-1.325 2.165q-1.056 2.265.57 3.024 2.026.945 4.724-.666l.289.364a7.97 7.97 0 0 1-3.071 1.274 5 5 0 0 1-3.133-.327 3.354 3.354 0 0 1-1.89-1.914 3.763 3.763 0 0 1 .324-2.86 10.739 10.739 0 0 1 2.938-3.551 12.721 12.721 0 0 1 4.625-2.505 6.366 6.366 0 0 1 4.625.234 2.119 2.119 0 0 1 1.062.983 1.544 1.544 0 0 1-.044 1.385Zm-1.75-2.164a2.888 2.888 0 0 0-2.096.098 10.74 10.74 0 0 0-2.827 1.534 14.4 14.4 0 0 0-2.688 2.533 13.558 13.558 0 0 0 3.905-.01 5.268 5.268 0 0 0 2.136-1.031 5.182 5.182 0 0 0 1.467-1.884 2.716 2.716 0 0 0 .305-.89.335.335 0 0 0-.191-.348Zm6.285 15.092a3.438 3.438 0 0 0-.526.758q-.296.635.248.888a1.257 1.257 0 0 0 1.137-.131 8.14 8.14 0 0 0 1.752-1.45l.713-.729.445.208-1.392 1.447q-1.956 2.045-3.96 1.11-1.625-.757-.911-2.29a8.019 8.019 0 0 1 1.154-1.613l9.785-10.957a2.932 2.932 0 0 0 .426-.605.806.806 0 0 0-.044-.852 2.893 2.893 0 0 0-1.138-.789l.395-.418a11.85 11.85 0 0 0 2.372.79 9.8 9.8 0 0 0 2.273.2Zm15.125-10.103a1.957 1.957 0 0 1 1.118-1.013 1.807 1.807 0 0 1 1.472.012 1.254 1.254 0 0 1 .707.76 1.357 1.357 0 0 1-.077 1.025 1.893 1.893 0 0 1-1.126.996 1.866 1.866 0 0 1-1.479-.028 1.244 1.244 0 0 1-.689-.737 1.311 1.311 0 0 1 .074-1.015Zm-3.496 5.652a3.318 3.318 0 0 0 .595-.784q.274-.589-.244-.83a1.331 1.331 0 0 0-1.23.114 8.446 8.446 0 0 0-1.752 1.42l-.737.719-.447-.209 1.415-1.436a4.051 4.051 0 0 1 2.14-1.298 3.188 3.188 0 0 1 1.915.231q1.555.725.863 2.21a5.985 5.985 0 0 1-1.223 1.637l-5.855 5.973a3.318 3.318 0 0 0-.595.784q-.274.59.291.853a1.307 1.307 0 0 0 1.173-.115 8.247 8.247 0 0 0 1.786-1.432l.736-.718.448.21-1.415 1.435a4.292 4.292 0 0 1-2.105 1.283 3.023 3.023 0 0 1-1.93-.211q-1.649-.77-.978-2.207a6.516 6.516 0 0 1 1.292-1.663Zm13.01 3.227a2.374 2.374 0 0 1 1.413 1.677 4.43 4.43 0 0 1-.51 2.788 12.882 12.882 0 0 1-2.779 3.743 11.4 11.4 0 0 1-4.185 2.639 5.565 5.565 0 0 1-4.344-.15 2.16 2.16 0 0 1-1.044-.99 2.392 2.392 0 0 1-.199-1.512l-2.766.694-.277-.33a6.694 6.694 0 0 0 1.085-1.158l10.915-12.64a2.374 2.374 0 0 0 .386-.592.843.843 0 0 0-.03-.86 2.681 2.681 0 0 0-1.12-.795l.348-.44a11.652 11.652 0 0 0 2.36.785 9.343 9.343 0 0 0 2.238.183l-8.22 9.703a14.618 14.618 0 0 1 3.894-2.674 3.463 3.463 0 0 1 2.834-.067Zm-10.18 10.146a3.4 3.4 0 0 0 3.11-.457 14.44 14.44 0 0 0 3.601-2.955 15.229 15.229 0 0 0 2.585-3.73 3.5 3.5 0 0 0 .42-1.668 1 1 0 0 0-.574-.899q-.943-.44-3.241 1.013a26.819 26.819 0 0 0-4.776 3.998l-2.196 2.618a2.42 2.42 0 0 0 .228 1.325 1.807 1.807 0 0 0 .842.755Zm22.831-4.242a1.511 1.511 0 0 1 .838.849 1.443 1.443 0 0 1-.074 1.142 1.805 1.805 0 0 1-1.055.971 1.746 1.746 0 0 1-1.385-.044 1.113 1.113 0 0 1-.58-.542.862.862 0 0 1 .033-.745 1.642 1.642 0 0 1 .71-.788 2.056 2.056 0 0 1 1.053-.226.386.386 0 0 0-.217-.212q-1.269-.591-4.049 1.455a41.33 41.33 0 0 0-6.194 5.932l-1.336 1.64-2.05-.957 7.541-8.79a3.4 3.4 0 0 0 .594-.842q.253-.544-.241-.775a1.352 1.352 0 0 0-1.213.11 7.337 7.337 0 0 0-1.746 1.437l-.713.729-.448-.209 1.392-1.447q1.98-2.032 3.983-1.098a1.322 1.322 0 0 1 .706 1.993 9.308 9.308 0 0 1-1.23 1.779l-2.14 2.617a21.089 21.089 0 0 1 4.65-3.727 3.516 3.516 0 0 1 3.173-.252Zm9.335 6.246a4.481 4.481 0 0 1-3.701 2.348 21.682 21.682 0 0 1-5.99.047 11.726 11.726 0 0 0-1.324 2.165q-1.057 2.266.57 3.024 2.026.945 4.723-.666l.29.364a7.97 7.97 0 0 1-3.072 1.275 5 5 0 0 1-3.132-.328 3.354 3.354 0 0 1-1.89-1.914 3.763 3.763 0 0 1 .329-2.859 10.739 10.739 0 0 1 2.933-3.552 12.72 12.72 0 0 1 4.625-2.505 6.366 6.366 0 0 1 4.624.234 2.12 2.12 0 0 1 1.062.983 1.544 1.544 0 0 1-.043 1.386Zm-1.75-2.164a2.888 2.888 0 0 0-2.096.098 10.74 10.74 0 0 0-2.837 1.531 14.4 14.4 0 0 0-2.68 2.537 13.558 13.558 0 0 0 3.906-.01 5.268 5.268 0 0 0 2.13-1.03 5.182 5.182 0 0 0 1.466-1.883 2.716 2.716 0 0 0 .305-.89.335.335 0 0 0-.186-.35Z">
      </path>
      <path fill="currentColor"
        d="m205.633 46.786-.006-.002a1.25 1.25 0 0 1-.604-1.662 1.25 1.25 0 0 1 1.66-.604l.006.002a1.25 1.25 0 0 1 .605 1.661 1.25 1.25 0 0 1-1.661.605Zm-5.897-2.75-.004-.002a1.25 1.25 0 0 1-.605-1.66 1.25 1.25 0 0 1 1.661-.605l.005.002a1.25 1.25 0 0 1 .604 1.66 1.25 1.25 0 0 1-1.66.606Zm-5.895-2.749-.005-.002a1.25 1.25 0 0 1-.605-1.661 1.25 1.25 0 0 1 1.66-.605l.005.002a1.25 1.25 0 0 1 .606 1.662 1.25 1.25 0 0 1-1.661.604Zm-5.896-2.749-.005-.002a1.25 1.25 0 0 1-.605-1.661 1.25 1.25 0 0 1 1.661-.605l.006.002a1.25 1.25 0 0 1 .603 1.661 1.25 1.25 0 0 1-1.66.605Zm-5.896-2.75-.005-.001a1.25 1.25 0 0 1-.605-1.662 1.25 1.25 0 0 1 1.66-.605l.005.003a1.25 1.25 0 0 1 .606 1.661 1.25 1.25 0 0 1-1.661.605Zm-5.896-2.748-.005-.003a1.25 1.25 0 0 1-.605-1.661 1.25 1.25 0 0 1 1.661-.605l.006.003a1.25 1.25 0 0 1 .603 1.66 1.25 1.25 0 0 1-1.66.605Zm-5.896-2.75-.005-.002a1.25 1.25 0 0 1-.609-1.663 1.25 1.25 0 0 1 1.661-.605l.005.002a1.25 1.25 0 0 1 .609 1.663 1.25 1.25 0 0 1-1.661.605Zm-5.896-2.75-.005-.002a1.25 1.25 0 0 1-.604-1.66 1.25 1.25 0 0 1 1.661-.605l.006.003a1.25 1.25 0 0 1 .599 1.658 1.25 1.25 0 0 1-1.658.606Zm-5.896-2.749-.005-.002a1.25 1.25 0 0 1-.605-1.661 1.25 1.25 0 0 1 1.66-.605l.005.002a1.25 1.25 0 0 1 .607 1.662 1.25 1.25 0 0 1-1.662.604Zm-5.896-2.749-.005-.002a1.25 1.25 0 0 1-.605-1.661 1.25 1.25 0 0 1 1.661-.605l.006.002a1.25 1.25 0 0 1 .604 1.661 1.25 1.25 0 0 1-1.662.605Zm-5.896-2.75-.005-.001a1.25 1.25 0 0 1-.605-1.662 1.25 1.25 0 0 1 1.66-.605l.005.002a1.25 1.25 0 0 1 .606 1.662 1.25 1.25 0 0 1-1.661.605Zm-5.896-2.748-.005-.003a1.25 1.25 0 0 1-.605-1.661 1.25 1.25 0 0 1 1.661-.605l.006.003a1.25 1.25 0 0 1 .604 1.66 1.25 1.25 0 0 1-1.662.605Zm-5.896-2.75-.005-.002a1.25 1.25 0 0 1-.605-1.662 1.25 1.25 0 0 1 1.66-.604l.005.002a1.25 1.25 0 0 1 .606 1.661 1.25 1.25 0 0 1-1.661.605Zm-5.896-2.75-.004-.001a1.25 1.25 0 0 1-.606-1.662 1.25 1.25 0 0 1 1.661-.604l.005.002a1.25 1.25 0 0 1 .605 1.66 1.25 1.25 0 0 1-1.662.605Zm-5.895-2.748-.006-.003a1.25 1.25 0 0 1-.605-1.661 1.25 1.25 0 0 1 1.661-.605l.005.003a1.25 1.25 0 0 1 .605 1.66 1.25 1.25 0 0 1-1.661.605Zm-5.897-2.75-.01-.004a1.25 1.25 0 0 1-.6-1.66 1.25 1.25 0 0 1 1.661-.604l.006.002a1.25 1.25 0 0 1 .604 1.661 1.25 1.25 0 0 1-1.662.605Zm-5.896-2.75-.005-.002a1.25 1.25 0 0 1-.605-1.661 1.25 1.25 0 0 1 1.661-.605l.005.002a1.25 1.25 0 0 1 .605 1.662 1.25 1.25 0 0 1-1.666.602Z">
      </path>
      <path fill="currentColor"
        d="M209.311 104.689a1.245 1.245 0 0 1-.538-.122 1.25 1.25 0 1 1 1.078-2.256 1.25 1.25 0 0 1-.54 2.378Zm-5.87-2.8a1.245 1.245 0 0 1-.538-.122 1.25 1.25 0 1 1 1.078-2.256 1.25 1.25 0 0 1-.54 2.378Zm-5.87-2.8a1.245 1.245 0 0 1-.538-.122 1.25 1.25 0 0 1 1.078-2.256 1.25 1.25 0 0 1-.54 2.378Zm-5.871-2.814a1.245 1.245 0 0 1-.538-.122 1.25 1.25 0 1 1 1.078-2.256 1.25 1.25 0 0 1-.54 2.378Zm-5.87-2.8a1.245 1.245 0 0 1-.538-.122 1.25 1.25 0 1 1 1.078-2.256 1.25 1.25 0 0 1-.54 2.378Zm-5.87-2.8a1.245 1.245 0 0 1-.538-.122 1.254 1.254 0 0 1 1.078-2.265 1.25 1.25 0 0 1-.54 2.378Zm-5.87-2.8a1.245 1.245 0 0 1-.538-.122 1.25 1.25 0 1 1 1.078-2.256 1.25 1.25 0 0 1-.54 2.378Zm-5.87-2.8a1.245 1.245 0 0 1-.538-.122 1.25 1.25 0 1 1 1.078-2.256 1.25 1.25 0 0 1-.54 2.378Zm-5.87-2.8a1.245 1.245 0 0 1-.538-.122 1.25 1.25 0 0 1 1.078-2.256 1.25 1.25 0 0 1-.54 2.378Zm-5.87-2.8a1.245 1.245 0 0 1-.538-.122 1.25 1.25 0 0 1 1.078-2.256 1.25 1.25 0 0 1-.54 2.378Zm-5.87-2.8a1.245 1.245 0 0 1-.538-.122 1.25 1.25 0 1 1 1.078-2.256 1.25 1.25 0 0 1-.54 2.378Zm-5.87-2.8a1.245 1.245 0 0 1-.538-.122 1.25 1.25 0 1 1 1.078-2.256 1.25 1.25 0 0 1-.54 2.378Zm-5.87-2.8a1.245 1.245 0 0 1-.538-.122 1.25 1.25 0 0 1 1.078-2.256 1.25 1.25 0 0 1-.54 2.378Zm-5.87-2.8a1.245 1.245 0 0 1-.538-.122 1.25 1.25 0 1 1 1.078-2.256 1.25 1.25 0 0 1-.54 2.378Zm-5.87-2.8a1.245 1.245 0 0 1-.538-.122 1.25 1.25 0 1 1 1.078-2.256 1.25 1.25 0 0 1-.54 2.378Zm-5.87-2.8a1.245 1.245 0 0 1-.538-.122 1.25 1.25 0 0 1 1.078-2.256 1.25 1.25 0 0 1-.54 2.378Zm-5.87-2.8a1.245 1.245 0 0 1-.538-.122 1.25 1.25 0 1 1 1.078-2.256 1.25 1.25 0 0 1-.54 2.378Zm-5.87-2.8a1.245 1.245 0 0 1-.538-.122 1.25 1.25 0 1 1 1.078-2.256 1.25 1.25 0 0 1-.54 2.378Zm-5.87-2.8a1.245 1.245 0 0 1-.538-.122 1.25 1.25 0 0 1 1.078-2.256 1.25 1.25 0 0 1-.54 2.378Zm-5.87-2.8a1.245 1.245 0 0 1-.538-.122 1.25 1.25 0 0 1 1.078-2.256 1.25 1.25 0 0 1-.54 2.378Zm-5.87-2.8a1.245 1.245 0 0 1-.538-.122 1.25 1.25 0 1 1 1.078-2.256 1.25 1.25 0 0 1-.54 2.378Zm-5.87-2.8a1.245 1.245 0 0 1-.538-.122 1.25 1.25 0 1 1 1.078-2.256 1.25 1.25 0 0 1-.54 2.378Zm-5.87-2.8a1.245 1.245 0 0 1-.538-.122 1.25 1.25 0 0 1 1.078-2.256 1.25 1.25 0 0 1-.54 2.378Zm-5.87-2.8a1.245 1.245 0 0 1-.538-.122 1.25 1.25 0 1 1 1.078-2.256 1.25 1.25 0 0 1-.54 2.378Zm-5.87-2.8a1.245 1.245 0 0 1-.538-.122 1.25 1.25 0 1 1 1.078-2.256 1.25 1.25 0 0 1-.54 2.378Zm-5.87-2.8a1.245 1.245 0 0 1-.538-.122 1.25 1.25 0 0 1 1.078-2.256 1.25 1.25 0 0 1-.54 2.378Zm-5.87-2.8a1.245 1.245 0 0 1-.538-.122 1.25 1.25 0 1 1 1.078-2.256 1.25 1.25 0 0 1-.54 2.378Zm-5.87-2.8a1.245 1.245 0 0 1-.538-.122 1.25 1.25 0 1 1 1.078-2.256 1.25 1.25 0 0 1-.54 2.378Zm-5.87-2.8a1.245 1.245 0 0 1-.538-.122 1.25 1.25 0 0 1 1.078-2.256 1.25 1.25 0 0 1-.54 2.378Zm-5.87-2.8a1.245 1.245 0 0 1-.538-.122 1.25 1.25 0 0 1 1.078-2.256 1.25 1.25 0 0 1-.54 2.378Zm-5.87-2.8a1.245 1.245 0 0 1-.538-.122 1.25 1.25 0 1 1 1.078-2.256 1.25 1.25 0 0 1-.54 2.378Zm-5.87-2.8a1.245 1.245 0 0 1-.538-.122 1.25 1.25 0 1 1 1.078-2.256 1.25 1.25 0 0 1-.54 2.378Zm-5.87-2.8a1.245 1.245 0 0 1-.538-.122A1.303 1.303 0 0 1 22 12.575a1.25 1.25 0 0 1-.54 2.378Zm-5.87-2.8a1.245 1.245 0 0 1-.538-.122 1.303 1.303 0 1 1 1.068-2.378 1.25 1.25 0 0 1-.54 2.378Zm-5.87-2.8a1.245 1.245 0 0 1-.538-.122 1.303 1.303 0 1 1 1.068-2.378 1.25 1.25 0 0 1-.54 2.378Zm-5.87-2.8a1.245 1.245 0 0 1-.538-.122c-.633-.428 1-.005.533-.005Z">
      </path>
      <path fill="none" d="M0 3.775h213v101H0z"></path>
    </symbol>
    <symbol xmlns="http://www.w3.org/2000/svg" preserveAspectRatio="xMaxYMid meet" viewBox="0 0 255.292 122.302"
      id="resident-de">
      <path fill="currentColor"
        d="M190.823 20.131a1.646 1.646 0 0 1 .934.837 1.3 1.3 0 0 1-.077 1.026 2.172 2.172 0 0 1-.92.99 1.3 1.3 0 0 1-1.261.058.9.9 0 0 1-.557-.59 1.125 1.125 0 0 1 .09-.747 1.83 1.83 0 0 1 .575-.679 2.923 2.923 0 0 1 .873-.453l-.07-.033a2.576 2.576 0 0 0-2.493.3 23.673 23.673 0 0 0-4.727 4.463q-2.96 3.396-7.562 9.512l-.519-.241 1.704-17.68q-3.913 5.375-6.834 8.976t-4.455 4.406a5.425 5.425 0 0 1-1.603.576 2.693 2.693 0 0 1-1.613-.264q-1.414-.66-.842-1.884a2.115 2.115 0 0 1 .916-.981 1.313 1.313 0 0 1 1.255-.046.9.9 0 0 1 .557.59 1.125 1.125 0 0 1-.09.747 1.83 1.83 0 0 1-.575.678 2.923 2.923 0 0 1-.873.454l.07.033a2.542 2.542 0 0 0 2.53-.315 21.794 21.794 0 0 0 4.132-4.126q2.612-3.143 6.357-8.282a6.206 6.206 0 0 0 .636-.994.81.81 0 0 0-.031-.918 4.788 4.788 0 0 0-1.333-.894l.337-.417q.722.423 2.065 1.05 1.087.506 1.941.818l-1.62 15.109q3.122-4.052 5.632-6.912a19.156 19.156 0 0 1 4.205-3.849 3.341 3.341 0 0 1 3.246-.318ZM195.09 39.1l.447.209-1.392 1.447q-1.979 2.03-3.982 1.096a1.72 1.72 0 0 1-.63-.495 1.221 1.221 0 0 1-.275-.702 2.026 2.026 0 0 1 .2-.796 9.931 9.931 0 0 1 1.23-1.778l2.104-2.605a18.71 18.71 0 0 1-4.902 3.561 4.173 4.173 0 0 1-3.5.123q-1.98-.923-1.134-2.736a6.2 6.2 0 0 1 1.143-1.59l5.494-5.814a3.318 3.318 0 0 0 .595-.784q.275-.59-.29-.853a1.332 1.332 0 0 0-1.154.107 7.22 7.22 0 0 0-1.78 1.451l-.713.73-.448-.21 1.392-1.447q1.98-2.031 3.983-1.098 1.65.77.969 2.23a6.759 6.759 0 0 1-1.235 1.663l-5.38 5.695a4.277 4.277 0 0 0-.786 1.069q-.373.8.38 1.152.92.429 2.66-.41a18.913 18.913 0 0 0 3.941-2.737 38.782 38.782 0 0 0 4.413-4.54l.82-1.023a8.171 8.171 0 0 0 2.299.67l-7.79 9.076a4.32 4.32 0 0 0-.593.837q-.254.544.241.775a1.352 1.352 0 0 0 1.213-.106 7.337 7.337 0 0 0 1.746-1.438Zm14.931-3.537a1.511 1.511 0 0 1 .838.85 1.443 1.443 0 0 1-.074 1.142 1.805 1.805 0 0 1-1.055.97 1.746 1.746 0 0 1-1.385-.043 1.113 1.113 0 0 1-.58-.542.862.862 0 0 1 .033-.746 1.642 1.642 0 0 1 .711-.787 2.056 2.056 0 0 1 1.052-.226.386.386 0 0 0-.217-.212q-1.268-.591-4.048 1.454a41.33 41.33 0 0 0-6.195 5.933l-1.338 1.638-2.05-.956 7.542-8.79a3.4 3.4 0 0 0 .593-.842q.254-.544-.241-.775a1.352 1.352 0 0 0-1.213.11 7.337 7.337 0 0 0-1.746 1.437l-.713.729-.447-.209 1.392-1.447q1.98-2.032 3.983-1.098a1.322 1.322 0 0 1 .704 1.997 9.308 9.308 0 0 1-1.231 1.778l-2.139 2.618a21.089 21.089 0 0 1 4.65-3.727 3.516 3.516 0 0 1 3.174-.256Zm18.672 1.425a2.854 2.854 0 0 1 1.418 1.235 1.614 1.614 0 0 1 .04 1.482 1.8 1.8 0 0 1-.981.905 1.605 1.605 0 0 1-1.356-.016 1.2 1.2 0 0 1-.608-.541.73.73 0 0 1 .04-.7 1.574 1.574 0 0 1 .818-.808 2.31 2.31 0 0 1 1.258-.145q.099-.212-.137-.537a1.715 1.715 0 0 0-.683-.534 2.21 2.21 0 0 0-1.653-.025 3.675 3.675 0 0 0-1.49 1.041q-.785.824-2.17 2.502l-.732.893-.01.023 2.779 1.296-.361.406-2.777-1.295-11.556 13.77a8.5 8.5 0 0 0-2.275-.659l11.783-14.07-2.121-.99.36-.405 2.122.989.01-.024a22.773 22.773 0 0 1 2.54-2.646 7.071 7.071 0 0 1 2.249-1.346 4.342 4.342 0 0 1 1.732-.24 4.725 4.725 0 0 1 1.763.435Zm3.32 19.334.447.209-1.392 1.447q-1.977 2.026-3.98 1.092a1.72 1.72 0 0 1-.63-.494 1.221 1.221 0 0 1-.275-.702 2.025 2.025 0 0 1 .2-.797 9.931 9.931 0 0 1 1.23-1.778l2.104-2.605a18.71 18.71 0 0 1-4.903 3.562 4.173 4.173 0 0 1-3.5.122q-1.979-.923-1.133-2.735a6.2 6.2 0 0 1 1.143-1.59l5.494-5.815a3.318 3.318 0 0 0 .595-.784q.275-.59-.29-.853a1.332 1.332 0 0 0-1.154.108 7.22 7.22 0 0 0-1.78 1.45l-.713.73-.448-.21 1.392-1.447q1.98-2.031 3.983-1.097 1.65.769.968 2.23a6.759 6.759 0 0 1-1.234 1.662l-5.38 5.696a4.277 4.277 0 0 0-.786 1.068q-.374.801.38 1.153.92.428 2.659-.41a18.913 18.913 0 0 0 3.942-2.738 38.782 38.782 0 0 0 4.412-4.54l.822-1.023a8.171 8.171 0 0 0 2.298.67l-7.79 9.076a4.32 4.32 0 0 0-.592.839q-.253.543.242.774a1.352 1.352 0 0 0 1.212-.109 7.337 7.337 0 0 0 1.746-1.437Zm-1.517-15.51a1.615 1.615 0 0 1 .972-.824 1.667 1.667 0 0 1 1.32.028 1.255 1.255 0 0 1 .678.732 1.255 1.255 0 0 1-.049.996 1.659 1.659 0 0 1-.97.852 1.653 1.653 0 0 1-1.334-.033 1.244 1.244 0 0 1-.689-.737 1.311 1.311 0 0 1 .073-1.018Zm4.995 2.33a1.615 1.615 0 0 1 .972-.824 1.667 1.667 0 0 1 1.321.028 1.255 1.255 0 0 1 .677.732 1.255 1.255 0 0 1-.048.995 1.659 1.659 0 0 1-.971.853 1.653 1.653 0 0 1-1.333-.034 1.244 1.244 0 0 1-.689-.737 1.311 1.311 0 0 1 .073-1.017Zm11.454 9.643a1.511 1.511 0 0 1 .837.85 1.443 1.443 0 0 1-.074 1.142 1.805 1.805 0 0 1-1.053.967 1.746 1.746 0 0 1-1.385-.044 1.113 1.113 0 0 1-.58-.542.862.862 0 0 1 .033-.745 1.642 1.642 0 0 1 .71-.788 2.056 2.056 0 0 1 1.053-.226.386.386 0 0 0-.217-.211q-1.269-.592-4.049 1.454a41.329 41.329 0 0 0-6.193 5.929l-1.339 1.642-2.05-.956 7.541-8.79a3.4 3.4 0 0 0 .594-.843q.254-.544-.241-.774a1.352 1.352 0 0 0-1.213.108 7.337 7.337 0 0 0-1.746 1.438l-.713.73-.451-.211 1.392-1.448q1.98-2.031 3.983-1.097a1.322 1.322 0 0 1 .708 1.998 9.308 9.308 0 0 1-1.231 1.779l-2.139 2.617a21.089 21.089 0 0 1 4.65-3.727 3.516 3.516 0 0 1 3.174-.255Z">
      </path>
      <path fill="currentColor"
        d="M96.021 19.1a5.4 5.4 0 0 1 2.331 2.721 3.981 3.981 0 0 1-.258 2.92 4.315 4.315 0 0 1-2.281 2.247 6.9 6.9 0 0 1-3.414.46 11.2 11.2 0 0 1-3.645-1.008l-1.71-.827q-1.393-.706-2.312-1.135-1.885-.879-2.907-1.27l.31-.429a5.751 5.751 0 0 0 1.357.404 1.357 1.357 0 0 0 .925-.231 5.608 5.608 0 0 0 1.087-1.07l8.562-10.242a5.127 5.127 0 0 0 .716-1.043.8.8 0 0 0-.034-.819 2.949 2.949 0 0 0-1.127-.813l.338-.416q.91.51 2.77 1.378 1.061.495 1.614.724l1.733.78a6.259 6.259 0 0 1 2.937 2.344 2.84 2.84 0 0 1 .087 2.737 4.223 4.223 0 0 1-2.776 2.292 10.187 10.187 0 0 1-4.303.295Zm-3.677-1.773 1.555.725a5.085 5.085 0 0 0 2.735.503 4.895 4.895 0 0 0 2.417-.938 5.192 5.192 0 0 0 1.643-2.017 3.289 3.289 0 0 0 .349-2.347 2.755 2.755 0 0 0-1.62-1.573 2.693 2.693 0 0 0-1.614-.351 2.723 2.723 0 0 0-1.31 1.024Zm-4.35 8.098q2.99 1.395 4.901.809a5.038 5.038 0 0 0 3.008-2.944q1.462-3.134-1.908-4.705l-1.932-.901-4.36 5.225a6.481 6.481 0 0 0-.75 1.056.725.725 0 0 0 .033.76 2.533 2.533 0 0 0 1.008.699Zm24.381-1.224a4.481 4.481 0 0 1-3.704 2.346 21.682 21.682 0 0 1-5.99.047 11.725 11.725 0 0 0-1.324 2.165q-1.057 2.266.57 3.024 2.026.945 4.723-.666l.29.365a7.97 7.97 0 0 1-3.077 1.276 5 5 0 0 1-3.127-.33 3.354 3.354 0 0 1-1.89-1.914 3.763 3.763 0 0 1 .329-2.858 10.739 10.739 0 0 1 2.935-3.551 12.721 12.721 0 0 1 4.625-2.505 6.366 6.366 0 0 1 4.625.234 2.119 2.119 0 0 1 1.062.983 1.544 1.544 0 0 1-.047 1.384Zm-1.749-2.164a2.888 2.888 0 0 0-2.097.098 10.741 10.741 0 0 0-2.837 1.531 14.4 14.4 0 0 0-2.684 2.536 13.558 13.558 0 0 0 3.907-.01 5.268 5.268 0 0 0 2.134-1.028 5.182 5.182 0 0 0 1.466-1.884 2.716 2.716 0 0 0 .305-.89.335.335 0 0 0-.19-.352Zm16.067 10.332a9.5 9.5 0 0 1-.735 2.067 12.769 12.769 0 0 1-2.371 3.456 8.019 8.019 0 0 1-3.355 2.15 5.057 5.057 0 0 1-3.803-.295 2.716 2.716 0 0 1-1.827-2.603 5.385 5.385 0 0 1-3.922-.078 3.178 3.178 0 0 1-1.858-1.8 3 3 0 0 1 .188-2.25 7.713 7.713 0 0 1 4.005-3.428 31.728 31.728 0 0 1 6.854-2.21 5.691 5.691 0 0 0-.698.076q-.846.093-1.306.094a1.846 1.846 0 0 1-.791-.149 1.025 1.025 0 0 1-.44-.377q-.159-.246-.196-.292a1.516 1.516 0 0 0-.575-.613.874.874 0 0 0-.782.023 4.042 4.042 0 0 0-1.052.9l-.69.74-.447-.208 1.347-1.468a5.075 5.075 0 0 1 1.846-1.406 1.882 1.882 0 0 1 1.467.022 1.27 1.27 0 0 1 .469.348 4.761 4.761 0 0 1 .384.595q.244.4.413.623a1.24 1.24 0 0 0 .475.365 3.025 3.025 0 0 0 1.096.296 3.258 3.258 0 0 0 1.13-.147l.539-.294.385.466a30.084 30.084 0 0 0-6.928 2.737 9.521 9.521 0 0 0-4.13 4.242 3.346 3.346 0 0 0-.428 1.78 1.2 1.2 0 0 0 .735.945 3.236 3.236 0 0 0 1.346.283 4.825 4.825 0 0 0 1.609-.282 6.3 6.3 0 0 1 .483-1.468 7.035 7.035 0 0 1 1.797-2.346 7.831 7.831 0 0 1 2.38-1.472 2.47 2.47 0 0 1 1.857-.138.719.719 0 0 1 .417.797 3.785 3.785 0 0 1-.357 1.239 6.038 6.038 0 0 1-1.881 2.25 7.966 7.966 0 0 1-3.115 1.387 2.154 2.154 0 0 0 1.156 2.434 3.668 3.668 0 0 0 3.095.038 8.138 8.138 0 0 0 2.897-2.121 12.427 12.427 0 0 0 2.057-3.057 6.564 6.564 0 0 0 .56-1.632 4.047 4.047 0 0 1-1.217-1.414 1.851 1.851 0 0 1-.041-1.726 1.24 1.24 0 0 1 .69-.711 1.071 1.071 0 0 1 .827.041 1.372 1.372 0 0 1 .736 1.261 7.347 7.347 0 0 1-.291 2.332Zm-5.94-.673q-.4-.187-1.158.206a6.083 6.083 0 0 0-1.531 1.193 6.448 6.448 0 0 0-1.22 1.767 6.888 6.888 0 0 0-.538 1.585 7.082 7.082 0 0 0 2.645-1.304 5.872 5.872 0 0 0 1.736-2.132q.516-1.108.07-1.316Zm5.055 7.922a12.258 12.258 0 0 1 2.688-3.61 10.711 10.711 0 0 1 4.06-2.495 5.61 5.61 0 0 1 4.293.209 3.382 3.382 0 0 1 1.934 2.035 4.359 4.359 0 0 1-.431 3.17 12.258 12.258 0 0 1-2.687 3.61 10.711 10.711 0 0 1-4.061 2.495 5.61 5.61 0 0 1-4.288-.209 3.382 3.382 0 0 1-1.934-2.035 4.359 4.359 0 0 1 .43-3.17Zm10.68-5.49a3.223 3.223 0 0 0-2.989.47 13.917 13.917 0 0 0-3.507 3.027 17.942 17.942 0 0 0-2.708 4.116 3.159 3.159 0 0 0-.39 1.711 1.25 1.25 0 0 0 .782.968 3.223 3.223 0 0 0 2.988-.472 13.916 13.916 0 0 0 3.508-3.026 17.942 17.942 0 0 0 2.708-4.116 3.159 3.159 0 0 0 .396-1.709 1.25 1.25 0 0 0-.78-.968Zm11.984 15.518-1.392 1.447q-1.973 2.026-3.976 1.092-1.65-.769-.968-2.23a6.76 6.76 0 0 1 1.234-1.662l5.38-5.696a3.922 3.922 0 0 0 .786-1.068q.374-.801-.38-1.153a3.009 3.009 0 0 0-2.385.222 15.622 15.622 0 0 0-3.448 2.136 36.5 36.5 0 0 0-4.028 3.716l-2.211 2.526-2.05-.956 11.995-13.541a2.65 2.65 0 0 0 .413-.58.829.829 0 0 0-.053-.87 2.842 2.842 0 0 0-1.144-.807l.372-.429a10.133 10.133 0 0 0 4.692 1.012l-8.869 10.098a15.19 15.19 0 0 1 4.474-2.949 4.291 4.291 0 0 1 3.368.036q1.909.89 1.074 2.681a6.052 6.052 0 0 1-1.178 1.603l-5.494 5.814a3.345 3.345 0 0 0-.606.808.552.552 0 0 0 .302.83 1.332 1.332 0 0 0 1.153-.108 7.22 7.22 0 0 0 1.78-1.451l.713-.73Zm13.667 6.373-1.392 1.447q-1.973 2.026-3.976 1.092a1.772 1.772 0 0 1-1.166-1.375 1.532 1.532 0 0 1 .174-.866 7.037 7.037 0 0 1 1.258-1.651l5.381-5.696a4.927 4.927 0 0 0 .774-1.044q.385-.825-.37-1.177a3.369 3.369 0 0 0-2.648.358 17.979 17.979 0 0 0-3.926 2.544 35.093 35.093 0 0 0-4.27 4.176l-1.228 1.524-2.05-.956 7.542-8.79a4.318 4.318 0 0 0 .571-.795q.275-.59-.244-.83a1.27 1.27 0 0 0-1.16.089 8.337 8.337 0 0 0-1.775 1.468l-.713.729-.447-.21 1.392-1.446q1.98-2.032 3.936-1.12a1.5 1.5 0 0 1 .903.862 1.667 1.667 0 0 1-.16 1.174 9.286 9.286 0 0 1-1.22 1.755l-2.33 2.843a19.907 19.907 0 0 1 5.238-3.696 4.506 4.506 0 0 1 3.72-.073q1.909.89 1.085 2.658a6.105 6.105 0 0 1-1.189 1.626l-5.495 5.817a3.345 3.345 0 0 0-.606.808.552.552 0 0 0 .301.829 1.332 1.332 0 0 0 1.154-.108 7.219 7.219 0 0 0 1.78-1.45l.713-.73Zm14.277-1.949a4.481 4.481 0 0 1-3.698 2.343 21.682 21.682 0 0 1-5.99.047 11.726 11.726 0 0 0-1.324 2.165q-1.057 2.266.569 3.024 2.027.945 4.724-.666l.29.364a7.97 7.97 0 0 1-3.072 1.275 5 5 0 0 1-3.132-.328 3.354 3.354 0 0 1-1.89-1.914 3.763 3.763 0 0 1 .329-2.859 10.739 10.739 0 0 1 2.933-3.552 12.721 12.721 0 0 1 4.626-2.504 6.366 6.366 0 0 1 4.625.234 2.119 2.119 0 0 1 1.062.983 1.544 1.544 0 0 1-.046 1.384Zm-1.749-2.164a2.888 2.888 0 0 0-2.097.098 10.74 10.74 0 0 0-2.837 1.532 14.4 14.4 0 0 0-2.678 2.531 13.558 13.558 0 0 0 3.903-.012 5.268 5.268 0 0 0 2.134-1.027 5.182 5.182 0 0 0 1.467-1.884 2.716 2.716 0 0 0 .304-.89.335.335 0 0 0-.186-.35Zm12.081 5.089a1.511 1.511 0 0 1 .838.85 1.443 1.443 0 0 1-.074 1.141 1.805 1.805 0 0 1-1.055.971 1.746 1.746 0 0 1-1.385-.043 1.113 1.113 0 0 1-.58-.543.862.862 0 0 1 .033-.745 1.642 1.642 0 0 1 .711-.787 2.056 2.056 0 0 1 1.052-.227.386.386 0 0 0-.217-.211q-1.268-.592-4.048 1.454a41.329 41.329 0 0 0-6.195 5.933l-1.32 1.64-2.05-.957 7.54-8.79a3.4 3.4 0 0 0 .594-.842q.254-.544-.241-.775a1.352 1.352 0 0 0-1.213.109 7.338 7.338 0 0 0-1.746 1.438l-.713.729-.448-.21 1.393-1.446q1.98-2.032 3.983-1.098a1.322 1.322 0 0 1 .705 1.993 9.307 9.307 0 0 1-1.23 1.778l-2.139 2.618a21.089 21.089 0 0 1 4.65-3.727 3.516 3.516 0 0 1 3.169-.254Zm2.619 3.428a1.957 1.957 0 0 1 1.118-1.014 1.807 1.807 0 0 1 1.472.012 1.254 1.254 0 0 1 .707.76 1.357 1.357 0 0 1-.077 1.026 1.893 1.893 0 0 1-1.126.995 1.866 1.866 0 0 1-1.479-.027 1.244 1.244 0 0 1-.689-.738 1.311 1.311 0 0 1 .087-1.013Zm-6.905 8.656a1.957 1.957 0 0 1 1.118-1.013 1.807 1.807 0 0 1 1.471.012 1.254 1.254 0 0 1 .707.76 1.357 1.357 0 0 1-.076 1.026 1.893 1.893 0 0 1-1.126.995 1.866 1.866 0 0 1-1.48-.028 1.244 1.244 0 0 1-.688-.737 1.311 1.311 0 0 1 .086-1.013Zm17.703-10.281a1.957 1.957 0 0 1 1.118-1.014 1.807 1.807 0 0 1 1.472.013 1.254 1.254 0 0 1 .707.76 1.357 1.357 0 0 1-.076 1.025 1.893 1.893 0 0 1-1.127.996 1.866 1.866 0 0 1-1.478-.028 1.244 1.244 0 0 1-.69-.737 1.311 1.311 0 0 1 .085-1.01Zm-3.496 5.652a3.318 3.318 0 0 0 .595-.784q.275-.59-.243-.83a1.331 1.331 0 0 0-1.23.114 8.446 8.446 0 0 0-1.753 1.42l-.736.719-.448-.21 1.416-1.435a4.051 4.051 0 0 1 2.14-1.298 3.187 3.187 0 0 1 1.914.231q1.555.725.863 2.21a5.985 5.985 0 0 1-1.222 1.637l-5.848 5.976a3.318 3.318 0 0 0-.595.784q-.275.59.291.853a1.307 1.307 0 0 0 1.173-.115 8.247 8.247 0 0 0 1.79-1.43l.736-.718.448.21-1.416 1.435a4.292 4.292 0 0 1-2.104 1.283 3.023 3.023 0 0 1-1.925-.209q-1.65-.769-.98-2.206a6.516 6.516 0 0 1 1.293-1.664Zm12.948 13.697-1.392 1.448q-1.97 2.038-3.973 1.104a1.772 1.772 0 0 1-1.165-1.375 1.532 1.532 0 0 1 .174-.866 7.037 7.037 0 0 1 1.257-1.651l5.381-5.696a4.927 4.927 0 0 0 .775-1.044q.384-.825-.37-1.177a3.369 3.369 0 0 0-2.648.358 17.979 17.979 0 0 0-3.926 2.544 35.093 35.093 0 0 0-4.27 4.174l-1.228 1.524-2.05-.956 7.542-8.79a4.318 4.318 0 0 0 .571-.795q.275-.589-.243-.83a1.27 1.27 0 0 0-1.161.09 8.337 8.337 0 0 0-1.774 1.467l-.713.729-.448-.209 1.392-1.447q1.98-2.032 3.936-1.12a1.5 1.5 0 0 1 .903.863 1.667 1.667 0 0 1-.16 1.173 9.286 9.286 0 0 1-1.22 1.755l-2.33 2.844a19.907 19.907 0 0 1 5.235-3.693 4.506 4.506 0 0 1 3.72-.073q1.91.89 1.085 2.658a6.105 6.105 0 0 1-1.189 1.626l-5.493 5.815a3.344 3.344 0 0 0-.606.808.552.552 0 0 0 .302.829 1.332 1.332 0 0 0 1.153-.108 7.22 7.22 0 0 0 1.78-1.45l.713-.73Zm13.668 6.374-1.392 1.447q-1.97 2.038-3.973 1.104a1.772 1.772 0 0 1-1.166-1.375 1.532 1.532 0 0 1 .174-.866 7.037 7.037 0 0 1 1.257-1.651l5.382-5.695a4.927 4.927 0 0 0 .777-1.044q.385-.824-.37-1.176a3.369 3.369 0 0 0-2.647.357 17.979 17.979 0 0 0-3.926 2.545 35.093 35.093 0 0 0-4.274 4.172l-1.227 1.524-2.047-.954 7.542-8.79a4.318 4.318 0 0 0 .571-.795q.275-.59-.243-.831a1.27 1.27 0 0 0-1.161.09 8.337 8.337 0 0 0-1.775 1.467l-.713.73-.447-.21 1.392-1.447q1.98-2.031 3.936-1.12a1.5 1.5 0 0 1 .903.863 1.667 1.667 0 0 1-.16 1.174 9.286 9.286 0 0 1-1.22 1.755l-2.33 2.843a19.907 19.907 0 0 1 5.238-3.696 4.506 4.506 0 0 1 3.72-.073q1.909.89 1.085 2.657a6.105 6.105 0 0 1-1.189 1.626l-5.5 5.818a3.345 3.345 0 0 0-.606.808.552.552 0 0 0 .302.829 1.332 1.332 0 0 0 1.154-.108 7.22 7.22 0 0 0 1.78-1.45l.712-.73Zm14.277-1.95a4.481 4.481 0 0 1-3.696 2.356 21.682 21.682 0 0 1-5.989.047 11.726 11.726 0 0 0-1.325 2.165q-1.056 2.266.57 3.024 2.026.945 4.724-.666l.289.364a7.97 7.97 0 0 1-3.072 1.275 5 5 0 0 1-3.132-.328 3.354 3.354 0 0 1-1.89-1.914 3.763 3.763 0 0 1 .33-2.859 10.739 10.739 0 0 1 2.932-3.552 12.72 12.72 0 0 1 4.625-2.505 6.366 6.366 0 0 1 4.625.234 2.119 2.119 0 0 1 1.062.983 1.544 1.544 0 0 1-.044 1.386Zm-1.75-2.163a2.888 2.888 0 0 0-2.096.098 10.74 10.74 0 0 0-2.827 1.54 14.4 14.4 0 0 0-2.685 2.535 13.558 13.558 0 0 0 3.906-.01 5.268 5.268 0 0 0 2.13-1.03 5.182 5.182 0 0 0 1.466-1.883 2.716 2.716 0 0 0 .305-.895.335.335 0 0 0-.186-.345Zm11.258 15.208-1.392 1.448q-1.98 2.03-3.986 1.094a1.772 1.772 0 0 1-1.162-1.374 1.532 1.532 0 0 1 .174-.866 7.037 7.037 0 0 1 1.257-1.651l5.382-5.696a4.927 4.927 0 0 0 .774-1.044q.384-.825-.37-1.177a3.369 3.369 0 0 0-2.648.358 17.978 17.978 0 0 0-3.926 2.544 35.093 35.093 0 0 0-4.27 4.174l-1.227 1.524-2.05-.956 7.541-8.79a4.318 4.318 0 0 0 .572-.795q.274-.589-.244-.83a1.27 1.27 0 0 0-1.16.09 8.337 8.337 0 0 0-1.775 1.467l-.713.729-.448-.209 1.392-1.447q1.98-2.032 3.936-1.12a1.5 1.5 0 0 1 .903.863 1.667 1.667 0 0 1-.165 1.176 9.286 9.286 0 0 1-1.22 1.755l-2.33 2.843a19.907 19.907 0 0 1 5.241-3.695 4.506 4.506 0 0 1 3.72-.072q1.91.89 1.085 2.657a6.105 6.105 0 0 1-1.19 1.628l-5.493 5.813a3.345 3.345 0 0 0-.606.808.552.552 0 0 0 .303.827 1.332 1.332 0 0 0 1.153-.107 7.22 7.22 0 0 0 1.78-1.451l.713-.73Z">
      </path>
      <path fill="currentColor"
        d="M253.812 35.853a1.245 1.245 0 0 1-.531-.119 1.25 1.25 0 0 1 1.064-2.262 1.25 1.25 0 0 1-.533 2.382Zm-5.89-2.765a1.245 1.245 0 0 1-.531-.119 1.25 1.25 0 1 1 1.064-2.262 1.25 1.25 0 0 1-.533 2.382Zm-5.887-2.768a1.245 1.245 0 0 1-.531-.119 1.25 1.25 0 0 1 1.064-2.262h.005a1.25 1.25 0 0 1-.533 2.382Zm-5.887-2.768a1.245 1.245 0 0 1-.531-.119 1.25 1.25 0 1 1 1.064-2.262 1.25 1.25 0 0 1-.533 2.382Zm-5.887-2.768a1.245 1.245 0 0 1-.531-.119 1.25 1.25 0 0 1 1.064-2.262 1.25 1.25 0 0 1-.533 2.382Zm-5.887-2.768a1.245 1.245 0 0 1-.531-.119 1.25 1.25 0 1 1 1.064-2.262h.005a1.25 1.25 0 0 1-.533 2.382Zm-5.887-2.768a1.245 1.245 0 0 1-.531-.119 1.25 1.25 0 1 1 1.064-2.262 1.25 1.25 0 0 1-.533 2.382ZM212.6 16.48a1.245 1.245 0 0 1-.531-.119h-.005a1.25 1.25 0 0 1 1.064-2.262 1.25 1.25 0 0 1-.533 2.382Zm-5.888-2.769a1.245 1.245 0 0 1-.531-.119 1.25 1.25 0 1 1 1.064-2.262 1.25 1.25 0 0 1-.533 2.382Zm-5.887-2.768a1.245 1.245 0 0 1-.531-.119 1.25 1.25 0 1 1 1.064-2.262 1.25 1.25 0 0 1-.533 2.382Zm-5.887-2.768a1.245 1.245 0 0 1-.531-.119h-.005a1.25 1.25 0 1 1 1.064-2.262 1.25 1.25 0 0 1-.533 2.382Zm-5.887-2.768a1.245 1.245 0 0 1-.531-.119 1.25 1.25 0 1 1 1.064-2.262 1.25 1.25 0 0 1-.533 2.382Zm-5.887-2.768a1.245 1.245 0 0 1-.531-.119c-.625-.294-.6-1.663-.6-1.663s1.038-.893 1.663-.6a1.25 1.25 0 0 1-.533 2.382Z">
      </path>
      <path fill="currentColor"
        d="M254.041 122.301a1.245 1.245 0 0 1-.534-.121 1.25 1.25 0 1 1 1.071-2.259 1.25 1.25 0 0 1-.536 2.38Zm-5.879-2.786a1.245 1.245 0 0 1-.534-.121h-.005a1.25 1.25 0 1 1 1.071-2.259 1.25 1.25 0 0 1-.536 2.38Zm-5.879-2.786a1.245 1.245 0 0 1-.534-.121 1.25 1.25 0 0 1 1.071-2.259 1.25 1.25 0 0 1-.536 2.38Zm-5.879-2.786a1.245 1.245 0 0 1-.534-.121h-.005a1.25 1.25 0 0 1 1.071-2.259h.005a1.25 1.25 0 0 1-.536 2.38Zm-5.879-2.786a1.245 1.245 0 0 1-.534-.121 1.25 1.25 0 1 1 1.071-2.259 1.25 1.25 0 0 1-.536 2.38Zm-5.879-2.786a1.245 1.245 0 0 1-.534-.121 1.25 1.25 0 1 1 1.071-2.259 1.25 1.25 0 0 1-.536 2.38Zm-5.879-2.786a1.245 1.245 0 0 1-.534-.121 1.25 1.25 0 1 1 1.071-2.259 1.25 1.25 0 0 1-.536 2.38Zm-5.879-2.786a1.245 1.245 0 0 1-.534-.121 1.25 1.25 0 1 1 1.071-2.259 1.25 1.25 0 0 1-.536 2.38Zm-5.879-2.786a1.245 1.245 0 0 1-.534-.121h-.005a1.25 1.25 0 0 1 1.071-2.259h.005a1.25 1.25 0 0 1-.536 2.38Zm-5.879-2.786a1.245 1.245 0 0 1-.534-.121 1.25 1.25 0 1 1 1.071-2.259 1.25 1.25 0 0 1-.536 2.38Zm-5.879-2.786a1.245 1.245 0 0 1-.534-.121h-.005a1.25 1.25 0 0 1 1.071-2.259h.005a1.25 1.25 0 0 1-.536 2.38Zm-5.879-2.786a1.245 1.245 0 0 1-.534-.121 1.25 1.25 0 1 1 1.071-2.259 1.25 1.25 0 0 1-.536 2.38Zm-5.879-2.786a1.245 1.245 0 0 1-.534-.121h-.005a1.25 1.25 0 0 1 1.071-2.259 1.25 1.25 0 0 1-.536 2.38Zm-5.879-2.786a1.245 1.245 0 0 1-.534-.121 1.25 1.25 0 1 1 1.071-2.259 1.25 1.25 0 0 1-.536 2.38Zm-5.879-2.786a1.245 1.245 0 0 1-.534-.121h-.005a1.25 1.25 0 0 1 1.071-2.259h.005a1.25 1.25 0 0 1-.536 2.38Zm-5.879-2.786a1.245 1.245 0 0 1-.535-.121 1.25 1.25 0 0 1 1.071-2.259 1.25 1.25 0 0 1-.536 2.38Zm-5.879-2.786a1.245 1.245 0 0 1-.534-.121 1.25 1.25 0 1 1 1.071-2.259 1.25 1.25 0 0 1-.536 2.38Zm-5.879-2.786a1.245 1.245 0 0 1-.534-.121 1.25 1.25 0 0 1 1.071-2.259 1.25 1.25 0 0 1-.536 2.38Zm-5.879-2.786a1.245 1.245 0 0 1-.534-.121 1.25 1.25 0 1 1 1.071-2.259 1.25 1.25 0 0 1-.536 2.38Zm-5.879-2.786a1.245 1.245 0 0 1-.534-.121h-.005a1.25 1.25 0 0 1 1.071-2.259h.005a1.25 1.25 0 0 1-.536 2.38Zm-5.879-2.786a1.245 1.245 0 0 1-.534-.121 1.25 1.25 0 1 1 1.071-2.259 1.25 1.25 0 0 1-.536 2.38Zm-5.879-2.786a1.245 1.245 0 0 1-.534-.121 1.25 1.25 0 0 1 1.071-2.259 1.25 1.25 0 0 1-.536 2.38Zm-5.879-2.786a1.245 1.245 0 0 1-.534-.121 1.25 1.25 0 1 1 1.071-2.259 1.25 1.25 0 0 1-.536 2.38Zm-5.879-2.786a1.245 1.245 0 0 1-.534-.121h-.005a1.25 1.25 0 0 1 1.071-2.259h.005a1.25 1.25 0 0 1-.536 2.38Zm-5.879-2.786a1.245 1.245 0 0 1-.535-.121 1.25 1.25 0 0 1 1.071-2.259 1.25 1.25 0 0 1-.536 2.38Zm-5.879-2.786a1.245 1.245 0 0 1-.534-.121 1.25 1.25 0 1 1 1.071-2.259 1.25 1.25 0 0 1-.536 2.38Zm-5.879-2.786a1.245 1.245 0 0 1-.534-.121 1.25 1.25 0 1 1 1.071-2.259 1.25 1.25 0 0 1-.536 2.38Zm-5.875-2.786a1.245 1.245 0 0 1-.534-.121 1.25 1.25 0 1 1 1.071-2.259 1.25 1.25 0 0 1-.536 2.38Zm-5.876-2.791a1.245 1.245 0 0 1-.534-.121 1.25 1.25 0 0 1 1.071-2.259h.005a1.25 1.25 0 0 1-.536 2.38Zm-5.879-2.786a1.245 1.245 0 0 1-.534-.121 1.25 1.25 0 1 1 1.071-2.259 1.25 1.25 0 0 1-.536 2.38Zm-5.879-2.786a1.245 1.245 0 0 1-.534-.121h-.005a1.25 1.25 0 0 1 1.071-2.259h.005a1.25 1.25 0 0 1-.536 2.38Zm-5.879-2.786a1.245 1.245 0 0 1-.534-.121 1.25 1.25 0 1 1 1.071-2.259 1.25 1.25 0 0 1-.536 2.38Zm-5.879-2.786a1.245 1.245 0 0 1-.534-.121 1.25 1.25 0 0 1 1.071-2.259h.005a1.25 1.25 0 0 1-.536 2.38Zm-5.879-2.786a1.245 1.245 0 0 1-.534-.121 1.25 1.25 0 1 1 1.071-2.259 1.25 1.25 0 0 1-.536 2.38Zm-5.879-2.786a1.245 1.245 0 0 1-.534-.121h-.005a1.25 1.25 0 0 1 1.071-2.259h.005a1.25 1.25 0 0 1-.536 2.38Zm-5.877-2.784a1.245 1.245 0 0 1-.534-.121 1.25 1.25 0 1 1 1.071-2.259 1.25 1.25 0 0 1-.536 2.38Zm-5.879-2.786a1.245 1.245 0 0 1-.534-.114 1.25 1.25 0 1 1 1.071-2.259 1.25 1.25 0 0 1-.536 2.38Zm-5.879-2.786a1.245 1.245 0 0 1-.534-.121 1.25 1.25 0 0 1 1.071-2.259 1.25 1.25 0 0 1-.536 2.38Zm-5.879-2.786a1.245 1.245 0 0 1-.534-.121 1.25 1.25 0 1 1 1.071-2.259 1.25 1.25 0 0 1-.536 2.38Zm-5.879-2.786a1.245 1.245 0 0 1-.534-.121 1.25 1.25 0 0 1 1.071-2.259h.005a1.25 1.25 0 0 1-.536 2.38Zm-5.879-2.786a1.245 1.245 0 0 1-.534-.121 1.25 1.25 0 1 1 1.071-2.259 1.25 1.25 0 0 1-.536 2.38Zm-5.878-2.783a1.245 1.245 0 0 1-.534-.121 1.25 1.25 0 0 1 1.071-2.259 1.25 1.25 0 0 1-.536 2.38ZM7.134 5.288a1.245 1.245 0 0 1-.534-.121 1.25 1.25 0 1 1 1.071-2.259 1.25 1.25 0 0 1-.536 2.38ZM1.255 2.502a1.245 1.245 0 0 1-.534-.121A1.25 1.25 0 0 1 1.792.122a1.25 1.25 0 0 1-.536 2.38Z">
      </path>
    </symbol>
    <symbol xmlns="http://www.w3.org/2000/svg" preserveAspectRatio="xMaxYMid meet" viewBox="0 0 242.932 124.835"
      id="resident-fr">
      <path fill="currentColor"
        d="m170.215 40 .544.254-.233.264a5.911 5.911 0 0 1-2.096 1.68 2.488 2.488 0 0 1-2.056-.113 2.218 2.218 0 0 1-1.342-1.429 2.4 2.4 0 0 1 .276-1.822l1.42-2.551q.155-.272.375-.743a3.086 3.086 0 0 0 .36-1.697 2.316 2.316 0 0 0-.916-1.388 12.991 12.991 0 0 0-2.571-1.53l-3.965 4.75a4.65 4.65 0 0 0-.75 1.055.76.76 0 0 0 .034.82 3.371 3.371 0 0 0 1.162.8l-.31.428q-1.055-.578-2.89-1.433-2.073-.967-3.096-1.358l.31-.429a5.751 5.751 0 0 0 1.357.403 1.357 1.357 0 0 0 .925-.23 5.608 5.608 0 0 0 1.088-1.071l8.562-10.241a5.775 5.775 0 0 0 .728-1.009.807.807 0 0 0-.029-.86 3.206 3.206 0 0 0-1.144-.806l.337-.416q.91.51 2.867 1.423 1.132.527 1.708.767l1.755.79a6.423 6.423 0 0 1 3.087 2.515 3.166 3.166 0 0 1 .053 2.994 4.7 4.7 0 0 1-3.234 2.566 10.09 10.09 0 0 1-5.356-.203q.295.167.77.503a4.465 4.465 0 0 1 1.618 1.759 2.61 2.61 0 0 1-.232 2.098 3.931 3.931 0 0 1-.244.46l-1.31 2.322a4.2 4.2 0 0 0-.254.484q-.67 1.437.084 1.789a1.007 1.007 0 0 0 .956-.142 7.369 7.369 0 0 0 1.384-1.176Zm-5.877-9.482.707.33q3.181 1.483 5.255.757a5.442 5.442 0 0 0 3.15-3.035 3 3 0 0 0 .255-2.391 3.58 3.58 0 0 0-1.972-1.737 3.1 3.1 0 0 0-1.192-.336 1.547 1.547 0 0 0-.928.3 5.615 5.615 0 0 0-1.042 1.034Zm21.123 6.809a4.481 4.481 0 0 1-3.704 2.346 21.682 21.682 0 0 1-5.99.047 11.726 11.726 0 0 0-1.324 2.165q-1.057 2.266.569 3.024 2.027.945 4.724-.666l.29.364a7.97 7.97 0 0 1-3.072 1.275 5 5 0 0 1-3.132-.327 3.354 3.354 0 0 1-1.89-1.915 3.763 3.763 0 0 1 .329-2.858 10.739 10.739 0 0 1 2.933-3.553 12.72 12.72 0 0 1 4.625-2.505 6.366 6.366 0 0 1 4.624.234 2.12 2.12 0 0 1 1.062.983 1.544 1.544 0 0 1-.044 1.386Zm-1.749-2.164a2.888 2.888 0 0 0-2.097.098 10.74 10.74 0 0 0-2.837 1.531 14.4 14.4 0 0 0-2.684 2.536 13.558 13.558 0 0 0 3.907-.01 5.268 5.268 0 0 0 2.13-1.034 5.182 5.182 0 0 0 1.466-1.884 2.716 2.716 0 0 0 .305-.89.335.335 0 0 0-.186-.346Zm-.114-2.893q1.436-.68 3.465-1.77a17.663 17.663 0 0 1 2.158-1.06 1.412 1.412 0 0 1 1.207-.067.839.839 0 0 1 .442.406.675.675 0 0 1-.02.536 1.671 1.671 0 0 1-1.017.76 12.073 12.073 0 0 1-2.206.548q-.22.041-1.347.305t-2.547.663Zm-1.352 16.381a2.108 2.108 0 0 0 .383.38 3.529 3.529 0 0 0 .602.338 2.62 2.62 0 0 0 2.018.168 2.617 2.617 0 0 0 1.495-1.483 4.4 4.4 0 0 0 .407-1.606 8.635 8.635 0 0 0-.18-2.077 16.224 16.224 0 0 1-.336-2.323 3.833 3.833 0 0 1 .401-1.807 3.444 3.444 0 0 1 1.303-1.5 3.713 3.713 0 0 1 1.886-.57 4.391 4.391 0 0 1 2.024.427 4.6 4.6 0 0 1 1.836 1.416 1.839 1.839 0 0 1 .083 1.975 1.6 1.6 0 0 1-.657.698 1.011 1.011 0 0 1-1.002.02.985.985 0 0 1-.54-.596 1.083 1.083 0 0 1 .058-.833 2.835 2.835 0 0 1 1.396-1.271 2.406 2.406 0 0 0-1.046-.833 2.156 2.156 0 0 0-1.753-.086 2.5 2.5 0 0 0-1.341 1.369 2.623 2.623 0 0 0-.277 1.147 13.576 13.576 0 0 0 .178 1.647l.139.81a14.861 14.861 0 0 1 .18 2.351 4.352 4.352 0 0 1-.405 1.762 3.768 3.768 0 0 1-1.444 1.65 4.162 4.162 0 0 1-2.101.627 4.851 4.851 0 0 1-2.235-.468 4.6 4.6 0 0 1-1.997-1.634 2.132 2.132 0 0 1-.096-2.183 1.4 1.4 0 0 1 .564-.626.862.862 0 0 1 .85-.005.94.94 0 0 1 .579.786 2.208 2.208 0 0 1-.235 1.182 7.653 7.653 0 0 1-.737 1.148Zm22.302-2.424a4.481 4.481 0 0 1-3.704 2.346 21.682 21.682 0 0 1-5.99.048 11.726 11.726 0 0 0-1.324 2.164q-1.057 2.266.569 3.024 2.026.945 4.724-.666l.289.365a7.97 7.97 0 0 1-3.071 1.274 5 5 0 0 1-3.134-.328 3.354 3.354 0 0 1-1.889-1.913 3.763 3.763 0 0 1 .33-2.86 10.739 10.739 0 0 1 2.933-3.551 12.72 12.72 0 0 1 4.625-2.505 6.366 6.366 0 0 1 4.624.234 2.119 2.119 0 0 1 1.062.983 1.544 1.544 0 0 1-.044 1.385Zm-1.749-2.164a2.888 2.888 0 0 0-2.097.098 10.741 10.741 0 0 0-2.837 1.532 14.4 14.4 0 0 0-2.684 2.535 13.558 13.558 0 0 0 3.906-.01 5.268 5.268 0 0 0 2.13-1.03 5.182 5.182 0 0 0 1.466-1.883 2.716 2.716 0 0 0 .305-.891.335.335 0 0 0-.185-.35Zm12.081 5.089a1.511 1.511 0 0 1 .838.85 1.443 1.443 0 0 1-.074 1.141 1.805 1.805 0 0 1-1.055.971 1.746 1.746 0 0 1-1.385-.043 1.113 1.113 0 0 1-.58-.543.862.862 0 0 1 .033-.745 1.642 1.642 0 0 1 .711-.787 2.056 2.056 0 0 1 1.052-.227.386.386 0 0 0-.217-.211q-1.268-.592-4.048 1.454a41.329 41.329 0 0 0-6.195 5.933l-1.33 1.641-2.047-.954 7.542-8.79a3.4 3.4 0 0 0 .593-.843q.254-.543-.241-.774a1.352 1.352 0 0 0-1.213.109 7.337 7.337 0 0 0-1.746 1.437l-.713.73-.448-.21 1.392-1.447q1.98-2.031 3.983-1.097a1.322 1.322 0 0 1 .701 1.995 9.308 9.308 0 0 1-1.23 1.778l-2.14 2.618a21.089 21.089 0 0 1 4.65-3.728 3.516 3.516 0 0 1 3.175-.255Zm10.263 9.06a3.892 3.892 0 0 1-.768-1.534 2.412 2.412 0 0 1 .165-1.645 1.222 1.222 0 0 1 .725-.724 1.162 1.162 0 0 1 .85.053 1.168 1.168 0 0 1 .694 1.096 4.224 4.224 0 0 1-.483 1.897 7.862 7.862 0 0 1-.487.92 17.549 17.549 0 0 1-3.378 4.022 10.632 10.632 0 0 1-4.187 2.336 6.052 6.052 0 0 1-4.3-.355 2.738 2.738 0 0 1-1.724-1.837 3.365 3.365 0 0 1 .401-2.337 10.785 10.785 0 0 1 3.625-3.56 26.026 26.026 0 0 1 6.017-2.845 9.6 9.6 0 0 0-1.672.08 10.344 10.344 0 0 1-1.283.105 1.99 1.99 0 0 1-.847-.151 1.045 1.045 0 0 1-.43-.373 2.4 2.4 0 0 0-.229-.307 1.5 1.5 0 0 0-.551-.602.839.839 0 0 0-.773.027 4.689 4.689 0 0 0-1.063.896l-.666.75-.448-.208 1.322-1.48q1.78-2.096 3.336-1.37a1.27 1.27 0 0 1 .469.347 4.762 4.762 0 0 1 .384.595 3.818 3.818 0 0 0 .379.607 1.32 1.32 0 0 0 .489.372 3.121 3.121 0 0 0 2.32.192l.444-.338.385.467a24.189 24.189 0 0 0-5.162 3.304 16.016 16.016 0 0 0-3.5 4.192 5.918 5.918 0 0 0-.286.554q-.923 1.98.113 2.463a4.679 4.679 0 0 0 3.777.011 11.54 11.54 0 0 0 3.802-2.43 12.43 12.43 0 0 0 2.547-3.187Zm12.105 3.263a4.481 4.481 0 0 1-3.694 2.351 21.682 21.682 0 0 1-5.993.046 11.726 11.726 0 0 0-1.326 2.164q-1.057 2.266.569 3.024 2.026.945 4.724-.666l.29.364a7.97 7.97 0 0 1-3.07 1.276 5 5 0 0 1-3.133-.328 3.354 3.354 0 0 1-1.89-1.914 3.763 3.763 0 0 1 .33-2.859 10.739 10.739 0 0 1 2.932-3.552 12.721 12.721 0 0 1 4.625-2.505 6.366 6.366 0 0 1 4.625.234 2.119 2.119 0 0 1 1.062.983 1.544 1.544 0 0 1-.044 1.386Zm-1.75-2.164a2.888 2.888 0 0 0-2.096.098 10.74 10.74 0 0 0-2.826 1.537 14.4 14.4 0 0 0-2.688 2.533 13.558 13.558 0 0 0 3.906-.01 5.268 5.268 0 0 0 2.134-1.027 5.182 5.182 0 0 0 1.467-1.884 2.716 2.716 0 0 0 .305-.89.335.335 0 0 0-.19-.352Zm-.102-2.888q1.435-.679 3.464-1.77a17.664 17.664 0 0 1 2.158-1.059 1.412 1.412 0 0 1 1.208-.068.839.839 0 0 1 .441.407.675.675 0 0 1-.02.535 1.671 1.671 0 0 1-1.016.76 12.073 12.073 0 0 1-2.204.546q-.22.041-1.346.305t-2.549.666Z">
      </path>
      <path fill="currentColor"
        d="m88.107 32.785.447.21-1.392 1.446a4.544 4.544 0 0 1-2.074 1.312 2.658 2.658 0 0 1-1.778-.126 1.9 1.9 0 0 1-.7-.528 1.45 1.45 0 0 1-.31-.69 1.735 1.735 0 0 1 .173-.923 4.746 4.746 0 0 1 .681-1.03q.45-.536.575-.68l1.215-1.498a14.023 14.023 0 0 1-4.083 2.758 3.774 3.774 0 0 1-2.994.052 2.11 2.11 0 0 1-1.287-1.546 3.807 3.807 0 0 1 .402-2.338 12.069 12.069 0 0 1 3.002-3.792 14.212 14.212 0 0 1 4.507-2.776 5.181 5.181 0 0 1 4.068-.11 1.432 1.432 0 0 1 .817.954 2.518 2.518 0 0 1-.144 1.54l1.058-1.286a8.912 8.912 0 0 0 2.322.681l-7.802 9.042-.26.32a2.221 2.221 0 0 0-.307.474q-.274.59.244.83 1.037.484 2.933-1.557Zm-9.207-.133a2.717 2.717 0 0 0 2.057-.274 14.389 14.389 0 0 0 3.06-1.858 21.917 21.917 0 0 0 3.127-2.917l1.204-1.475a4.873 4.873 0 0 0 .265-.508 3.184 3.184 0 0 0 .367-1.68 1.177 1.177 0 0 0-.696-.998q-1.013-.472-2.875.567a15.774 15.774 0 0 0-3.699 2.98 15.117 15.117 0 0 0-2.782 3.967 3.668 3.668 0 0 0-.436 1.49.733.733 0 0 0 .41.707Zm22.555 6.386.447.21-1.392 1.446q-1.979 2.03-3.98 1.097a1.72 1.72 0 0 1-.63-.495 1.221 1.221 0 0 1-.275-.702 2.025 2.025 0 0 1 .199-.796 9.932 9.932 0 0 1 1.23-1.779l2.105-2.604a18.709 18.709 0 0 1-4.903 3.561 4.173 4.173 0 0 1-3.498.12q-1.979-.924-1.134-2.736a6.2 6.2 0 0 1 1.143-1.59l5.494-5.815a3.318 3.318 0 0 0 .596-.784q.274-.59-.291-.853a1.332 1.332 0 0 0-1.154.108 7.22 7.22 0 0 0-1.78 1.45l-.713.73-.447-.21 1.392-1.447q1.98-2.031 3.983-1.097 1.65.769.968 2.23a6.76 6.76 0 0 1-1.234 1.662L92.2 36.44a4.278 4.278 0 0 0-.785 1.068q-.374.801.38 1.153.92.428 2.658-.41a18.913 18.913 0 0 0 3.941-2.734 38.781 38.781 0 0 0 4.412-4.54l.822-1.024a8.171 8.171 0 0 0 2.298.67l-7.79 9.077a4.32 4.32 0 0 0-.593.842q-.254.544.24.774a1.352 1.352 0 0 0 1.213-.108 7.337 7.337 0 0 0 1.747-1.438Zm16.89-2.623a1.27 1.27 0 0 1 .633.582.852.852 0 0 1-.001.772 1.178 1.178 0 0 1-.722.624 1.364 1.364 0 0 1-1.054-.076 2.518 2.518 0 0 1-1.221-1.257 11.643 11.643 0 0 0-4.468 2.937l-1.786 5.306a2.134 2.134 0 0 0-.107.968.68.68 0 0 0 .403.49 1.112 1.112 0 0 0 .98-.103 7.208 7.208 0 0 0 1.612-1.328l.713-.729.448.209-1.392 1.447q-1.998 1.995-3.812 1.149-1.697-.791-.945-3.08l1.075-3.228a15.249 15.249 0 0 1-4.256 2.605 8.354 8.354 0 0 1-1.8.509 2.238 2.238 0 0 1-1.261-.158 1.338 1.338 0 0 1-.685-.591.874.874 0 0 1 .03-.775 1.178 1.178 0 0 1 .722-.625 1.331 1.331 0 0 1 1.031.065 2.66 2.66 0 0 1 1.22 1.258 12.884 12.884 0 0 0 2.792-1.31 16.472 16.472 0 0 0 2.508-1.87l1.614-4.756a2.134 2.134 0 0 0 .108-.968.68.68 0 0 0-.403-.49 1.112 1.112 0 0 0-.98.103 7.208 7.208 0 0 0-1.613 1.328l-.713.729-.447-.209 1.392-1.447q1.992-1.997 3.807-1.15a1.976 1.976 0 0 1 1.118 1.108 3.193 3.193 0 0 1-.173 1.971l-.85 2.559a13.182 13.182 0 0 1 3.452-2.235 5.7 5.7 0 0 1 1.73-.541 2.433 2.433 0 0 1 1.3.206Zm16.405 7.65a1.511 1.511 0 0 1 .837.849 1.443 1.443 0 0 1-.073 1.142 1.805 1.805 0 0 1-1.055.97 1.746 1.746 0 0 1-1.386-.043 1.113 1.113 0 0 1-.579-.542.862.862 0 0 1 .032-.745 1.642 1.642 0 0 1 .712-.788 2.056 2.056 0 0 1 1.052-.226.386.386 0 0 0-.217-.212q-1.269-.591-4.049 1.455a41.329 41.329 0 0 0-6.195 5.932l-1.343 1.636-2.05-.956 7.542-8.79a3.4 3.4 0 0 0 .593-.842q.254-.544-.241-.775a1.352 1.352 0 0 0-1.213.109 7.338 7.338 0 0 0-1.746 1.437l-.713.73-.447-.21 1.392-1.447q1.98-2.031 3.983-1.097a1.322 1.322 0 0 1 .706 1.993 9.307 9.307 0 0 1-1.231 1.778l-2.139 2.618a21.089 21.089 0 0 1 4.65-3.727 3.516 3.516 0 0 1 3.172-.252Zm9.335 6.246a4.481 4.481 0 0 1-3.705 2.346 21.682 21.682 0 0 1-5.989.047 11.726 11.726 0 0 0-1.325 2.165q-1.057 2.266.57 3.024 2.026.945 4.723-.666l.29.364a7.97 7.97 0 0 1-3.077 1.277 5 5 0 0 1-3.13-.331 3.354 3.354 0 0 1-1.89-1.914 3.763 3.763 0 0 1 .328-2.86 10.739 10.739 0 0 1 2.933-3.551 12.721 12.721 0 0 1 4.625-2.506 6.366 6.366 0 0 1 4.625.235 2.119 2.119 0 0 1 1.062.983 1.544 1.544 0 0 1-.044 1.385Zm-1.75-2.164a2.888 2.888 0 0 0-2.096.098 10.74 10.74 0 0 0-2.838 1.531 14.4 14.4 0 0 0-2.687 2.534 13.558 13.558 0 0 0 3.906-.01 5.268 5.268 0 0 0 2.134-1.028 5.182 5.182 0 0 0 1.467-1.883 2.716 2.716 0 0 0 .305-.89.335.335 0 0 0-.19-.352Zm-.114-2.894q1.436-.679 3.465-1.77a17.665 17.665 0 0 1 2.158-1.058 1.412 1.412 0 0 1 1.208-.068.839.839 0 0 1 .441.406.675.675 0 0 1-.02.536 1.671 1.671 0 0 1-1.016.76 12.073 12.073 0 0 1-2.207.548q-.22.041-1.347.305t-2.547.663Zm-1.355 16.38a2.108 2.108 0 0 0 .383.38 3.529 3.529 0 0 0 .602.338 2.62 2.62 0 0 0 2.018.168 2.617 2.617 0 0 0 1.495-1.483 4.4 4.4 0 0 0 .404-1.604 8.635 8.635 0 0 0-.18-2.078 16.225 16.225 0 0 1-.336-2.323 3.833 3.833 0 0 1 .401-1.806 3.444 3.444 0 0 1 1.303-1.502 3.713 3.713 0 0 1 1.886-.569 4.391 4.391 0 0 1 2.024.428 4.6 4.6 0 0 1 1.836 1.415 1.839 1.839 0 0 1 .083 1.975 1.6 1.6 0 0 1-.657.698 1.011 1.011 0 0 1-1.002.02.985.985 0 0 1-.54-.595 1.083 1.083 0 0 1 .058-.834 2.835 2.835 0 0 1 1.396-1.271 2.406 2.406 0 0 0-1.046-.832 2.156 2.156 0 0 0-1.753-.086 2.5 2.5 0 0 0-1.341 1.368 2.624 2.624 0 0 0-.277 1.148 13.575 13.575 0 0 0 .178 1.647l.139.81a14.861 14.861 0 0 1 .18 2.35 4.352 4.352 0 0 1-.405 1.762 3.768 3.768 0 0 1-1.444 1.65 4.162 4.162 0 0 1-2.1.628 4.851 4.851 0 0 1-2.234-.468 4.6 4.6 0 0 1-1.997-1.634 2.132 2.132 0 0 1-.1-2.184 1.4 1.4 0 0 1 .564-.626.862.862 0 0 1 .85-.006.94.94 0 0 1 .58.787 2.208 2.208 0 0 1-.236 1.181 7.653 7.653 0 0 1-.732 1.148Zm19.358-10.137a1.957 1.957 0 0 1 1.118-1.013 1.807 1.807 0 0 1 1.472.012 1.254 1.254 0 0 1 .707.76 1.357 1.357 0 0 1-.077 1.026 1.893 1.893 0 0 1-1.126.995 1.866 1.866 0 0 1-1.48-.027 1.244 1.244 0 0 1-.688-.738 1.311 1.311 0 0 1 .074-1.015Zm-3.496 5.652a3.318 3.318 0 0 0 .595-.783q.274-.59-.244-.831a1.331 1.331 0 0 0-1.23.115 8.446 8.446 0 0 0-1.752 1.42l-.737.718-.448-.209 1.416-1.436a4.051 4.051 0 0 1 2.14-1.297 3.187 3.187 0 0 1 1.915.23q1.555.726.863 2.21a5.985 5.985 0 0 1-1.223 1.637l-5.855 5.974a3.318 3.318 0 0 0-.595.783q-.274.59.291.853a1.307 1.307 0 0 0 1.173-.115 8.247 8.247 0 0 0 1.786-1.431l.736-.718.448.209-1.416 1.436a4.292 4.292 0 0 1-2.104 1.283 3.023 3.023 0 0 1-1.925-.21q-1.65-.769-.98-2.206a6.516 6.516 0 0 1 1.293-1.664Zm11.581 13.06.448.21-1.347 1.468a3.921 3.921 0 0 1-2.022 1.326 2.862 2.862 0 0 1-1.842-.171 1.657 1.657 0 0 1-.932-.893 1.619 1.619 0 0 1 .13-1.264 8.66 8.66 0 0 1 1.164-1.695l.887-1.042a12.136 12.136 0 0 1-3.871 2.387 3.953 3.953 0 0 1-2.94-.086 2.447 2.447 0 0 1-1.44-1.618 3.948 3.948 0 0 1 .444-2.634 11.513 11.513 0 0 1 3.003-3.763 12.432 12.432 0 0 1 4.574-2.559 6.192 6.192 0 0 1 4.537.208 1.551 1.551 0 0 1 .73.713 1.8 1.8 0 0 1 .18 1.088l3.233-3.857a2.374 2.374 0 0 0 .387-.592.836.836 0 0 0-.039-.864 2.761 2.761 0 0 0-1.133-.8l.373-.43a11.85 11.85 0 0 0 2.37.79 9.29 9.29 0 0 0 2.25.19L165.03 70.893a4.265 4.265 0 0 0-.515.735q-.307.66.258.924a1.224 1.224 0 0 0 1.126-.137 8.039 8.039 0 0 0 1.716-1.466Zm-9.286-.198a2.736 2.736 0 0 0 2.084-.23 14.232 14.232 0 0 0 3.049-1.805 22.146 22.146 0 0 0 3.14-2.855l2.264-2.696a1.817 1.817 0 0 0-.06-1.131 1.261 1.261 0 0 0-.629-.652 3.949 3.949 0 0 0-3.418.256 13.068 13.068 0 0 0-3.803 2.803 14.017 14.017 0 0 0-2.711 3.779q-.956 2.05.08 2.533Zm24.036-1.53a4.481 4.481 0 0 1-3.708 2.35 21.682 21.682 0 0 1-5.989.047 11.726 11.726 0 0 0-1.325 2.165q-1.056 2.265.57 3.024 2.026.945 4.724-.666l.289.364a7.97 7.97 0 0 1-3.069 1.276 5 5 0 0 1-3.135-.329 3.354 3.354 0 0 1-1.888-1.913 3.763 3.763 0 0 1 .329-2.86 10.739 10.739 0 0 1 2.933-3.551 12.721 12.721 0 0 1 4.625-2.505 6.366 6.366 0 0 1 4.624.234 2.119 2.119 0 0 1 1.062.983 1.544 1.544 0 0 1-.045 1.384Zm-1.749-2.163a2.888 2.888 0 0 0-2.097.098 10.74 10.74 0 0 0-2.837 1.531 14.4 14.4 0 0 0-2.687 2.538 13.558 13.558 0 0 0 3.906-.01 5.268 5.268 0 0 0 2.134-1.027 5.182 5.182 0 0 0 1.467-1.884 2.716 2.716 0 0 0 .305-.89.335.335 0 0 0-.187-.35Zm11.245 15.202-1.392 1.447q-1.98 2.03-3.982 1.096a1.772 1.772 0 0 1-1.166-1.376 1.532 1.532 0 0 1 .174-.865 7.037 7.037 0 0 1 1.257-1.651l5.382-5.696a4.927 4.927 0 0 0 .774-1.044q.384-.825-.37-1.177a3.369 3.369 0 0 0-2.648.358 17.979 17.979 0 0 0-3.926 2.544 35.093 35.093 0 0 0-4.27 4.174l-1.23 1.523-2.047-.955 7.541-8.79a4.318 4.318 0 0 0 .572-.795q.274-.59-.244-.83a1.27 1.27 0 0 0-1.16.089 8.337 8.337 0 0 0-1.775 1.468l-.713.729-.448-.21 1.392-1.446q1.98-2.032 3.936-1.12a1.5 1.5 0 0 1 .903.863 1.667 1.667 0 0 1-.16 1.173 9.286 9.286 0 0 1-1.22 1.755l-2.33 2.843a19.907 19.907 0 0 1 5.238-3.696 4.506 4.506 0 0 1 3.72-.073q1.91.89 1.085 2.658a6.105 6.105 0 0 1-1.188 1.626l-5.497 5.819a3.344 3.344 0 0 0-.606.808.552.552 0 0 0 .302.829 1.332 1.332 0 0 0 1.154-.108 7.22 7.22 0 0 0 1.78-1.45l.712-.73Zm3.184 3.692a2.374 2.374 0 0 0-.312.485.957.957 0 0 0-.047.839 1.217 1.217 0 0 0 .624.578 1.689 1.689 0 0 0 1.323.002 5.854 5.854 0 0 0 1.87-1.382l.758-.765.447.208-1.187 1.254a4.654 4.654 0 0 1-2.25 1.462 3.438 3.438 0 0 1-2.22-.303 2.37 2.37 0 0 1-1.337-1.254 2.144 2.144 0 0 1 .151-1.68 5.348 5.348 0 0 1 .839-1.244l6.541-7.507-2.117-.987.338-.416 2.12.989 2.707-3.098a8.5 8.5 0 0 0 2.275.659l-2.932 3.395 3.11 1.45-.29.438-3.18-1.483Zm8.043-.639a1.957 1.957 0 0 1 1.119-1.013 1.807 1.807 0 0 1 1.47.014 1.254 1.254 0 0 1 .707.76 1.357 1.357 0 0 1-.076 1.025 1.893 1.893 0 0 1-1.126.996 1.866 1.866 0 0 1-1.48-.028 1.244 1.244 0 0 1-.688-.737 1.311 1.311 0 0 1 .074-1.015Zm17.048 1.523a4.481 4.481 0 0 1-3.71 2.347 21.682 21.682 0 0 1-5.981.05 11.726 11.726 0 0 0-1.325 2.165q-1.057 2.266.57 3.024 2.026.945 4.723-.666l.29.365a7.97 7.97 0 0 1-3.076 1.272 5 5 0 0 1-3.13-.326 3.354 3.354 0 0 1-1.89-1.914 3.763 3.763 0 0 1 .329-2.86 10.739 10.739 0 0 1 2.933-3.551 12.72 12.72 0 0 1 4.625-2.506 6.366 6.366 0 0 1 4.624.235 2.119 2.119 0 0 1 1.062.983 1.544 1.544 0 0 1-.045 1.384Zm-1.75-2.164a2.888 2.888 0 0 0-2.096.098 10.74 10.74 0 0 0-2.837 1.532 14.4 14.4 0 0 0-2.685 2.537 13.558 13.558 0 0 0 3.906-.01 5.268 5.268 0 0 0 2.13-1.03 5.182 5.182 0 0 0 1.466-1.883 2.716 2.716 0 0 0 .305-.89.335.335 0 0 0-.186-.35Zm.887 8.188a1.957 1.957 0 0 1 1.118-1.013 1.807 1.807 0 0 1 1.472.012 1.254 1.254 0 0 1 .707.76 1.357 1.357 0 0 1-.076 1.026 1.893 1.893 0 0 1-1.127.995 1.866 1.866 0 0 1-1.479-.028 1.244 1.244 0 0 1-.689-.737 1.311 1.311 0 0 1 .077-1.011Zm3.723 8.136a2.108 2.108 0 0 0 .382.379 3.529 3.529 0 0 0 .603.338 2.62 2.62 0 0 0 2.018.169 2.617 2.617 0 0 0 1.495-1.483 4.4 4.4 0 0 0 .404-1.605 8.635 8.635 0 0 0-.18-2.077 16.224 16.224 0 0 1-.336-2.323 3.833 3.833 0 0 1 .401-1.807 3.444 3.444 0 0 1 1.303-1.501 3.713 3.713 0 0 1 1.886-.57 4.391 4.391 0 0 1 2.024.428 4.6 4.6 0 0 1 1.836 1.416 1.839 1.839 0 0 1 .083 1.975 1.6 1.6 0 0 1-.657.698 1.011 1.011 0 0 1-1.002.02.985.985 0 0 1-.54-.596 1.083 1.083 0 0 1 .058-.834 2.835 2.835 0 0 1 1.396-1.27 2.406 2.406 0 0 0-1.047-.833 2.156 2.156 0 0 0-1.746-.088 2.5 2.5 0 0 0-1.34 1.368 2.623 2.623 0 0 0-.276 1.152 13.576 13.576 0 0 0 .178 1.646l.139.81a14.861 14.861 0 0 1 .177 2.35 4.352 4.352 0 0 1-.406 1.761 3.768 3.768 0 0 1-1.444 1.65 4.162 4.162 0 0 1-2.1.628 4.851 4.851 0 0 1-2.234-.468 4.6 4.6 0 0 1-1.996-1.634 2.132 2.132 0 0 1-.097-2.182 1.4 1.4 0 0 1 .564-.626.862.862 0 0 1 .85-.006.94.94 0 0 1 .58.787 2.208 2.208 0 0 1-.236 1.181 7.653 7.653 0 0 1-.736 1.148Z">
      </path>
      <path fill="currentColor"
        d="M237.255 38.79a1.245 1.245 0 0 1-.535-.121 1.25 1.25 0 0 1 1.073-2.258 1.25 1.25 0 0 1-.538 2.379Zm-5.876-2.791a1.245 1.245 0 0 1-.535-.121 1.25 1.25 0 0 1 1.073-2.258 1.25 1.25 0 0 1-.537 2.379Zm-5.876-2.791a1.245 1.245 0 0 1-.535-.121 1.25 1.25 0 1 1 1.073-2.258 1.25 1.25 0 0 1-.537 2.379Zm-5.876-2.791a1.245 1.245 0 0 1-.535-.121 1.25 1.25 0 1 1 1.063-2.262 1.25 1.25 0 0 1-.537 2.379Zm-5.882-2.793a1.245 1.245 0 0 1-.535-.121 1.25 1.25 0 1 1 1.073-2.258 1.25 1.25 0 0 1-.537 2.379Zm-5.876-2.791a1.245 1.245 0 0 1-.535-.121 1.25 1.25 0 1 1 1.067-2.262 1.25 1.25 0 0 1-.537 2.379Zm-5.876-2.791a1.245 1.245 0 0 1-.535-.121 1.25 1.25 0 1 1 1.067-2.261 1.25 1.25 0 0 1-.537 2.379Zm-5.876-2.792a1.245 1.245 0 0 1-.535-.121 1.25 1.25 0 1 1 1.073-2.258 1.25 1.25 0 0 1-.538 2.379Zm-5.876-2.791a1.245 1.245 0 0 1-.535-.121 1.25 1.25 0 1 1 1.073-2.258 1.25 1.25 0 0 1-.537 2.379Zm-5.876-2.791a1.245 1.245 0 0 1-.535-.121 1.25 1.25 0 1 1 1.073-2.258 1.25 1.25 0 0 1-.537 2.379Zm-5.877-2.791a1.245 1.245 0 0 1-.535-.121 1.25 1.25 0 1 1 1.073-2.258 1.25 1.25 0 0 1-.537 2.379Zm-5.876-2.792a1.245 1.245 0 0 1-.535-.121 1.25 1.25 0 1 1 1.073-2.258 1.25 1.25 0 0 1-.537 2.379Zm-5.877-2.791a1.245 1.245 0 0 1-.535-.121 1.25 1.25 0 1 1 1.068-2.261 1.25 1.25 0 0 1-.533 2.382Zm-5.88-2.791a1.245 1.245 0 0 1-.535-.121 1.25 1.25 0 0 1-.594-1.668 1.25 1.25 0 0 1 1.665-.593 1.25 1.25 0 0 1 .598 1.668 1.25 1.25 0 0 1-1.134.714Z">
      </path>
      <path fill="currentColor"
        d="M234.002 123.462a1.245 1.245 0 0 1-.558-.132 1.25 1.25 0 0 1 1.118-2.236 1.25 1.25 0 0 1-.56 2.368Zm-5.819-2.909a1.245 1.245 0 0 1-.558-.132 1.25 1.25 0 1 1 1.118-2.236 1.25 1.25 0 0 1-.56 2.368Zm-5.819-2.909a1.245 1.245 0 0 1-.558-.132 1.25 1.25 0 1 1 1.118-2.236 1.25 1.25 0 0 1-.56 2.368Zm-5.814-2.909a1.245 1.245 0 0 1-.558-.132 1.25 1.25 0 0 1 1.118-2.236 1.25 1.25 0 0 1-.56 2.368Zm-5.819-2.909a1.245 1.245 0 0 1-.558-.132 1.25 1.25 0 1 1 1.118-2.236 1.25 1.25 0 0 1-.56 2.368Zm-5.819-2.909a1.245 1.245 0 0 1-.558-.132 1.25 1.25 0 1 1 1.118-2.236 1.25 1.25 0 0 1-.56 2.368Zm-5.819-2.909a1.245 1.245 0 0 1-.558-.132 1.25 1.25 0 0 1 1.118-2.236 1.25 1.25 0 0 1-.56 2.368Zm-5.819-2.909a1.245 1.245 0 0 1-.558-.132 1.25 1.25 0 0 1 1.118-2.236 1.25 1.25 0 0 1-.56 2.368Zm-5.824-2.912a1.245 1.245 0 0 1-.558-.132 1.25 1.25 0 1 1 1.118-2.236 1.25 1.25 0 0 1-.56 2.368Zm-5.819-2.909a1.245 1.245 0 0 1-.558-.132 1.25 1.25 0 0 1 1.118-2.236 1.25 1.25 0 0 1-.56 2.368Zm-5.819-2.909a1.245 1.245 0 0 1-.558-.132 1.25 1.25 0 0 1 1.118-2.236 1.25 1.25 0 0 1-.56 2.368Zm-5.819-2.909a1.245 1.245 0 0 1-.558-.132 1.25 1.25 0 1 1 1.118-2.236 1.25 1.25 0 0 1-.56 2.368Zm-5.819-2.909a1.245 1.245 0 0 1-.558-.132 1.25 1.25 0 1 1 1.118-2.236 1.25 1.25 0 0 1-.56 2.368Zm-5.819-2.909a1.245 1.245 0 0 1-.558-.132 1.25 1.25 0 0 1 1.118-2.236 1.25 1.25 0 0 1-.56 2.368Zm-5.815-2.907a1.245 1.245 0 0 1-.558-.132 1.25 1.25 0 0 1 1.118-2.236 1.25 1.25 0 0 1-.56 2.368Zm-5.819-2.909a1.245 1.245 0 0 1-.558-.132 1.25 1.25 0 1 1 1.118-2.236 1.25 1.25 0 0 1-.56 2.368Zm-5.819-2.909a1.245 1.245 0 0 1-.558-.132 1.25 1.25 0 0 1 1.118-2.236 1.25 1.25 0 0 1-.56 2.368Zm-5.819-2.909a1.245 1.245 0 0 1-.558-.132 1.25 1.25 0 0 1 1.118-2.236 1.25 1.25 0 0 1-.56 2.368Zm-5.819-2.909a1.245 1.245 0 0 1-.558-.132 1.25 1.25 0 1 1 1.118-2.236 1.25 1.25 0 0 1-.56 2.368Zm-5.814-2.915a1.245 1.245 0 0 1-.558-.132 1.25 1.25 0 1 1 1.118-2.236 1.25 1.25 0 0 1-.56 2.368Zm-5.819-2.909a1.245 1.245 0 0 1-.558-.132 1.25 1.25 0 0 1 1.118-2.236 1.25 1.25 0 0 1-.56 2.368Zm-5.819-2.909a1.245 1.245 0 0 1-.562-.131 1.25 1.25 0 1 1 1.118-2.236 1.25 1.25 0 0 1-.56 2.368Zm-5.819-2.909a1.245 1.245 0 0 1-.558-.132 1.251 1.251 0 1 1 1.115-2.24 1.25 1.25 0 0 1-.56 2.368Zm-5.819-2.909a1.245 1.245 0 0 1-.558-.132 1.25 1.25 0 0 1 1.118-2.236 1.25 1.25 0 0 1-.56 2.368Zm-5.824-2.913a1.245 1.245 0 0 1-.558-.132 1.25 1.25 0 0 1 1.118-2.236 1.25 1.25 0 0 1-.56 2.368Zm-5.819-2.909a1.245 1.245 0 0 1-.558-.132 1.25 1.25 0 1 1 1.118-2.236 1.25 1.25 0 0 1-.56 2.368Zm-5.819-2.909a1.245 1.245 0 0 1-.558-.132 1.25 1.25 0 1 1 1.118-2.236 1.25 1.25 0 0 1-.56 2.368Zm-5.819-2.909a1.245 1.245 0 0 1-.558-.132 1.252 1.252 0 0 1 1.115-2.241 1.25 1.25 0 0 1-.56 2.368Zm-5.819-2.909a1.245 1.245 0 0 1-.558-.132 1.25 1.25 0 1 1 1.118-2.236 1.25 1.25 0 0 1-.56 2.368Zm-5.814-2.908a1.245 1.245 0 0 1-.558-.132 1.25 1.25 0 0 1 1.118-2.236 1.25 1.25 0 0 1-.56 2.368Zm-5.819-2.909a1.245 1.245 0 0 1-.558-.132 1.25 1.25 0 0 1 1.118-2.236 1.25 1.25 0 0 1-.56 2.368Zm-5.819-2.909a1.245 1.245 0 0 1-.558-.132 1.25 1.25 0 0 1 1.118-2.236 1.25 1.25 0 0 1-.56 2.368Zm-5.819-2.909a1.245 1.245 0 0 1-.553-.129 1.25 1.25 0 1 1 1.118-2.236 1.25 1.25 0 0 1-.56 2.368Zm-5.819-2.909a1.245 1.245 0 0 1-.558-.132 1.25 1.25 0 1 1 1.118-2.236 1.25 1.25 0 0 1-.56 2.368Zm-5.819-2.909a1.245 1.245 0 0 1-.558-.132 1.25 1.25 0 0 1 1.118-2.236 1.25 1.25 0 0 1-.56 2.368Zm-5.815-2.911a1.245 1.245 0 0 1-.558-.132 1.25 1.25 0 1 1 1.118-2.236 1.25 1.25 0 0 1-.56 2.368Zm-5.821-2.91a1.245 1.245 0 0 1-.558-.132 1.25 1.25 0 1 1 1.118-2.236 1.25 1.25 0 0 1-.56 2.368Zm-5.819-2.909a1.245 1.245 0 0 1-.558-.132 1.25 1.25 0 0 1 1.113-2.239 1.25 1.25 0 0 1-.56 2.368Zm-5.819-2.91a1.245 1.245 0 0 1-.558-.132 1.251 1.251 0 1 1 1.117-2.239 1.25 1.25 0 0 1-.56 2.368ZM7.073 9.997a1.245 1.245 0 0 1-.558-.132 1.25 1.25 0 1 1 1.113-2.239 1.25 1.25 0 0 1-.56 2.368ZM1.25 7.088a1.245 1.245 0 0 1-.554-.133 1.25 1.25 0 0 1-.564-1.679 1.25 1.25 0 0 1 1.677-.559 1.25 1.25 0 0 1 .564 1.679 1.25 1.25 0 0 1-1.123.692Z">
      </path>
      <path fill="none" d="M1.25 5.835h238v119h-238z"></path>
    </symbol>
  </defs>
</svg>
