<?xml version="1.0" encoding="utf-8"?>
<svg xmlns="http://www.w3.org/2000/svg">
  <defs>
    <symbol id="email" xmlns="http://www.w3.org/2000/svg" viewBox="0 0 24 24"><path fill="currentColor" d="M12 .02c-6.627 0-12 5.373-12 12s5.373 12 12 12 12-5.373 12-12-5.373-12-12-12zm6.99 6.98l-6.99 5.666-6.991-5.666h13.981zm.01 10h-14v-8.505l7 5.673 7-5.672v8.504z"/></symbol>
    <symbol id="facebook" xmlns="http://www.w3.org/2000/svg" viewBox="0 0 24 24"><path fill="currentColor" d="M12 0c-6.627 0-12 5.373-12 12s5.373 12 12 12 12-5.373 12-12-5.373-12-12-12zm3 8h-1.35c-.538 0-.65.221-.65.778v1.222h2l-.209 2h-1.791v7h-3v-7h-2v-2h2v-2.308c0-1.769.931-2.692 3.029-2.692h1.971v3z"/></symbol>
    <symbol id="instagram" xmlns="http://www.w3.org/2000/svg" viewBox="0 0 24 24"><path fill="currentColor" d="M14.829 6.302c-.738-.034-.96-.04-2.829-.04s-2.09.007-2.828.04c-1.899.087-2.783.986-2.87 2.87-.033.738-.041.959-.041 2.828s.008 2.09.041 2.829c.087 1.879.967 2.783 2.87 2.87.737.033.959.041 2.828.041 1.87 0 2.091-.007 2.829-.041 1.899-.086 2.782-.988 2.87-2.87.033-.738.04-.96.04-2.829s-.007-2.09-.04-2.828c-.088-1.883-.973-2.783-2.87-2.87zm-2.829 9.293c-1.985 0-3.595-1.609-3.595-3.595 0-1.985 1.61-3.594 3.595-3.594s3.595 1.609 3.595 3.594c0 1.985-1.61 3.595-3.595 3.595zm3.737-6.491c-.464 0-.84-.376-.84-.84 0-.464.376-.84.84-.84.464 0 .84.376.84.84 0 .463-.376.84-.84.84zm-1.404 2.896c0 1.289-1.045 2.333-2.333 2.333s-2.333-1.044-2.333-2.333c0-1.289 1.045-2.333 2.333-2.333s2.333 1.044 2.333 2.333zm-2.333-12c-6.627 0-12 5.373-12 12s5.373 12 12 12 12-5.373 12-12-5.373-12-12-12zm6.958 14.886c-.115 2.545-1.532 3.955-4.071 4.072-.747.034-.986.042-2.887.042s-2.139-.008-2.886-.042c-2.544-.117-3.955-1.529-4.072-4.072-.034-.746-.042-.985-.042-2.886 0-1.901.008-2.139.042-2.886.117-2.544 1.529-3.955 4.072-4.071.747-.035.985-.043 2.886-.043s2.14.008 2.887.043c2.545.117 3.957 1.532 4.071 4.071.034.747.042.985.042 2.886 0 1.901-.008 2.14-.042 2.886z"/></symbol>
    <symbol id="youtube" xmlns="http://www.w3.org/2000/svg" viewBox="0 0 24 24"><path fill="currentColor" d="M12 0c-6.627 0-12 5.373-12 12s5.373 12 12 12 12-5.373 12-12-5.373-12-12-12zm4.441 16.892c-2.102.144-6.784.144-8.883 0-2.276-.156-2.541-1.27-2.558-4.892.017-3.629.285-4.736 2.558-4.892 2.099-.144 6.782-.144 8.883 0 2.277.156 2.541 1.27 2.559 4.892-.018 3.629-.285 4.736-2.559 4.892zm-6.441-7.234l4.917 2.338-4.917 2.346v-4.684z"/></symbol>
    <symbol id="web" xmlns="http://www.w3.org/2000/svg" viewBox="0 0 24 24"><path fill="currentColor" fill-rule="nonzero" d="M12 0C5.373 0 0 5.373 0 12s5.373 12 12 12 12-5.373 12-12S18.627 0 12 0Zm1 15.797V13h3a15.569 15.569 0 0 1-.457 3A26.566 26.566 0 0 0 13 15.797Zm2 2.384c-.51 1.47-1.184 2.76-2 3.819v-4c.68.03 1.348.09 2 .181ZM13 11V8.207c.87-.031 1.724-.095 2.553-.207.239.951.39 1.955.447 3h-3Zm0-5V2c.818 1.059 1.493 2.35 2 3.82-.651.091-1.32.15-2 .18Zm3-3a9.174 9.174 0 0 1 3 2.339c-.585.255-1.195.481-1.841.661A18.383 18.383 0 0 0 16 3ZM8.457 16A15.491 15.491 0 0 1 8 13h3v2.797c-.867.031-1.717.093-2.543.203ZM11 18v4c-.816-1.06-1.49-2.35-2-3.819.652-.091 1.32-.15 2-.181Zm-3-7c.057-1.045.207-2.049.447-3 .829.112 1.683.176 2.553.207V11H8Zm1-5.18c.508-1.47 1.183-2.761 2-3.82v4a21.12 21.12 0 0 1-2-.18ZM6.84 6A13.956 13.956 0 0 1 5 5.339 9.183 9.183 0 0 1 8 3c-.452.92-.845 1.92-1.16 3ZM6 7.004A27.343 27.343 0 0 0 5.555 11H2c.15-1.835.668-3.538 1.462-5 .795.4 1.641.741 2.538 1.004ZM6 17.01c-.891.26-1.732.596-2.523.989A12.483 12.483 0 0 1 2 13h3.549A26.96 26.96 0 0 0 6 17.011Zm.842.989c.315 1.08.707 2.08 1.158 3-1.127-.542-2.143-1.34-3-2.34A14.247 14.247 0 0 1 6.842 18Zm10.317 0c.645.18 1.254.406 1.841.66-.858.999-1.874 1.797-3 2.34.45-.92.843-1.92 1.159-3Zm.841-.989c.244-1.278.399-2.621.452-4.011H22c-.15 1.837-.675 3.541-1.477 5A15.228 15.228 0 0 0 18 17.011ZM18.445 11A27.467 27.467 0 0 0 18 7.004 15.104 15.104 0 0 0 20.54 6 12.648 12.648 0 0 1 22 11h-3.555Z"></path></symbol>
  </defs>
</svg>
