<svg xmlns="http://www.w3.org/2000/svg" viewBox="0 0 255.292 122.302"><path fill="#2f52c7" d="M190.823 20.131a1.646 1.646 0 0 1 .934.837 1.3 1.3 0 0 1-.077 1.026 2.172 2.172 0 0 1-.92.99 1.3 1.3 0 0 1-1.261.058.9.9 0 0 1-.557-.59 1.125 1.125 0 0 1 .09-.747 1.83 1.83 0 0 1 .575-.679 2.923 2.923 0 0 1 .873-.453l-.07-.033a2.576 2.576 0 0 0-2.493.3 23.673 23.673 0 0 0-4.727 4.463q-2.96 3.396-7.562 9.512l-.519-.241 1.704-17.68q-3.913 5.375-6.834 8.976t-4.455 4.406a5.425 5.425 0 0 1-1.603.576 2.693 2.693 0 0 1-1.613-.264q-1.414-.66-.842-1.884a2.115 2.115 0 0 1 .916-.981 1.313 1.313 0 0 1 1.255-.046.9.9 0 0 1 .557.59 1.125 1.125 0 0 1-.09.747 1.83 1.83 0 0 1-.575.678 2.923 2.923 0 0 1-.873.454l.07.033a2.542 2.542 0 0 0 2.53-.315 21.794 21.794 0 0 0 4.132-4.126q2.612-3.143 6.357-8.282a6.206 6.206 0 0 0 .636-.994.81.81 0 0 0-.031-.918 4.788 4.788 0 0 0-1.333-.894l.337-.417q.722.423 2.065 1.05 1.087.506 1.941.818l-1.62 15.109q3.122-4.052 5.632-6.912a19.156 19.156 0 0 1 4.205-3.849 3.341 3.341 0 0 1 3.246-.318ZM195.09 39.1l.447.209-1.392 1.447q-1.979 2.03-3.982 1.096a1.72 1.72 0 0 1-.63-.495 1.221 1.221 0 0 1-.275-.702 2.026 2.026 0 0 1 .2-.796 9.931 9.931 0 0 1 1.23-1.778l2.104-2.605a18.71 18.71 0 0 1-4.902 3.561 4.173 4.173 0 0 1-3.5.123q-1.98-.923-1.134-2.736a6.2 6.2 0 0 1 1.143-1.59l5.494-5.814a3.318 3.318 0 0 0 .595-.784q.275-.59-.29-.853a1.332 1.332 0 0 0-1.154.107 7.22 7.22 0 0 0-1.78 1.451l-.713.73-.448-.21 1.392-1.447q1.98-2.031 3.983-1.098 1.65.77.969 2.23a6.759 6.759 0 0 1-1.235 1.663l-5.38 5.695a4.277 4.277 0 0 0-.786 1.069q-.373.8.38 1.152.92.429 2.66-.41a18.913 18.913 0 0 0 3.941-2.737 38.782 38.782 0 0 0 4.413-4.54l.82-1.023a8.171 8.171 0 0 0 2.299.67l-7.79 9.076a4.32 4.32 0 0 0-.593.837q-.254.544.241.775a1.352 1.352 0 0 0 1.213-.106 7.337 7.337 0 0 0 1.746-1.438Zm14.931-3.537a1.511 1.511 0 0 1 .838.85 1.443 1.443 0 0 1-.074 1.142 1.805 1.805 0 0 1-1.055.97 1.746 1.746 0 0 1-1.385-.043 1.113 1.113 0 0 1-.58-.542.862.862 0 0 1 .033-.746 1.642 1.642 0 0 1 .711-.787 2.056 2.056 0 0 1 1.052-.226.386.386 0 0 0-.217-.212q-1.268-.591-4.048 1.454a41.33 41.33 0 0 0-6.195 5.933l-1.338 1.638-2.05-.956 7.542-8.79a3.4 3.4 0 0 0 .593-.842q.254-.544-.241-.775a1.352 1.352 0 0 0-1.213.11 7.337 7.337 0 0 0-1.746 1.437l-.713.729-.447-.209 1.392-1.447q1.98-2.032 3.983-1.098a1.322 1.322 0 0 1 .704 1.997 9.308 9.308 0 0 1-1.231 1.778l-2.139 2.618a21.089 21.089 0 0 1 4.65-3.727 3.516 3.516 0 0 1 3.174-.256Zm18.672 1.425a2.854 2.854 0 0 1 1.418 1.235 1.614 1.614 0 0 1 .04 1.482 1.8 1.8 0 0 1-.981.905 1.605 1.605 0 0 1-1.356-.016 1.2 1.2 0 0 1-.608-.541.73.73 0 0 1 .04-.7 1.574 1.574 0 0 1 .818-.808 2.31 2.31 0 0 1 1.258-.145q.099-.212-.137-.537a1.715 1.715 0 0 0-.683-.534 2.21 2.21 0 0 0-1.653-.025 3.675 3.675 0 0 0-1.49 1.041q-.785.824-2.17 2.502l-.732.893-.01.023 2.779 1.296-.361.406-2.777-1.295-11.556 13.77a8.5 8.5 0 0 0-2.275-.659l11.783-14.07-2.121-.99.36-.405 2.122.989.01-.024a22.773 22.773 0 0 1 2.54-2.646 7.071 7.071 0 0 1 2.249-1.346 4.342 4.342 0 0 1 1.732-.24 4.725 4.725 0 0 1 1.763.435Zm3.32 19.334.447.209-1.392 1.447q-1.977 2.026-3.98 1.092a1.72 1.72 0 0 1-.63-.494 1.221 1.221 0 0 1-.275-.702 2.025 2.025 0 0 1 .2-.797 9.931 9.931 0 0 1 1.23-1.778l2.104-2.605a18.71 18.71 0 0 1-4.903 3.562 4.173 4.173 0 0 1-3.5.122q-1.979-.923-1.133-2.735a6.2 6.2 0 0 1 1.143-1.59l5.494-5.815a3.318 3.318 0 0 0 .595-.784q.275-.59-.29-.853a1.332 1.332 0 0 0-1.154.108 7.22 7.22 0 0 0-1.78 1.45l-.713.73-.448-.21 1.392-1.447q1.98-2.031 3.983-1.097 1.65.769.968 2.23a6.759 6.759 0 0 1-1.234 1.662l-5.38 5.696a4.277 4.277 0 0 0-.786 1.068q-.374.801.38 1.153.92.428 2.659-.41a18.913 18.913 0 0 0 3.942-2.738 38.782 38.782 0 0 0 4.412-4.54l.822-1.023a8.171 8.171 0 0 0 2.298.67l-7.79 9.076a4.32 4.32 0 0 0-.592.839q-.253.543.242.774a1.352 1.352 0 0 0 1.212-.109 7.337 7.337 0 0 0 1.746-1.437Zm-1.517-15.51a1.615 1.615 0 0 1 .972-.824 1.667 1.667 0 0 1 1.32.028 1.255 1.255 0 0 1 .678.732 1.255 1.255 0 0 1-.049.996 1.659 1.659 0 0 1-.97.852 1.653 1.653 0 0 1-1.334-.033 1.244 1.244 0 0 1-.689-.737 1.311 1.311 0 0 1 .073-1.018Zm4.995 2.33a1.615 1.615 0 0 1 .972-.824 1.667 1.667 0 0 1 1.321.028 1.255 1.255 0 0 1 .677.732 1.255 1.255 0 0 1-.048.995 1.659 1.659 0 0 1-.971.853 1.653 1.653 0 0 1-1.333-.034 1.244 1.244 0 0 1-.689-.737 1.311 1.311 0 0 1 .073-1.017Zm11.454 9.643a1.511 1.511 0 0 1 .837.85 1.443 1.443 0 0 1-.074 1.142 1.805 1.805 0 0 1-1.053.967 1.746 1.746 0 0 1-1.385-.044 1.113 1.113 0 0 1-.58-.542.862.862 0 0 1 .033-.745 1.642 1.642 0 0 1 .71-.788 2.056 2.056 0 0 1 1.053-.226.386.386 0 0 0-.217-.211q-1.269-.592-4.049 1.454a41.329 41.329 0 0 0-6.193 5.929l-1.339 1.642-2.05-.956 7.541-8.79a3.4 3.4 0 0 0 .594-.843q.254-.544-.241-.774a1.352 1.352 0 0 0-1.213.108 7.337 7.337 0 0 0-1.746 1.438l-.713.73-.451-.211 1.392-1.448q1.98-2.031 3.983-1.097a1.322 1.322 0 0 1 .708 1.998 9.308 9.308 0 0 1-1.231 1.779l-2.139 2.617a21.089 21.089 0 0 1 4.65-3.727 3.516 3.516 0 0 1 3.174-.255Z" data-name="Path 1067"/><path fill="#2f52c7" d="M96.021 19.1a5.4 5.4 0 0 1 2.331 2.721 3.981 3.981 0 0 1-.258 2.92 4.315 4.315 0 0 1-2.281 2.247 6.9 6.9 0 0 1-3.414.46 11.2 11.2 0 0 1-3.645-1.008l-1.71-.827q-1.393-.706-2.312-1.135-1.885-.879-2.907-1.27l.31-.429a5.751 5.751 0 0 0 1.357.404 1.357 1.357 0 0 0 .925-.231 5.608 5.608 0 0 0 1.087-1.07l8.562-10.242a5.127 5.127 0 0 0 .716-1.043.8.8 0 0 0-.034-.819 2.949 2.949 0 0 0-1.127-.813l.338-.416q.91.51 2.77 1.378 1.061.495 1.614.724l1.733.78a6.259 6.259 0 0 1 2.937 2.344 2.84 2.84 0 0 1 .087 2.737 4.223 4.223 0 0 1-2.776 2.292 10.187 10.187 0 0 1-4.303.295Zm-3.677-1.773 1.555.725a5.085 5.085 0 0 0 2.735.503 4.895 4.895 0 0 0 2.417-.938 5.192 5.192 0 0 0 1.643-2.017 3.289 3.289 0 0 0 .349-2.347 2.755 2.755 0 0 0-1.62-1.573 2.693 2.693 0 0 0-1.614-.351 2.723 2.723 0 0 0-1.31 1.024Zm-4.35 8.098q2.99 1.395 4.901.809a5.038 5.038 0 0 0 3.008-2.944q1.462-3.134-1.908-4.705l-1.932-.901-4.36 5.225a6.481 6.481 0 0 0-.75 1.056.725.725 0 0 0 .033.76 2.533 2.533 0 0 0 1.008.699Zm24.381-1.224a4.481 4.481 0 0 1-3.704 2.346 21.682 21.682 0 0 1-5.99.047 11.725 11.725 0 0 0-1.324 2.165q-1.057 2.266.57 3.024 2.026.945 4.723-.666l.29.365a7.97 7.97 0 0 1-3.077 1.276 5 5 0 0 1-3.127-.33 3.354 3.354 0 0 1-1.89-1.914 3.763 3.763 0 0 1 .329-2.858 10.739 10.739 0 0 1 2.935-3.551 12.721 12.721 0 0 1 4.625-2.505 6.366 6.366 0 0 1 4.625.234 2.119 2.119 0 0 1 1.062.983 1.544 1.544 0 0 1-.047 1.384Zm-1.749-2.164a2.888 2.888 0 0 0-2.097.098 10.741 10.741 0 0 0-2.837 1.531 14.4 14.4 0 0 0-2.684 2.536 13.558 13.558 0 0 0 3.907-.01 5.268 5.268 0 0 0 2.134-1.028 5.182 5.182 0 0 0 1.466-1.884 2.716 2.716 0 0 0 .305-.89.335.335 0 0 0-.19-.352Zm16.067 10.332a9.5 9.5 0 0 1-.735 2.067 12.769 12.769 0 0 1-2.371 3.456 8.019 8.019 0 0 1-3.355 2.15 5.057 5.057 0 0 1-3.803-.295 2.716 2.716 0 0 1-1.827-2.603 5.385 5.385 0 0 1-3.922-.078 3.178 3.178 0 0 1-1.858-1.8 3 3 0 0 1 .188-2.25 7.713 7.713 0 0 1 4.005-3.428 31.728 31.728 0 0 1 6.854-2.21 5.691 5.691 0 0 0-.698.076q-.846.093-1.306.094a1.846 1.846 0 0 1-.791-.149 1.025 1.025 0 0 1-.44-.377q-.159-.246-.196-.292a1.516 1.516 0 0 0-.575-.613.874.874 0 0 0-.782.023 4.042 4.042 0 0 0-1.052.9l-.69.74-.447-.208 1.347-1.468a5.075 5.075 0 0 1 1.846-1.406 1.882 1.882 0 0 1 1.467.022 1.27 1.27 0 0 1 .469.348 4.761 4.761 0 0 1 .384.595q.244.4.413.623a1.24 1.24 0 0 0 .475.365 3.025 3.025 0 0 0 1.096.296 3.258 3.258 0 0 0 1.13-.147l.539-.294.385.466a30.084 30.084 0 0 0-6.928 2.737 9.521 9.521 0 0 0-4.13 4.242 3.346 3.346 0 0 0-.428 1.78 1.2 1.2 0 0 0 .735.945 3.236 3.236 0 0 0 1.346.283 4.825 4.825 0 0 0 1.609-.282 6.3 6.3 0 0 1 .483-1.468 7.035 7.035 0 0 1 1.797-2.346 7.831 7.831 0 0 1 2.38-1.472 2.47 2.47 0 0 1 1.857-.138.719.719 0 0 1 .417.797 3.785 3.785 0 0 1-.357 1.239 6.038 6.038 0 0 1-1.881 2.25 7.966 7.966 0 0 1-3.115 1.387 2.154 2.154 0 0 0 1.156 2.434 3.668 3.668 0 0 0 3.095.038 8.138 8.138 0 0 0 2.897-2.121 12.427 12.427 0 0 0 2.057-3.057 6.564 6.564 0 0 0 .56-1.632 4.047 4.047 0 0 1-1.217-1.414 1.851 1.851 0 0 1-.041-1.726 1.24 1.24 0 0 1 .69-.711 1.071 1.071 0 0 1 .827.041 1.372 1.372 0 0 1 .736 1.261 7.347 7.347 0 0 1-.291 2.332Zm-5.94-.673q-.4-.187-1.158.206a6.083 6.083 0 0 0-1.531 1.193 6.448 6.448 0 0 0-1.22 1.767 6.888 6.888 0 0 0-.538 1.585 7.082 7.082 0 0 0 2.645-1.304 5.872 5.872 0 0 0 1.736-2.132q.516-1.108.07-1.316Zm5.055 7.922a12.258 12.258 0 0 1 2.688-3.61 10.711 10.711 0 0 1 4.06-2.495 5.61 5.61 0 0 1 4.293.209 3.382 3.382 0 0 1 1.934 2.035 4.359 4.359 0 0 1-.431 3.17 12.258 12.258 0 0 1-2.687 3.61 10.711 10.711 0 0 1-4.061 2.495 5.61 5.61 0 0 1-4.288-.209 3.382 3.382 0 0 1-1.934-2.035 4.359 4.359 0 0 1 .43-3.17Zm10.68-5.49a3.223 3.223 0 0 0-2.989.47 13.917 13.917 0 0 0-3.507 3.027 17.942 17.942 0 0 0-2.708 4.116 3.159 3.159 0 0 0-.39 1.711 1.25 1.25 0 0 0 .782.968 3.223 3.223 0 0 0 2.988-.472 13.916 13.916 0 0 0 3.508-3.026 17.942 17.942 0 0 0 2.708-4.116 3.159 3.159 0 0 0 .396-1.709 1.25 1.25 0 0 0-.78-.968Zm11.984 15.518-1.392 1.447q-1.973 2.026-3.976 1.092-1.65-.769-.968-2.23a6.76 6.76 0 0 1 1.234-1.662l5.38-5.696a3.922 3.922 0 0 0 .786-1.068q.374-.801-.38-1.153a3.009 3.009 0 0 0-2.385.222 15.622 15.622 0 0 0-3.448 2.136 36.5 36.5 0 0 0-4.028 3.716l-2.211 2.526-2.05-.956 11.995-13.541a2.65 2.65 0 0 0 .413-.58.829.829 0 0 0-.053-.87 2.842 2.842 0 0 0-1.144-.807l.372-.429a10.133 10.133 0 0 0 4.692 1.012l-8.869 10.098a15.19 15.19 0 0 1 4.474-2.949 4.291 4.291 0 0 1 3.368.036q1.909.89 1.074 2.681a6.052 6.052 0 0 1-1.178 1.603l-5.494 5.814a3.345 3.345 0 0 0-.606.808.552.552 0 0 0 .302.83 1.332 1.332 0 0 0 1.153-.108 7.22 7.22 0 0 0 1.78-1.451l.713-.73Zm13.667 6.373-1.392 1.447q-1.973 2.026-3.976 1.092a1.772 1.772 0 0 1-1.166-1.375 1.532 1.532 0 0 1 .174-.866 7.037 7.037 0 0 1 1.258-1.651l5.381-5.696a4.927 4.927 0 0 0 .774-1.044q.385-.825-.37-1.177a3.369 3.369 0 0 0-2.648.358 17.979 17.979 0 0 0-3.926 2.544 35.093 35.093 0 0 0-4.27 4.176l-1.228 1.524-2.05-.956 7.542-8.79a4.318 4.318 0 0 0 .571-.795q.275-.59-.244-.83a1.27 1.27 0 0 0-1.16.089 8.337 8.337 0 0 0-1.775 1.468l-.713.729-.447-.21 1.392-1.446q1.98-2.032 3.936-1.12a1.5 1.5 0 0 1 .903.862 1.667 1.667 0 0 1-.16 1.174 9.286 9.286 0 0 1-1.22 1.755l-2.33 2.843a19.907 19.907 0 0 1 5.238-3.696 4.506 4.506 0 0 1 3.72-.073q1.909.89 1.085 2.658a6.105 6.105 0 0 1-1.189 1.626l-5.495 5.817a3.345 3.345 0 0 0-.606.808.552.552 0 0 0 .301.829 1.332 1.332 0 0 0 1.154-.108 7.219 7.219 0 0 0 1.78-1.45l.713-.73Zm14.277-1.949a4.481 4.481 0 0 1-3.698 2.343 21.682 21.682 0 0 1-5.99.047 11.726 11.726 0 0 0-1.324 2.165q-1.057 2.266.569 3.024 2.027.945 4.724-.666l.29.364a7.97 7.97 0 0 1-3.072 1.275 5 5 0 0 1-3.132-.328 3.354 3.354 0 0 1-1.89-1.914 3.763 3.763 0 0 1 .329-2.859 10.739 10.739 0 0 1 2.933-3.552 12.721 12.721 0 0 1 4.626-2.504 6.366 6.366 0 0 1 4.625.234 2.119 2.119 0 0 1 1.062.983 1.544 1.544 0 0 1-.046 1.384Zm-1.749-2.164a2.888 2.888 0 0 0-2.097.098 10.74 10.74 0 0 0-2.837 1.532 14.4 14.4 0 0 0-2.678 2.531 13.558 13.558 0 0 0 3.903-.012 5.268 5.268 0 0 0 2.134-1.027 5.182 5.182 0 0 0 1.467-1.884 2.716 2.716 0 0 0 .304-.89.335.335 0 0 0-.186-.35Zm12.081 5.089a1.511 1.511 0 0 1 .838.85 1.443 1.443 0 0 1-.074 1.141 1.805 1.805 0 0 1-1.055.971 1.746 1.746 0 0 1-1.385-.043 1.113 1.113 0 0 1-.58-.543.862.862 0 0 1 .033-.745 1.642 1.642 0 0 1 .711-.787 2.056 2.056 0 0 1 1.052-.227.386.386 0 0 0-.217-.211q-1.268-.592-4.048 1.454a41.329 41.329 0 0 0-6.195 5.933l-1.32 1.64-2.05-.957 7.54-8.79a3.4 3.4 0 0 0 .594-.842q.254-.544-.241-.775a1.352 1.352 0 0 0-1.213.109 7.338 7.338 0 0 0-1.746 1.438l-.713.729-.448-.21 1.393-1.446q1.98-2.032 3.983-1.098a1.322 1.322 0 0 1 .705 1.993 9.307 9.307 0 0 1-1.23 1.778l-2.139 2.618a21.089 21.089 0 0 1 4.65-3.727 3.516 3.516 0 0 1 3.169-.254Zm2.619 3.428a1.957 1.957 0 0 1 1.118-1.014 1.807 1.807 0 0 1 1.472.012 1.254 1.254 0 0 1 .707.76 1.357 1.357 0 0 1-.077 1.026 1.893 1.893 0 0 1-1.126.995 1.866 1.866 0 0 1-1.479-.027 1.244 1.244 0 0 1-.689-.738 1.311 1.311 0 0 1 .087-1.013Zm-6.905 8.656a1.957 1.957 0 0 1 1.118-1.013 1.807 1.807 0 0 1 1.471.012 1.254 1.254 0 0 1 .707.76 1.357 1.357 0 0 1-.076 1.026 1.893 1.893 0 0 1-1.126.995 1.866 1.866 0 0 1-1.48-.028 1.244 1.244 0 0 1-.688-.737 1.311 1.311 0 0 1 .086-1.013Zm17.703-10.281a1.957 1.957 0 0 1 1.118-1.014 1.807 1.807 0 0 1 1.472.013 1.254 1.254 0 0 1 .707.76 1.357 1.357 0 0 1-.076 1.025 1.893 1.893 0 0 1-1.127.996 1.866 1.866 0 0 1-1.478-.028 1.244 1.244 0 0 1-.69-.737 1.311 1.311 0 0 1 .085-1.01Zm-3.496 5.652a3.318 3.318 0 0 0 .595-.784q.275-.59-.243-.83a1.331 1.331 0 0 0-1.23.114 8.446 8.446 0 0 0-1.753 1.42l-.736.719-.448-.21 1.416-1.435a4.051 4.051 0 0 1 2.14-1.298 3.187 3.187 0 0 1 1.914.231q1.555.725.863 2.21a5.985 5.985 0 0 1-1.222 1.637l-5.848 5.976a3.318 3.318 0 0 0-.595.784q-.275.59.291.853a1.307 1.307 0 0 0 1.173-.115 8.247 8.247 0 0 0 1.79-1.43l.736-.718.448.21-1.416 1.435a4.292 4.292 0 0 1-2.104 1.283 3.023 3.023 0 0 1-1.925-.209q-1.65-.769-.98-2.206a6.516 6.516 0 0 1 1.293-1.664Zm12.948 13.697-1.392 1.448q-1.97 2.038-3.973 1.104a1.772 1.772 0 0 1-1.165-1.375 1.532 1.532 0 0 1 .174-.866 7.037 7.037 0 0 1 1.257-1.651l5.381-5.696a4.927 4.927 0 0 0 .775-1.044q.384-.825-.37-1.177a3.369 3.369 0 0 0-2.648.358 17.979 17.979 0 0 0-3.926 2.544 35.093 35.093 0 0 0-4.27 4.174l-1.228 1.524-2.05-.956 7.542-8.79a4.318 4.318 0 0 0 .571-.795q.275-.589-.243-.83a1.27 1.27 0 0 0-1.161.09 8.337 8.337 0 0 0-1.774 1.467l-.713.729-.448-.209 1.392-1.447q1.98-2.032 3.936-1.12a1.5 1.5 0 0 1 .903.863 1.667 1.667 0 0 1-.16 1.173 9.286 9.286 0 0 1-1.22 1.755l-2.33 2.844a19.907 19.907 0 0 1 5.235-3.693 4.506 4.506 0 0 1 3.72-.073q1.91.89 1.085 2.658a6.105 6.105 0 0 1-1.189 1.626l-5.493 5.815a3.344 3.344 0 0 0-.606.808.552.552 0 0 0 .302.829 1.332 1.332 0 0 0 1.153-.108 7.22 7.22 0 0 0 1.78-1.45l.713-.73Zm13.668 6.374-1.392 1.447q-1.97 2.038-3.973 1.104a1.772 1.772 0 0 1-1.166-1.375 1.532 1.532 0 0 1 .174-.866 7.037 7.037 0 0 1 1.257-1.651l5.382-5.695a4.927 4.927 0 0 0 .777-1.044q.385-.824-.37-1.176a3.369 3.369 0 0 0-2.647.357 17.979 17.979 0 0 0-3.926 2.545 35.093 35.093 0 0 0-4.274 4.172l-1.227 1.524-2.047-.954 7.542-8.79a4.318 4.318 0 0 0 .571-.795q.275-.59-.243-.831a1.27 1.27 0 0 0-1.161.09 8.337 8.337 0 0 0-1.775 1.467l-.713.73-.447-.21 1.392-1.447q1.98-2.031 3.936-1.12a1.5 1.5 0 0 1 .903.863 1.667 1.667 0 0 1-.16 1.174 9.286 9.286 0 0 1-1.22 1.755l-2.33 2.843a19.907 19.907 0 0 1 5.238-3.696 4.506 4.506 0 0 1 3.72-.073q1.909.89 1.085 2.657a6.105 6.105 0 0 1-1.189 1.626l-5.5 5.818a3.345 3.345 0 0 0-.606.808.552.552 0 0 0 .302.829 1.332 1.332 0 0 0 1.154-.108 7.22 7.22 0 0 0 1.78-1.45l.712-.73Zm14.277-1.95a4.481 4.481 0 0 1-3.696 2.356 21.682 21.682 0 0 1-5.989.047 11.726 11.726 0 0 0-1.325 2.165q-1.056 2.266.57 3.024 2.026.945 4.724-.666l.289.364a7.97 7.97 0 0 1-3.072 1.275 5 5 0 0 1-3.132-.328 3.354 3.354 0 0 1-1.89-1.914 3.763 3.763 0 0 1 .33-2.859 10.739 10.739 0 0 1 2.932-3.552 12.72 12.72 0 0 1 4.625-2.505 6.366 6.366 0 0 1 4.625.234 2.119 2.119 0 0 1 1.062.983 1.544 1.544 0 0 1-.044 1.386Zm-1.75-2.163a2.888 2.888 0 0 0-2.096.098 10.74 10.74 0 0 0-2.827 1.54 14.4 14.4 0 0 0-2.685 2.535 13.558 13.558 0 0 0 3.906-.01 5.268 5.268 0 0 0 2.13-1.03 5.182 5.182 0 0 0 1.466-1.883 2.716 2.716 0 0 0 .305-.895.335.335 0 0 0-.186-.345Zm11.258 15.208-1.392 1.448q-1.98 2.03-3.986 1.094a1.772 1.772 0 0 1-1.162-1.374 1.532 1.532 0 0 1 .174-.866 7.037 7.037 0 0 1 1.257-1.651l5.382-5.696a4.927 4.927 0 0 0 .774-1.044q.384-.825-.37-1.177a3.369 3.369 0 0 0-2.648.358 17.978 17.978 0 0 0-3.926 2.544 35.093 35.093 0 0 0-4.27 4.174l-1.227 1.524-2.05-.956 7.541-8.79a4.318 4.318 0 0 0 .572-.795q.274-.589-.244-.83a1.27 1.27 0 0 0-1.16.09 8.337 8.337 0 0 0-1.775 1.467l-.713.729-.448-.209 1.392-1.447q1.98-2.032 3.936-1.12a1.5 1.5 0 0 1 .903.863 1.667 1.667 0 0 1-.165 1.176 9.286 9.286 0 0 1-1.22 1.755l-2.33 2.843a19.907 19.907 0 0 1 5.241-3.695 4.506 4.506 0 0 1 3.72-.072q1.91.89 1.085 2.657a6.105 6.105 0 0 1-1.19 1.628l-5.493 5.813a3.345 3.345 0 0 0-.606.808.552.552 0 0 0 .303.827 1.332 1.332 0 0 0 1.153-.107 7.22 7.22 0 0 0 1.78-1.451l.713-.73Z" data-name="Path 1068"/><path fill="#2f52c7" d="M253.812 35.853a1.245 1.245 0 0 1-.531-.119 1.25 1.25 0 0 1 1.064-2.262 1.25 1.25 0 0 1-.533 2.382Zm-5.89-2.765a1.245 1.245 0 0 1-.531-.119 1.25 1.25 0 1 1 1.064-2.262 1.25 1.25 0 0 1-.533 2.382Zm-5.887-2.768a1.245 1.245 0 0 1-.531-.119 1.25 1.25 0 0 1 1.064-2.262h.005a1.25 1.25 0 0 1-.533 2.382Zm-5.887-2.768a1.245 1.245 0 0 1-.531-.119 1.25 1.25 0 1 1 1.064-2.262 1.25 1.25 0 0 1-.533 2.382Zm-5.887-2.768a1.245 1.245 0 0 1-.531-.119 1.25 1.25 0 0 1 1.064-2.262 1.25 1.25 0 0 1-.533 2.382Zm-5.887-2.768a1.245 1.245 0 0 1-.531-.119 1.25 1.25 0 1 1 1.064-2.262h.005a1.25 1.25 0 0 1-.533 2.382Zm-5.887-2.768a1.245 1.245 0 0 1-.531-.119 1.25 1.25 0 1 1 1.064-2.262 1.25 1.25 0 0 1-.533 2.382ZM212.6 16.48a1.245 1.245 0 0 1-.531-.119h-.005a1.25 1.25 0 0 1 1.064-2.262 1.25 1.25 0 0 1-.533 2.382Zm-5.888-2.769a1.245 1.245 0 0 1-.531-.119 1.25 1.25 0 1 1 1.064-2.262 1.25 1.25 0 0 1-.533 2.382Zm-5.887-2.768a1.245 1.245 0 0 1-.531-.119 1.25 1.25 0 1 1 1.064-2.262 1.25 1.25 0 0 1-.533 2.382Zm-5.887-2.768a1.245 1.245 0 0 1-.531-.119h-.005a1.25 1.25 0 1 1 1.064-2.262 1.25 1.25 0 0 1-.533 2.382Zm-5.887-2.768a1.245 1.245 0 0 1-.531-.119 1.25 1.25 0 1 1 1.064-2.262 1.25 1.25 0 0 1-.533 2.382Zm-5.887-2.768a1.245 1.245 0 0 1-.531-.119c-.625-.294-.6-1.663-.6-1.663s1.038-.893 1.663-.6a1.25 1.25 0 0 1-.533 2.382Z" data-name="Line 125"/><path fill="#2f52c7" d="M254.041 122.301a1.245 1.245 0 0 1-.534-.121 1.25 1.25 0 1 1 1.071-2.259 1.25 1.25 0 0 1-.536 2.38Zm-5.879-2.786a1.245 1.245 0 0 1-.534-.121h-.005a1.25 1.25 0 1 1 1.071-2.259 1.25 1.25 0 0 1-.536 2.38Zm-5.879-2.786a1.245 1.245 0 0 1-.534-.121 1.25 1.25 0 0 1 1.071-2.259 1.25 1.25 0 0 1-.536 2.38Zm-5.879-2.786a1.245 1.245 0 0 1-.534-.121h-.005a1.25 1.25 0 0 1 1.071-2.259h.005a1.25 1.25 0 0 1-.536 2.38Zm-5.879-2.786a1.245 1.245 0 0 1-.534-.121 1.25 1.25 0 1 1 1.071-2.259 1.25 1.25 0 0 1-.536 2.38Zm-5.879-2.786a1.245 1.245 0 0 1-.534-.121 1.25 1.25 0 1 1 1.071-2.259 1.25 1.25 0 0 1-.536 2.38Zm-5.879-2.786a1.245 1.245 0 0 1-.534-.121 1.25 1.25 0 1 1 1.071-2.259 1.25 1.25 0 0 1-.536 2.38Zm-5.879-2.786a1.245 1.245 0 0 1-.534-.121 1.25 1.25 0 1 1 1.071-2.259 1.25 1.25 0 0 1-.536 2.38Zm-5.879-2.786a1.245 1.245 0 0 1-.534-.121h-.005a1.25 1.25 0 0 1 1.071-2.259h.005a1.25 1.25 0 0 1-.536 2.38Zm-5.879-2.786a1.245 1.245 0 0 1-.534-.121 1.25 1.25 0 1 1 1.071-2.259 1.25 1.25 0 0 1-.536 2.38Zm-5.879-2.786a1.245 1.245 0 0 1-.534-.121h-.005a1.25 1.25 0 0 1 1.071-2.259h.005a1.25 1.25 0 0 1-.536 2.38Zm-5.879-2.786a1.245 1.245 0 0 1-.534-.121 1.25 1.25 0 1 1 1.071-2.259 1.25 1.25 0 0 1-.536 2.38Zm-5.879-2.786a1.245 1.245 0 0 1-.534-.121h-.005a1.25 1.25 0 0 1 1.071-2.259 1.25 1.25 0 0 1-.536 2.38Zm-5.879-2.786a1.245 1.245 0 0 1-.534-.121 1.25 1.25 0 1 1 1.071-2.259 1.25 1.25 0 0 1-.536 2.38Zm-5.879-2.786a1.245 1.245 0 0 1-.534-.121h-.005a1.25 1.25 0 0 1 1.071-2.259h.005a1.25 1.25 0 0 1-.536 2.38Zm-5.879-2.786a1.245 1.245 0 0 1-.535-.121 1.25 1.25 0 0 1 1.071-2.259 1.25 1.25 0 0 1-.536 2.38Zm-5.879-2.786a1.245 1.245 0 0 1-.534-.121 1.25 1.25 0 1 1 1.071-2.259 1.25 1.25 0 0 1-.536 2.38Zm-5.879-2.786a1.245 1.245 0 0 1-.534-.121 1.25 1.25 0 0 1 1.071-2.259 1.25 1.25 0 0 1-.536 2.38Zm-5.879-2.786a1.245 1.245 0 0 1-.534-.121 1.25 1.25 0 1 1 1.071-2.259 1.25 1.25 0 0 1-.536 2.38Zm-5.879-2.786a1.245 1.245 0 0 1-.534-.121h-.005a1.25 1.25 0 0 1 1.071-2.259h.005a1.25 1.25 0 0 1-.536 2.38Zm-5.879-2.786a1.245 1.245 0 0 1-.534-.121 1.25 1.25 0 1 1 1.071-2.259 1.25 1.25 0 0 1-.536 2.38Zm-5.879-2.786a1.245 1.245 0 0 1-.534-.121 1.25 1.25 0 0 1 1.071-2.259 1.25 1.25 0 0 1-.536 2.38Zm-5.879-2.786a1.245 1.245 0 0 1-.534-.121 1.25 1.25 0 1 1 1.071-2.259 1.25 1.25 0 0 1-.536 2.38Zm-5.879-2.786a1.245 1.245 0 0 1-.534-.121h-.005a1.25 1.25 0 0 1 1.071-2.259h.005a1.25 1.25 0 0 1-.536 2.38Zm-5.879-2.786a1.245 1.245 0 0 1-.535-.121 1.25 1.25 0 0 1 1.071-2.259 1.25 1.25 0 0 1-.536 2.38Zm-5.879-2.786a1.245 1.245 0 0 1-.534-.121 1.25 1.25 0 1 1 1.071-2.259 1.25 1.25 0 0 1-.536 2.38Zm-5.879-2.786a1.245 1.245 0 0 1-.534-.121 1.25 1.25 0 1 1 1.071-2.259 1.25 1.25 0 0 1-.536 2.38Zm-5.875-2.786a1.245 1.245 0 0 1-.534-.121 1.25 1.25 0 1 1 1.071-2.259 1.25 1.25 0 0 1-.536 2.38Zm-5.876-2.791a1.245 1.245 0 0 1-.534-.121 1.25 1.25 0 0 1 1.071-2.259h.005a1.25 1.25 0 0 1-.536 2.38Zm-5.879-2.786a1.245 1.245 0 0 1-.534-.121 1.25 1.25 0 1 1 1.071-2.259 1.25 1.25 0 0 1-.536 2.38Zm-5.879-2.786a1.245 1.245 0 0 1-.534-.121h-.005a1.25 1.25 0 0 1 1.071-2.259h.005a1.25 1.25 0 0 1-.536 2.38Zm-5.879-2.786a1.245 1.245 0 0 1-.534-.121 1.25 1.25 0 1 1 1.071-2.259 1.25 1.25 0 0 1-.536 2.38Zm-5.879-2.786a1.245 1.245 0 0 1-.534-.121 1.25 1.25 0 0 1 1.071-2.259h.005a1.25 1.25 0 0 1-.536 2.38Zm-5.879-2.786a1.245 1.245 0 0 1-.534-.121 1.25 1.25 0 1 1 1.071-2.259 1.25 1.25 0 0 1-.536 2.38Zm-5.879-2.786a1.245 1.245 0 0 1-.534-.121h-.005a1.25 1.25 0 0 1 1.071-2.259h.005a1.25 1.25 0 0 1-.536 2.38Zm-5.877-2.784a1.245 1.245 0 0 1-.534-.121 1.25 1.25 0 1 1 1.071-2.259 1.25 1.25 0 0 1-.536 2.38Zm-5.879-2.786a1.245 1.245 0 0 1-.534-.114 1.25 1.25 0 1 1 1.071-2.259 1.25 1.25 0 0 1-.536 2.38Zm-5.879-2.786a1.245 1.245 0 0 1-.534-.121 1.25 1.25 0 0 1 1.071-2.259 1.25 1.25 0 0 1-.536 2.38Zm-5.879-2.786a1.245 1.245 0 0 1-.534-.121 1.25 1.25 0 1 1 1.071-2.259 1.25 1.25 0 0 1-.536 2.38Zm-5.879-2.786a1.245 1.245 0 0 1-.534-.121 1.25 1.25 0 0 1 1.071-2.259h.005a1.25 1.25 0 0 1-.536 2.38Zm-5.879-2.786a1.245 1.245 0 0 1-.534-.121 1.25 1.25 0 1 1 1.071-2.259 1.25 1.25 0 0 1-.536 2.38Zm-5.878-2.783a1.245 1.245 0 0 1-.534-.121 1.25 1.25 0 0 1 1.071-2.259 1.25 1.25 0 0 1-.536 2.38ZM7.134 5.288a1.245 1.245 0 0 1-.534-.121 1.25 1.25 0 1 1 1.071-2.259 1.25 1.25 0 0 1-.536 2.38ZM1.255 2.502a1.245 1.245 0 0 1-.534-.121A1.25 1.25 0 0 1 1.792.122a1.25 1.25 0 0 1-.536 2.38Z" data-name="Line 126"/></svg>
