<svg xmlns="http://www.w3.org/2000/svg" viewBox="0 0 242.932 124.835"><path fill="#4d9a70" d="m170.215 40 .544.254-.233.264a5.911 5.911 0 0 1-2.096 1.68 2.488 2.488 0 0 1-2.056-.113 2.218 2.218 0 0 1-1.342-1.429 2.4 2.4 0 0 1 .276-1.822l1.42-2.551q.155-.272.375-.743a3.086 3.086 0 0 0 .36-1.697 2.316 2.316 0 0 0-.916-1.388 12.991 12.991 0 0 0-2.571-1.53l-3.965 4.75a4.65 4.65 0 0 0-.75 1.055.76.76 0 0 0 .034.82 3.371 3.371 0 0 0 1.162.8l-.31.428q-1.055-.578-2.89-1.433-2.073-.967-3.096-1.358l.31-.429a5.751 5.751 0 0 0 1.357.403 1.357 1.357 0 0 0 .925-.23 5.608 5.608 0 0 0 1.088-1.071l8.562-10.241a5.775 5.775 0 0 0 .728-1.009.807.807 0 0 0-.029-.86 3.206 3.206 0 0 0-1.144-.806l.337-.416q.91.51 2.867 1.423 1.132.527 1.708.767l1.755.79a6.423 6.423 0 0 1 3.087 2.515 3.166 3.166 0 0 1 .053 2.994 4.7 4.7 0 0 1-3.234 2.566 10.09 10.09 0 0 1-5.356-.203q.295.167.77.503a4.465 4.465 0 0 1 1.618 1.759 2.61 2.61 0 0 1-.232 2.098 3.931 3.931 0 0 1-.244.46l-1.31 2.322a4.2 4.2 0 0 0-.254.484q-.67 1.437.084 1.789a1.007 1.007 0 0 0 .956-.142 7.369 7.369 0 0 0 1.384-1.176Zm-5.877-9.482.707.33q3.181 1.483 5.255.757a5.442 5.442 0 0 0 3.15-3.035 3 3 0 0 0 .255-2.391 3.58 3.58 0 0 0-1.972-1.737 3.1 3.1 0 0 0-1.192-.336 1.547 1.547 0 0 0-.928.3 5.615 5.615 0 0 0-1.042 1.034Zm21.123 6.809a4.481 4.481 0 0 1-3.704 2.346 21.682 21.682 0 0 1-5.99.047 11.726 11.726 0 0 0-1.324 2.165q-1.057 2.266.569 3.024 2.027.945 4.724-.666l.29.364a7.97 7.97 0 0 1-3.072 1.275 5 5 0 0 1-3.132-.327 3.354 3.354 0 0 1-1.89-1.915 3.763 3.763 0 0 1 .329-2.858 10.739 10.739 0 0 1 2.933-3.553 12.72 12.72 0 0 1 4.625-2.505 6.366 6.366 0 0 1 4.624.234 2.12 2.12 0 0 1 1.062.983 1.544 1.544 0 0 1-.044 1.386Zm-1.749-2.164a2.888 2.888 0 0 0-2.097.098 10.74 10.74 0 0 0-2.837 1.531 14.4 14.4 0 0 0-2.684 2.536 13.558 13.558 0 0 0 3.907-.01 5.268 5.268 0 0 0 2.13-1.034 5.182 5.182 0 0 0 1.466-1.884 2.716 2.716 0 0 0 .305-.89.335.335 0 0 0-.186-.346Zm-.114-2.893q1.436-.68 3.465-1.77a17.663 17.663 0 0 1 2.158-1.06 1.412 1.412 0 0 1 1.207-.067.839.839 0 0 1 .442.406.675.675 0 0 1-.02.536 1.671 1.671 0 0 1-1.017.76 12.073 12.073 0 0 1-2.206.548q-.22.041-1.347.305t-2.547.663Zm-1.352 16.381a2.108 2.108 0 0 0 .383.38 3.529 3.529 0 0 0 .602.338 2.62 2.62 0 0 0 2.018.168 2.617 2.617 0 0 0 1.495-1.483 4.4 4.4 0 0 0 .407-1.606 8.635 8.635 0 0 0-.18-2.077 16.224 16.224 0 0 1-.336-2.323 3.833 3.833 0 0 1 .401-1.807 3.444 3.444 0 0 1 1.303-1.5 3.713 3.713 0 0 1 1.886-.57 4.391 4.391 0 0 1 2.024.427 4.6 4.6 0 0 1 1.836 1.416 1.839 1.839 0 0 1 .083 1.975 1.6 1.6 0 0 1-.657.698 1.011 1.011 0 0 1-1.002.02.985.985 0 0 1-.54-.596 1.083 1.083 0 0 1 .058-.833 2.835 2.835 0 0 1 1.396-1.271 2.406 2.406 0 0 0-1.046-.833 2.156 2.156 0 0 0-1.753-.086 2.5 2.5 0 0 0-1.341 1.369 2.623 2.623 0 0 0-.277 1.147 13.576 13.576 0 0 0 .178 1.647l.139.81a14.861 14.861 0 0 1 .18 2.351 4.352 4.352 0 0 1-.405 1.762 3.768 3.768 0 0 1-1.444 1.65 4.162 4.162 0 0 1-2.101.627 4.851 4.851 0 0 1-2.235-.468 4.6 4.6 0 0 1-1.997-1.634 2.132 2.132 0 0 1-.096-2.183 1.4 1.4 0 0 1 .564-.626.862.862 0 0 1 .85-.005.94.94 0 0 1 .579.786 2.208 2.208 0 0 1-.235 1.182 7.653 7.653 0 0 1-.737 1.148Zm22.302-2.424a4.481 4.481 0 0 1-3.704 2.346 21.682 21.682 0 0 1-5.99.048 11.726 11.726 0 0 0-1.324 2.164q-1.057 2.266.569 3.024 2.026.945 4.724-.666l.289.365a7.97 7.97 0 0 1-3.071 1.274 5 5 0 0 1-3.134-.328 3.354 3.354 0 0 1-1.889-1.913 3.763 3.763 0 0 1 .33-2.86 10.739 10.739 0 0 1 2.933-3.551 12.72 12.72 0 0 1 4.625-2.505 6.366 6.366 0 0 1 4.624.234 2.119 2.119 0 0 1 1.062.983 1.544 1.544 0 0 1-.044 1.385Zm-1.749-2.164a2.888 2.888 0 0 0-2.097.098 10.741 10.741 0 0 0-2.837 1.532 14.4 14.4 0 0 0-2.684 2.535 13.558 13.558 0 0 0 3.906-.01 5.268 5.268 0 0 0 2.13-1.03 5.182 5.182 0 0 0 1.466-1.883 2.716 2.716 0 0 0 .305-.891.335.335 0 0 0-.185-.35Zm12.081 5.089a1.511 1.511 0 0 1 .838.85 1.443 1.443 0 0 1-.074 1.141 1.805 1.805 0 0 1-1.055.971 1.746 1.746 0 0 1-1.385-.043 1.113 1.113 0 0 1-.58-.543.862.862 0 0 1 .033-.745 1.642 1.642 0 0 1 .711-.787 2.056 2.056 0 0 1 1.052-.227.386.386 0 0 0-.217-.211q-1.268-.592-4.048 1.454a41.329 41.329 0 0 0-6.195 5.933l-1.33 1.641-2.047-.954 7.542-8.79a3.4 3.4 0 0 0 .593-.843q.254-.543-.241-.774a1.352 1.352 0 0 0-1.213.109 7.337 7.337 0 0 0-1.746 1.437l-.713.73-.448-.21 1.392-1.447q1.98-2.031 3.983-1.097a1.322 1.322 0 0 1 .701 1.995 9.308 9.308 0 0 1-1.23 1.778l-2.14 2.618a21.089 21.089 0 0 1 4.65-3.728 3.516 3.516 0 0 1 3.175-.255Zm10.263 9.06a3.892 3.892 0 0 1-.768-1.534 2.412 2.412 0 0 1 .165-1.645 1.222 1.222 0 0 1 .725-.724 1.162 1.162 0 0 1 .85.053 1.168 1.168 0 0 1 .694 1.096 4.224 4.224 0 0 1-.483 1.897 7.862 7.862 0 0 1-.487.92 17.549 17.549 0 0 1-3.378 4.022 10.632 10.632 0 0 1-4.187 2.336 6.052 6.052 0 0 1-4.3-.355 2.738 2.738 0 0 1-1.724-1.837 3.365 3.365 0 0 1 .401-2.337 10.785 10.785 0 0 1 3.625-3.56 26.026 26.026 0 0 1 6.017-2.845 9.6 9.6 0 0 0-1.672.08 10.344 10.344 0 0 1-1.283.105 1.99 1.99 0 0 1-.847-.151 1.045 1.045 0 0 1-.43-.373 2.4 2.4 0 0 0-.229-.307 1.5 1.5 0 0 0-.551-.602.839.839 0 0 0-.773.027 4.689 4.689 0 0 0-1.063.896l-.666.75-.448-.208 1.322-1.48q1.78-2.096 3.336-1.37a1.27 1.27 0 0 1 .469.347 4.762 4.762 0 0 1 .384.595 3.818 3.818 0 0 0 .379.607 1.32 1.32 0 0 0 .489.372 3.121 3.121 0 0 0 2.32.192l.444-.338.385.467a24.189 24.189 0 0 0-5.162 3.304 16.016 16.016 0 0 0-3.5 4.192 5.918 5.918 0 0 0-.286.554q-.923 1.98.113 2.463a4.679 4.679 0 0 0 3.777.011 11.54 11.54 0 0 0 3.802-2.43 12.43 12.43 0 0 0 2.547-3.187Zm12.105 3.263a4.481 4.481 0 0 1-3.694 2.351 21.682 21.682 0 0 1-5.993.046 11.726 11.726 0 0 0-1.326 2.164q-1.057 2.266.569 3.024 2.026.945 4.724-.666l.29.364a7.97 7.97 0 0 1-3.07 1.276 5 5 0 0 1-3.133-.328 3.354 3.354 0 0 1-1.89-1.914 3.763 3.763 0 0 1 .33-2.859 10.739 10.739 0 0 1 2.932-3.552 12.721 12.721 0 0 1 4.625-2.505 6.366 6.366 0 0 1 4.625.234 2.119 2.119 0 0 1 1.062.983 1.544 1.544 0 0 1-.044 1.386Zm-1.75-2.164a2.888 2.888 0 0 0-2.096.098 10.74 10.74 0 0 0-2.826 1.537 14.4 14.4 0 0 0-2.688 2.533 13.558 13.558 0 0 0 3.906-.01 5.268 5.268 0 0 0 2.134-1.027 5.182 5.182 0 0 0 1.467-1.884 2.716 2.716 0 0 0 .305-.89.335.335 0 0 0-.19-.352Zm-.102-2.888q1.435-.679 3.464-1.77a17.664 17.664 0 0 1 2.158-1.059 1.412 1.412 0 0 1 1.208-.068.839.839 0 0 1 .441.407.675.675 0 0 1-.02.535 1.671 1.671 0 0 1-1.016.76 12.073 12.073 0 0 1-2.204.546q-.22.041-1.346.305t-2.549.666Z" data-name="Path 1064"/><path fill="#4d9a70" d="m88.107 32.785.447.21-1.392 1.446a4.544 4.544 0 0 1-2.074 1.312 2.658 2.658 0 0 1-1.778-.126 1.9 1.9 0 0 1-.7-.528 1.45 1.45 0 0 1-.31-.69 1.735 1.735 0 0 1 .173-.923 4.746 4.746 0 0 1 .681-1.03q.45-.536.575-.68l1.215-1.498a14.023 14.023 0 0 1-4.083 2.758 3.774 3.774 0 0 1-2.994.052 2.11 2.11 0 0 1-1.287-1.546 3.807 3.807 0 0 1 .402-2.338 12.069 12.069 0 0 1 3.002-3.792 14.212 14.212 0 0 1 4.507-2.776 5.181 5.181 0 0 1 4.068-.11 1.432 1.432 0 0 1 .817.954 2.518 2.518 0 0 1-.144 1.54l1.058-1.286a8.912 8.912 0 0 0 2.322.681l-7.802 9.042-.26.32a2.221 2.221 0 0 0-.307.474q-.274.59.244.83 1.037.484 2.933-1.557Zm-9.207-.133a2.717 2.717 0 0 0 2.057-.274 14.389 14.389 0 0 0 3.06-1.858 21.917 21.917 0 0 0 3.127-2.917l1.204-1.475a4.873 4.873 0 0 0 .265-.508 3.184 3.184 0 0 0 .367-1.68 1.177 1.177 0 0 0-.696-.998q-1.013-.472-2.875.567a15.774 15.774 0 0 0-3.699 2.98 15.117 15.117 0 0 0-2.782 3.967 3.668 3.668 0 0 0-.436 1.49.733.733 0 0 0 .41.707Zm22.555 6.386.447.21-1.392 1.446q-1.979 2.03-3.98 1.097a1.72 1.72 0 0 1-.63-.495 1.221 1.221 0 0 1-.275-.702 2.025 2.025 0 0 1 .199-.796 9.932 9.932 0 0 1 1.23-1.779l2.105-2.604a18.709 18.709 0 0 1-4.903 3.561 4.173 4.173 0 0 1-3.498.12q-1.979-.924-1.134-2.736a6.2 6.2 0 0 1 1.143-1.59l5.494-5.815a3.318 3.318 0 0 0 .596-.784q.274-.59-.291-.853a1.332 1.332 0 0 0-1.154.108 7.22 7.22 0 0 0-1.78 1.45l-.713.73-.447-.21 1.392-1.447q1.98-2.031 3.983-1.097 1.65.769.968 2.23a6.76 6.76 0 0 1-1.234 1.662L92.2 36.44a4.278 4.278 0 0 0-.785 1.068q-.374.801.38 1.153.92.428 2.658-.41a18.913 18.913 0 0 0 3.941-2.734 38.781 38.781 0 0 0 4.412-4.54l.822-1.024a8.171 8.171 0 0 0 2.298.67l-7.79 9.077a4.32 4.32 0 0 0-.593.842q-.254.544.24.774a1.352 1.352 0 0 0 1.213-.108 7.337 7.337 0 0 0 1.747-1.438Zm16.89-2.623a1.27 1.27 0 0 1 .633.582.852.852 0 0 1-.001.772 1.178 1.178 0 0 1-.722.624 1.364 1.364 0 0 1-1.054-.076 2.518 2.518 0 0 1-1.221-1.257 11.643 11.643 0 0 0-4.468 2.937l-1.786 5.306a2.134 2.134 0 0 0-.107.968.68.68 0 0 0 .403.49 1.112 1.112 0 0 0 .98-.103 7.208 7.208 0 0 0 1.612-1.328l.713-.729.448.209-1.392 1.447q-1.998 1.995-3.812 1.149-1.697-.791-.945-3.08l1.075-3.228a15.249 15.249 0 0 1-4.256 2.605 8.354 8.354 0 0 1-1.8.509 2.238 2.238 0 0 1-1.261-.158 1.338 1.338 0 0 1-.685-.591.874.874 0 0 1 .03-.775 1.178 1.178 0 0 1 .722-.625 1.331 1.331 0 0 1 1.031.065 2.66 2.66 0 0 1 1.22 1.258 12.884 12.884 0 0 0 2.792-1.31 16.472 16.472 0 0 0 2.508-1.87l1.614-4.756a2.134 2.134 0 0 0 .108-.968.68.68 0 0 0-.403-.49 1.112 1.112 0 0 0-.98.103 7.208 7.208 0 0 0-1.613 1.328l-.713.729-.447-.209 1.392-1.447q1.992-1.997 3.807-1.15a1.976 1.976 0 0 1 1.118 1.108 3.193 3.193 0 0 1-.173 1.971l-.85 2.559a13.182 13.182 0 0 1 3.452-2.235 5.7 5.7 0 0 1 1.73-.541 2.433 2.433 0 0 1 1.3.206Zm16.405 7.65a1.511 1.511 0 0 1 .837.849 1.443 1.443 0 0 1-.073 1.142 1.805 1.805 0 0 1-1.055.97 1.746 1.746 0 0 1-1.386-.043 1.113 1.113 0 0 1-.579-.542.862.862 0 0 1 .032-.745 1.642 1.642 0 0 1 .712-.788 2.056 2.056 0 0 1 1.052-.226.386.386 0 0 0-.217-.212q-1.269-.591-4.049 1.455a41.329 41.329 0 0 0-6.195 5.932l-1.343 1.636-2.05-.956 7.542-8.79a3.4 3.4 0 0 0 .593-.842q.254-.544-.241-.775a1.352 1.352 0 0 0-1.213.109 7.338 7.338 0 0 0-1.746 1.437l-.713.73-.447-.21 1.392-1.447q1.98-2.031 3.983-1.097a1.322 1.322 0 0 1 .706 1.993 9.307 9.307 0 0 1-1.231 1.778l-2.139 2.618a21.089 21.089 0 0 1 4.65-3.727 3.516 3.516 0 0 1 3.172-.252Zm9.335 6.246a4.481 4.481 0 0 1-3.705 2.346 21.682 21.682 0 0 1-5.989.047 11.726 11.726 0 0 0-1.325 2.165q-1.057 2.266.57 3.024 2.026.945 4.723-.666l.29.364a7.97 7.97 0 0 1-3.077 1.277 5 5 0 0 1-3.13-.331 3.354 3.354 0 0 1-1.89-1.914 3.763 3.763 0 0 1 .328-2.86 10.739 10.739 0 0 1 2.933-3.551 12.721 12.721 0 0 1 4.625-2.506 6.366 6.366 0 0 1 4.625.235 2.119 2.119 0 0 1 1.062.983 1.544 1.544 0 0 1-.044 1.385Zm-1.75-2.164a2.888 2.888 0 0 0-2.096.098 10.74 10.74 0 0 0-2.838 1.531 14.4 14.4 0 0 0-2.687 2.534 13.558 13.558 0 0 0 3.906-.01 5.268 5.268 0 0 0 2.134-1.028 5.182 5.182 0 0 0 1.467-1.883 2.716 2.716 0 0 0 .305-.89.335.335 0 0 0-.19-.352Zm-.114-2.894q1.436-.679 3.465-1.77a17.665 17.665 0 0 1 2.158-1.058 1.412 1.412 0 0 1 1.208-.068.839.839 0 0 1 .441.406.675.675 0 0 1-.02.536 1.671 1.671 0 0 1-1.016.76 12.073 12.073 0 0 1-2.207.548q-.22.041-1.347.305t-2.547.663Zm-1.355 16.38a2.108 2.108 0 0 0 .383.38 3.529 3.529 0 0 0 .602.338 2.62 2.62 0 0 0 2.018.168 2.617 2.617 0 0 0 1.495-1.483 4.4 4.4 0 0 0 .404-1.604 8.635 8.635 0 0 0-.18-2.078 16.225 16.225 0 0 1-.336-2.323 3.833 3.833 0 0 1 .401-1.806 3.444 3.444 0 0 1 1.303-1.502 3.713 3.713 0 0 1 1.886-.569 4.391 4.391 0 0 1 2.024.428 4.6 4.6 0 0 1 1.836 1.415 1.839 1.839 0 0 1 .083 1.975 1.6 1.6 0 0 1-.657.698 1.011 1.011 0 0 1-1.002.02.985.985 0 0 1-.54-.595 1.083 1.083 0 0 1 .058-.834 2.835 2.835 0 0 1 1.396-1.271 2.406 2.406 0 0 0-1.046-.832 2.156 2.156 0 0 0-1.753-.086 2.5 2.5 0 0 0-1.341 1.368 2.624 2.624 0 0 0-.277 1.148 13.575 13.575 0 0 0 .178 1.647l.139.81a14.861 14.861 0 0 1 .18 2.35 4.352 4.352 0 0 1-.405 1.762 3.768 3.768 0 0 1-1.444 1.65 4.162 4.162 0 0 1-2.1.628 4.851 4.851 0 0 1-2.234-.468 4.6 4.6 0 0 1-1.997-1.634 2.132 2.132 0 0 1-.1-2.184 1.4 1.4 0 0 1 .564-.626.862.862 0 0 1 .85-.006.94.94 0 0 1 .58.787 2.208 2.208 0 0 1-.236 1.181 7.653 7.653 0 0 1-.732 1.148Zm19.358-10.137a1.957 1.957 0 0 1 1.118-1.013 1.807 1.807 0 0 1 1.472.012 1.254 1.254 0 0 1 .707.76 1.357 1.357 0 0 1-.077 1.026 1.893 1.893 0 0 1-1.126.995 1.866 1.866 0 0 1-1.48-.027 1.244 1.244 0 0 1-.688-.738 1.311 1.311 0 0 1 .074-1.015Zm-3.496 5.652a3.318 3.318 0 0 0 .595-.783q.274-.59-.244-.831a1.331 1.331 0 0 0-1.23.115 8.446 8.446 0 0 0-1.752 1.42l-.737.718-.448-.209 1.416-1.436a4.051 4.051 0 0 1 2.14-1.297 3.187 3.187 0 0 1 1.915.23q1.555.726.863 2.21a5.985 5.985 0 0 1-1.223 1.637l-5.855 5.974a3.318 3.318 0 0 0-.595.783q-.274.59.291.853a1.307 1.307 0 0 0 1.173-.115 8.247 8.247 0 0 0 1.786-1.431l.736-.718.448.209-1.416 1.436a4.292 4.292 0 0 1-2.104 1.283 3.023 3.023 0 0 1-1.925-.21q-1.65-.769-.98-2.206a6.516 6.516 0 0 1 1.293-1.664Zm11.581 13.06.448.21-1.347 1.468a3.921 3.921 0 0 1-2.022 1.326 2.862 2.862 0 0 1-1.842-.171 1.657 1.657 0 0 1-.932-.893 1.619 1.619 0 0 1 .13-1.264 8.66 8.66 0 0 1 1.164-1.695l.887-1.042a12.136 12.136 0 0 1-3.871 2.387 3.953 3.953 0 0 1-2.94-.086 2.447 2.447 0 0 1-1.44-1.618 3.948 3.948 0 0 1 .444-2.634 11.513 11.513 0 0 1 3.003-3.763 12.432 12.432 0 0 1 4.574-2.559 6.192 6.192 0 0 1 4.537.208 1.551 1.551 0 0 1 .73.713 1.8 1.8 0 0 1 .18 1.088l3.233-3.857a2.374 2.374 0 0 0 .387-.592.836.836 0 0 0-.039-.864 2.761 2.761 0 0 0-1.133-.8l.373-.43a11.85 11.85 0 0 0 2.37.79 9.29 9.29 0 0 0 2.25.19L165.03 70.893a4.265 4.265 0 0 0-.515.735q-.307.66.258.924a1.224 1.224 0 0 0 1.126-.137 8.039 8.039 0 0 0 1.716-1.466Zm-9.286-.198a2.736 2.736 0 0 0 2.084-.23 14.232 14.232 0 0 0 3.049-1.805 22.146 22.146 0 0 0 3.14-2.855l2.264-2.696a1.817 1.817 0 0 0-.06-1.131 1.261 1.261 0 0 0-.629-.652 3.949 3.949 0 0 0-3.418.256 13.068 13.068 0 0 0-3.803 2.803 14.017 14.017 0 0 0-2.711 3.779q-.956 2.05.08 2.533Zm24.036-1.53a4.481 4.481 0 0 1-3.708 2.35 21.682 21.682 0 0 1-5.989.047 11.726 11.726 0 0 0-1.325 2.165q-1.056 2.265.57 3.024 2.026.945 4.724-.666l.289.364a7.97 7.97 0 0 1-3.069 1.276 5 5 0 0 1-3.135-.329 3.354 3.354 0 0 1-1.888-1.913 3.763 3.763 0 0 1 .329-2.86 10.739 10.739 0 0 1 2.933-3.551 12.721 12.721 0 0 1 4.625-2.505 6.366 6.366 0 0 1 4.624.234 2.119 2.119 0 0 1 1.062.983 1.544 1.544 0 0 1-.045 1.384Zm-1.749-2.163a2.888 2.888 0 0 0-2.097.098 10.74 10.74 0 0 0-2.837 1.531 14.4 14.4 0 0 0-2.687 2.538 13.558 13.558 0 0 0 3.906-.01 5.268 5.268 0 0 0 2.134-1.027 5.182 5.182 0 0 0 1.467-1.884 2.716 2.716 0 0 0 .305-.89.335.335 0 0 0-.187-.35Zm11.245 15.202-1.392 1.447q-1.98 2.03-3.982 1.096a1.772 1.772 0 0 1-1.166-1.376 1.532 1.532 0 0 1 .174-.865 7.037 7.037 0 0 1 1.257-1.651l5.382-5.696a4.927 4.927 0 0 0 .774-1.044q.384-.825-.37-1.177a3.369 3.369 0 0 0-2.648.358 17.979 17.979 0 0 0-3.926 2.544 35.093 35.093 0 0 0-4.27 4.174l-1.23 1.523-2.047-.955 7.541-8.79a4.318 4.318 0 0 0 .572-.795q.274-.59-.244-.83a1.27 1.27 0 0 0-1.16.089 8.337 8.337 0 0 0-1.775 1.468l-.713.729-.448-.21 1.392-1.446q1.98-2.032 3.936-1.12a1.5 1.5 0 0 1 .903.863 1.667 1.667 0 0 1-.16 1.173 9.286 9.286 0 0 1-1.22 1.755l-2.33 2.843a19.907 19.907 0 0 1 5.238-3.696 4.506 4.506 0 0 1 3.72-.073q1.91.89 1.085 2.658a6.105 6.105 0 0 1-1.188 1.626l-5.497 5.819a3.344 3.344 0 0 0-.606.808.552.552 0 0 0 .302.829 1.332 1.332 0 0 0 1.154-.108 7.22 7.22 0 0 0 1.78-1.45l.712-.73Zm3.184 3.692a2.374 2.374 0 0 0-.312.485.957.957 0 0 0-.047.839 1.217 1.217 0 0 0 .624.578 1.689 1.689 0 0 0 1.323.002 5.854 5.854 0 0 0 1.87-1.382l.758-.765.447.208-1.187 1.254a4.654 4.654 0 0 1-2.25 1.462 3.438 3.438 0 0 1-2.22-.303 2.37 2.37 0 0 1-1.337-1.254 2.144 2.144 0 0 1 .151-1.68 5.348 5.348 0 0 1 .839-1.244l6.541-7.507-2.117-.987.338-.416 2.12.989 2.707-3.098a8.5 8.5 0 0 0 2.275.659l-2.932 3.395 3.11 1.45-.29.438-3.18-1.483Zm8.043-.639a1.957 1.957 0 0 1 1.119-1.013 1.807 1.807 0 0 1 1.47.014 1.254 1.254 0 0 1 .707.76 1.357 1.357 0 0 1-.076 1.025 1.893 1.893 0 0 1-1.126.996 1.866 1.866 0 0 1-1.48-.028 1.244 1.244 0 0 1-.688-.737 1.311 1.311 0 0 1 .074-1.015Zm17.048 1.523a4.481 4.481 0 0 1-3.71 2.347 21.682 21.682 0 0 1-5.981.05 11.726 11.726 0 0 0-1.325 2.165q-1.057 2.266.57 3.024 2.026.945 4.723-.666l.29.365a7.97 7.97 0 0 1-3.076 1.272 5 5 0 0 1-3.13-.326 3.354 3.354 0 0 1-1.89-1.914 3.763 3.763 0 0 1 .329-2.86 10.739 10.739 0 0 1 2.933-3.551 12.72 12.72 0 0 1 4.625-2.506 6.366 6.366 0 0 1 4.624.235 2.119 2.119 0 0 1 1.062.983 1.544 1.544 0 0 1-.045 1.384Zm-1.75-2.164a2.888 2.888 0 0 0-2.096.098 10.74 10.74 0 0 0-2.837 1.532 14.4 14.4 0 0 0-2.685 2.537 13.558 13.558 0 0 0 3.906-.01 5.268 5.268 0 0 0 2.13-1.03 5.182 5.182 0 0 0 1.466-1.883 2.716 2.716 0 0 0 .305-.89.335.335 0 0 0-.186-.35Zm.887 8.188a1.957 1.957 0 0 1 1.118-1.013 1.807 1.807 0 0 1 1.472.012 1.254 1.254 0 0 1 .707.76 1.357 1.357 0 0 1-.076 1.026 1.893 1.893 0 0 1-1.127.995 1.866 1.866 0 0 1-1.479-.028 1.244 1.244 0 0 1-.689-.737 1.311 1.311 0 0 1 .077-1.011Zm3.723 8.136a2.108 2.108 0 0 0 .382.379 3.529 3.529 0 0 0 .603.338 2.62 2.62 0 0 0 2.018.169 2.617 2.617 0 0 0 1.495-1.483 4.4 4.4 0 0 0 .404-1.605 8.635 8.635 0 0 0-.18-2.077 16.224 16.224 0 0 1-.336-2.323 3.833 3.833 0 0 1 .401-1.807 3.444 3.444 0 0 1 1.303-1.501 3.713 3.713 0 0 1 1.886-.57 4.391 4.391 0 0 1 2.024.428 4.6 4.6 0 0 1 1.836 1.416 1.839 1.839 0 0 1 .083 1.975 1.6 1.6 0 0 1-.657.698 1.011 1.011 0 0 1-1.002.02.985.985 0 0 1-.54-.596 1.083 1.083 0 0 1 .058-.834 2.835 2.835 0 0 1 1.396-1.27 2.406 2.406 0 0 0-1.047-.833 2.156 2.156 0 0 0-1.746-.088 2.5 2.5 0 0 0-1.34 1.368 2.623 2.623 0 0 0-.276 1.152 13.576 13.576 0 0 0 .178 1.646l.139.81a14.861 14.861 0 0 1 .177 2.35 4.352 4.352 0 0 1-.406 1.761 3.768 3.768 0 0 1-1.444 1.65 4.162 4.162 0 0 1-2.1.628 4.851 4.851 0 0 1-2.234-.468 4.6 4.6 0 0 1-1.996-1.634 2.132 2.132 0 0 1-.097-2.182 1.4 1.4 0 0 1 .564-.626.862.862 0 0 1 .85-.006.94.94 0 0 1 .58.787 2.208 2.208 0 0 1-.236 1.181 7.653 7.653 0 0 1-.736 1.148Z" data-name="Path 1063"/><path fill="#4d9a70" d="M237.255 38.79a1.245 1.245 0 0 1-.535-.121 1.25 1.25 0 0 1 1.073-2.258 1.25 1.25 0 0 1-.538 2.379Zm-5.876-2.791a1.245 1.245 0 0 1-.535-.121 1.25 1.25 0 0 1 1.073-2.258 1.25 1.25 0 0 1-.537 2.379Zm-5.876-2.791a1.245 1.245 0 0 1-.535-.121 1.25 1.25 0 1 1 1.073-2.258 1.25 1.25 0 0 1-.537 2.379Zm-5.876-2.791a1.245 1.245 0 0 1-.535-.121 1.25 1.25 0 1 1 1.063-2.262 1.25 1.25 0 0 1-.537 2.379Zm-5.882-2.793a1.245 1.245 0 0 1-.535-.121 1.25 1.25 0 1 1 1.073-2.258 1.25 1.25 0 0 1-.537 2.379Zm-5.876-2.791a1.245 1.245 0 0 1-.535-.121 1.25 1.25 0 1 1 1.067-2.262 1.25 1.25 0 0 1-.537 2.379Zm-5.876-2.791a1.245 1.245 0 0 1-.535-.121 1.25 1.25 0 1 1 1.067-2.261 1.25 1.25 0 0 1-.537 2.379Zm-5.876-2.792a1.245 1.245 0 0 1-.535-.121 1.25 1.25 0 1 1 1.073-2.258 1.25 1.25 0 0 1-.538 2.379Zm-5.876-2.791a1.245 1.245 0 0 1-.535-.121 1.25 1.25 0 1 1 1.073-2.258 1.25 1.25 0 0 1-.537 2.379Zm-5.876-2.791a1.245 1.245 0 0 1-.535-.121 1.25 1.25 0 1 1 1.073-2.258 1.25 1.25 0 0 1-.537 2.379Zm-5.877-2.791a1.245 1.245 0 0 1-.535-.121 1.25 1.25 0 1 1 1.073-2.258 1.25 1.25 0 0 1-.537 2.379Zm-5.876-2.792a1.245 1.245 0 0 1-.535-.121 1.25 1.25 0 1 1 1.073-2.258 1.25 1.25 0 0 1-.537 2.379Zm-5.877-2.791a1.245 1.245 0 0 1-.535-.121 1.25 1.25 0 1 1 1.068-2.261 1.25 1.25 0 0 1-.533 2.382Zm-5.88-2.791a1.245 1.245 0 0 1-.535-.121 1.25 1.25 0 0 1-.594-1.668 1.25 1.25 0 0 1 1.665-.593 1.25 1.25 0 0 1 .598 1.668 1.25 1.25 0 0 1-1.134.714Z" data-name="Path 1070"/><path fill="#4d9a70" d="M234.002 123.462a1.245 1.245 0 0 1-.558-.132 1.25 1.25 0 0 1 1.118-2.236 1.25 1.25 0 0 1-.56 2.368Zm-5.819-2.909a1.245 1.245 0 0 1-.558-.132 1.25 1.25 0 1 1 1.118-2.236 1.25 1.25 0 0 1-.56 2.368Zm-5.819-2.909a1.245 1.245 0 0 1-.558-.132 1.25 1.25 0 1 1 1.118-2.236 1.25 1.25 0 0 1-.56 2.368Zm-5.814-2.909a1.245 1.245 0 0 1-.558-.132 1.25 1.25 0 0 1 1.118-2.236 1.25 1.25 0 0 1-.56 2.368Zm-5.819-2.909a1.245 1.245 0 0 1-.558-.132 1.25 1.25 0 1 1 1.118-2.236 1.25 1.25 0 0 1-.56 2.368Zm-5.819-2.909a1.245 1.245 0 0 1-.558-.132 1.25 1.25 0 1 1 1.118-2.236 1.25 1.25 0 0 1-.56 2.368Zm-5.819-2.909a1.245 1.245 0 0 1-.558-.132 1.25 1.25 0 0 1 1.118-2.236 1.25 1.25 0 0 1-.56 2.368Zm-5.819-2.909a1.245 1.245 0 0 1-.558-.132 1.25 1.25 0 0 1 1.118-2.236 1.25 1.25 0 0 1-.56 2.368Zm-5.824-2.912a1.245 1.245 0 0 1-.558-.132 1.25 1.25 0 1 1 1.118-2.236 1.25 1.25 0 0 1-.56 2.368Zm-5.819-2.909a1.245 1.245 0 0 1-.558-.132 1.25 1.25 0 0 1 1.118-2.236 1.25 1.25 0 0 1-.56 2.368Zm-5.819-2.909a1.245 1.245 0 0 1-.558-.132 1.25 1.25 0 0 1 1.118-2.236 1.25 1.25 0 0 1-.56 2.368Zm-5.819-2.909a1.245 1.245 0 0 1-.558-.132 1.25 1.25 0 1 1 1.118-2.236 1.25 1.25 0 0 1-.56 2.368Zm-5.819-2.909a1.245 1.245 0 0 1-.558-.132 1.25 1.25 0 1 1 1.118-2.236 1.25 1.25 0 0 1-.56 2.368Zm-5.819-2.909a1.245 1.245 0 0 1-.558-.132 1.25 1.25 0 0 1 1.118-2.236 1.25 1.25 0 0 1-.56 2.368Zm-5.815-2.907a1.245 1.245 0 0 1-.558-.132 1.25 1.25 0 0 1 1.118-2.236 1.25 1.25 0 0 1-.56 2.368Zm-5.819-2.909a1.245 1.245 0 0 1-.558-.132 1.25 1.25 0 1 1 1.118-2.236 1.25 1.25 0 0 1-.56 2.368Zm-5.819-2.909a1.245 1.245 0 0 1-.558-.132 1.25 1.25 0 0 1 1.118-2.236 1.25 1.25 0 0 1-.56 2.368Zm-5.819-2.909a1.245 1.245 0 0 1-.558-.132 1.25 1.25 0 0 1 1.118-2.236 1.25 1.25 0 0 1-.56 2.368Zm-5.819-2.909a1.245 1.245 0 0 1-.558-.132 1.25 1.25 0 1 1 1.118-2.236 1.25 1.25 0 0 1-.56 2.368Zm-5.814-2.915a1.245 1.245 0 0 1-.558-.132 1.25 1.25 0 1 1 1.118-2.236 1.25 1.25 0 0 1-.56 2.368Zm-5.819-2.909a1.245 1.245 0 0 1-.558-.132 1.25 1.25 0 0 1 1.118-2.236 1.25 1.25 0 0 1-.56 2.368Zm-5.819-2.909a1.245 1.245 0 0 1-.562-.131 1.25 1.25 0 1 1 1.118-2.236 1.25 1.25 0 0 1-.56 2.368Zm-5.819-2.909a1.245 1.245 0 0 1-.558-.132 1.251 1.251 0 1 1 1.115-2.24 1.25 1.25 0 0 1-.56 2.368Zm-5.819-2.909a1.245 1.245 0 0 1-.558-.132 1.25 1.25 0 0 1 1.118-2.236 1.25 1.25 0 0 1-.56 2.368Zm-5.824-2.913a1.245 1.245 0 0 1-.558-.132 1.25 1.25 0 0 1 1.118-2.236 1.25 1.25 0 0 1-.56 2.368Zm-5.819-2.909a1.245 1.245 0 0 1-.558-.132 1.25 1.25 0 1 1 1.118-2.236 1.25 1.25 0 0 1-.56 2.368Zm-5.819-2.909a1.245 1.245 0 0 1-.558-.132 1.25 1.25 0 1 1 1.118-2.236 1.25 1.25 0 0 1-.56 2.368Zm-5.819-2.909a1.245 1.245 0 0 1-.558-.132 1.252 1.252 0 0 1 1.115-2.241 1.25 1.25 0 0 1-.56 2.368Zm-5.819-2.909a1.245 1.245 0 0 1-.558-.132 1.25 1.25 0 1 1 1.118-2.236 1.25 1.25 0 0 1-.56 2.368Zm-5.814-2.908a1.245 1.245 0 0 1-.558-.132 1.25 1.25 0 0 1 1.118-2.236 1.25 1.25 0 0 1-.56 2.368Zm-5.819-2.909a1.245 1.245 0 0 1-.558-.132 1.25 1.25 0 0 1 1.118-2.236 1.25 1.25 0 0 1-.56 2.368Zm-5.819-2.909a1.245 1.245 0 0 1-.558-.132 1.25 1.25 0 0 1 1.118-2.236 1.25 1.25 0 0 1-.56 2.368Zm-5.819-2.909a1.245 1.245 0 0 1-.553-.129 1.25 1.25 0 1 1 1.118-2.236 1.25 1.25 0 0 1-.56 2.368Zm-5.819-2.909a1.245 1.245 0 0 1-.558-.132 1.25 1.25 0 1 1 1.118-2.236 1.25 1.25 0 0 1-.56 2.368Zm-5.819-2.909a1.245 1.245 0 0 1-.558-.132 1.25 1.25 0 0 1 1.118-2.236 1.25 1.25 0 0 1-.56 2.368Zm-5.815-2.911a1.245 1.245 0 0 1-.558-.132 1.25 1.25 0 1 1 1.118-2.236 1.25 1.25 0 0 1-.56 2.368Zm-5.821-2.91a1.245 1.245 0 0 1-.558-.132 1.25 1.25 0 1 1 1.118-2.236 1.25 1.25 0 0 1-.56 2.368Zm-5.819-2.909a1.245 1.245 0 0 1-.558-.132 1.25 1.25 0 0 1 1.113-2.239 1.25 1.25 0 0 1-.56 2.368Zm-5.819-2.91a1.245 1.245 0 0 1-.558-.132 1.251 1.251 0 1 1 1.117-2.239 1.25 1.25 0 0 1-.56 2.368ZM7.073 9.997a1.245 1.245 0 0 1-.558-.132 1.25 1.25 0 1 1 1.113-2.239 1.25 1.25 0 0 1-.56 2.368ZM1.25 7.088a1.245 1.245 0 0 1-.554-.133 1.25 1.25 0 0 1-.564-1.679 1.25 1.25 0 0 1 1.677-.559 1.25 1.25 0 0 1 .564 1.679 1.25 1.25 0 0 1-1.123.692Z" data-name="Path 1069"/><path fill="none" d="M1.25 5.835h238v119h-238z" data-name="Rectangle 406"/></svg>
