<svg xmlns="http://www.w3.org/2000/svg" viewBox="0 0 24 24"><path fill="#000" fill-rule="nonzero" d="M12 0C5.373 0 0 5.373 0 12s5.373 12 12 12 12-5.373 12-12S18.627 0 12 0Zm1 15.797V13h3a15.569 15.569 0 0 1-.457 3A26.566 26.566 0 0 0 13 15.797Zm2 2.384c-.51 1.47-1.184 2.76-2 3.819v-4c.68.03 1.348.09 2 .181ZM13 11V8.207c.87-.031 1.724-.095 2.553-.207.239.951.39 1.955.447 3h-3Zm0-5V2c.818 1.059 1.493 2.35 2 3.82-.651.091-1.32.15-2 .18Zm3-3a9.174 9.174 0 0 1 3 2.339c-.585.255-1.195.481-1.841.661A18.383 18.383 0 0 0 16 3ZM8.457 16A15.491 15.491 0 0 1 8 13h3v2.797c-.867.031-1.717.093-2.543.203ZM11 18v4c-.816-1.06-1.49-2.35-2-3.819.652-.091 1.32-.15 2-.181Zm-3-7c.057-1.045.207-2.049.447-3 .829.112 1.683.176 2.553.207V11H8Zm1-5.18c.508-1.47 1.183-2.761 2-3.82v4a21.12 21.12 0 0 1-2-.18ZM6.84 6A13.956 13.956 0 0 1 5 5.339 9.183 9.183 0 0 1 8 3c-.452.92-.845 1.92-1.16 3ZM6 7.004A27.343 27.343 0 0 0 5.555 11H2c.15-1.835.668-3.538 1.462-5 .795.4 1.641.741 2.538 1.004ZM6 17.01c-.891.26-1.732.596-2.523.989A12.483 12.483 0 0 1 2 13h3.549A26.96 26.96 0 0 0 6 17.011Zm.842.989c.315 1.08.707 2.08 1.158 3-1.127-.542-2.143-1.34-3-2.34A14.247 14.247 0 0 1 6.842 18Zm10.317 0c.645.18 1.254.406 1.841.66-.858.999-1.874 1.797-3 2.34.45-.92.843-1.92 1.159-3Zm.841-.989c.244-1.278.399-2.621.452-4.011H22c-.15 1.837-.675 3.541-1.477 5A15.228 15.228 0 0 0 18 17.011ZM18.445 11A27.467 27.467 0 0 0 18 7.004 15.104 15.104 0 0 0 20.54 6 12.648 12.648 0 0 1 22 11h-3.555Z"/></svg>
