<svg xmlns="http://www.w3.org/2000/svg" version="1.1" id="Calque_1" x="0" y="0" viewBox="0 0 416.89998 213.5" xml:space="preserve" width="416.9" height="213.5">
<style type="text/css" id="style3">.st0{fill:#000}.st1{fill:#fff}</style><g id="g5" transform="translate(-213 -190.8)"><g id="g7"><g id="g9"><g id="g11"><path class="st0" d="M213.7 362.2v-53.4H227c5.4 0 9.7 1.3 12.9 4 3.2 2.7 4.8 6.3 4.8 10.8 0 3.1-.8 5.8-2.3 8.1-1.6 2.3-3.8 4-6.7 5.1 1.7 1.1 3.4 2.6 5 4.6 1.6 1.9 3.9 5.3 6.9 10.1 1.9 3 3.3 5.3 4.5 6.8l2.8 3.8h-9.1l-2.3-3.5c-.1-.1-.2-.3-.5-.7l-1.5-2.1-2.4-3.9-2.6-4.2c-1.6-2.2-3-3.9-4.3-5.2-1.3-1.3-2.5-2.2-3.6-2.8-1.1-.6-2.8-.9-5.3-.9h-2V362h-7.6zm9.9-46.8h-2.3v16.8h2.9c3.9 0 6.5-.3 8-1s2.6-1.7 3.4-3c.8-1.3 1.2-2.9 1.2-4.6 0-1.7-.4-3.2-1.3-4.6-.9-1.4-2.1-2.3-3.8-2.9-1.7-.6-4.4-.7-8.1-.7z" id="path13" fill="#249585"/><path class="st0" d="M254.8 362.4h-9.1c-.1 0-.1 0-.1-.1l-2.3-3.5c-.1-.1-.2-.3-.5-.6l-1.5-2.1-2.4-3.9-2.6-4.2c-1.6-2.2-3-3.9-4.3-5.2-1.3-1.3-2.5-2.2-3.5-2.8-1-.6-2.8-.8-5.3-.8h-1.8v23.1c0 .1-.1.2-.2.2h-7.6c-.1 0-.2-.1-.2-.2v-53.4c0-.1.1-.2.2-.2H227c5.4 0 9.8 1.4 13 4.1 3.2 2.7 4.8 6.4 4.8 11 0 3.1-.8 5.9-2.4 8.2-1.5 2.2-3.7 3.9-6.5 5 1.6 1.1 3.2 2.6 4.8 4.4 1.6 1.9 3.9 5.3 6.9 10.1 1.8 3 3.3 5.3 4.5 6.8l2.8 3.8v.2c0 .1 0 .1-.1.1zm-9-.4h8.7l-2.6-3.5c-1.1-1.5-2.6-3.8-4.5-6.8-2.9-4.8-5.2-8.2-6.9-10.1-1.6-1.9-3.3-3.4-5-4.6-.1 0-.1-.1-.1-.2s0-.1.1-.1c2.9-1.1 5.1-2.8 6.6-5s2.3-4.9 2.3-8c0-4.5-1.6-8.1-4.7-10.7-3.1-2.6-7.4-4-12.7-4h-13.2v53h7.3v-23c0-.1.1-.2.2-.2h2c2.5 0 4.3.3 5.4.9 1.1.6 2.3 1.5 3.6 2.8 1.3 1.3 2.8 3.1 4.4 5.3l2.6 4.2 2.4 3.9 1.5 2.1c.2.3.4.5.5.7l2.1 3.3zm-21.6-29.6h-2.9c-.1 0-.2-.1-.2-.2v-16.8c0-.1.1-.2.2-.2h2.3c3.7 0 6.5.3 8.1.8 1.6.6 2.9 1.6 3.8 3 .9 1.4 1.4 3 1.4 4.7 0 1.7-.4 3.3-1.2 4.7-.8 1.4-2 2.4-3.4 3.1-1.5.5-4.2.9-8.1.9zm-2.7-.4h2.7c3.8 0 6.5-.3 7.9-1 1.4-.6 2.5-1.6 3.3-2.9.8-1.3 1.2-2.8 1.2-4.5 0-1.6-.4-3.1-1.3-4.5-.9-1.3-2.1-2.3-3.7-2.8-1.6-.6-4.3-.8-8-.8h-2.1V332z" id="path15" fill="#249585"/></g><g id="g17"><path class="st0" d="M254.8 362.8h-9.1c-.2 0-.4-.1-.5-.3l-2.3-3.5c-.1-.1-.2-.3-.4-.6l-1.5-2.1-4.9-8.1c-1.5-2.1-3-3.8-4.2-5.1-1.3-1.3-2.4-2.2-3.4-2.7s-2.7-.8-5.1-.8H222v22.6c0 .3-.3.6-.6.6h-7.6c-.3 0-.6-.3-.6-.6v-53.4c0-.3.3-.6.6-.6H227c5.5 0 10 1.4 13.2 4.1 3.3 2.8 5 6.6 5 11.3 0 3.2-.8 6-2.4 8.4-1.4 2.1-3.4 3.7-6 4.9 1.4 1.1 2.9 2.4 4.2 4.1 1.6 1.9 4 5.4 6.9 10.2 1.8 3 3.3 5.3 4.4 6.8l2.8 3.8c.1.2.2.4.1.6 0 .3-.2.4-.4.4zm-8.8-1.2h7.6l-2.1-2.9c-1.1-1.5-2.6-3.9-4.5-6.9-2.9-4.8-5.2-8.1-6.8-10.1-1.6-1.9-3.2-3.4-4.9-4.5-.2-.1-.3-.3-.3-.6 0-.2.2-.4.4-.5 2.8-1.1 4.9-2.7 6.4-4.9s2.2-4.8 2.2-7.7c0-4.4-1.5-7.9-4.5-10.4-3-2.6-7.2-3.9-12.5-3.9h-12.8v52.2h6.5V339c0-.3.3-.6.6-.6h2c2.6 0 4.5.3 5.6.9 1.1.6 2.3 1.6 3.7 2.9 1.3 1.3 2.8 3.1 4.4 5.3l4.9 8.1 1.5 2.1c.2.3.4.6.5.7l2.1 3.2zm-21.8-28.8h-2.9c-.3 0-.6-.3-.6-.6v-16.8c0-.3.3-.6.6-.6h2.3c3.8 0 6.5.3 8.2.9 1.7.6 3.1 1.6 4.1 3.1 1 1.5 1.4 3.1 1.4 4.9 0 1.8-.4 3.4-1.3 4.9-.9 1.4-2.1 2.5-3.6 3.2-1.5.6-4.2 1-8.2 1zm-2.3-1.2h2.3c3.8 0 6.4-.3 7.7-.9 1.3-.6 2.4-1.5 3.1-2.8.7-1.2 1.1-2.7 1.1-4.3 0-1.6-.4-3-1.2-4.2-.8-1.3-2-2.1-3.5-2.7-1.5-.5-4.2-.8-7.8-.8h-1.7v15.7z" id="path19" fill="#249585"/><path class="st0" d="M254.8 363h-9.1c-.3 0-.5-.1-.6-.3l-2.3-3.5c-.1-.1-.2-.3-.4-.6l-1.5-2.1-4.9-8.1c-1.5-2.1-2.9-3.8-4.2-5.1-1.3-1.2-2.4-2.1-3.4-2.7-.9-.5-2.6-.8-5-.8h-1.2v22.5c0 .4-.3.8-.8.8h-7.6c-.4 0-.8-.3-.8-.8v-53.4c0-.4.3-.8.8-.8H227c5.6 0 10 1.4 13.3 4.2 3.3 2.8 5 6.7 5 11.4 0 3.2-.8 6.1-2.5 8.5-1.4 2-3.3 3.7-5.8 4.8 1.4 1.1 2.7 2.4 4 3.9 1.6 1.9 4 5.4 6.9 10.2 1.8 3 3.3 5.3 4.4 6.8l2.8 3.8c.2.2.2.5.1.8.1.3-.1.5-.4.5zm-32.9-23.6h1.4c2.4 0 4.1.3 5.1.8s2.2 1.5 3.5 2.7c1.3 1.3 2.7 3 4.3 5.1l4.9 8.1 1.5 2.1c.2.3.4.5.4.6l2.3 3.5c.1.1.2.2.3.2h9.1c.2 0 .3-.1.4-.2.1-.1.1-.3 0-.4l-2.8-3.8c-1.1-1.5-2.6-3.8-4.4-6.8-3-4.8-5.3-8.2-6.9-10.2-1.4-1.6-2.8-3-4.2-4 0 0-.1-.1-.1-.2s0-.1.1-.1c2.5-1.1 4.5-2.8 5.9-4.8 1.6-2.3 2.4-5.1 2.4-8.3 0-4.7-1.6-8.4-4.9-11.2-3.2-2.7-7.6-4.1-13.1-4.1h-13.4c-.2 0-.4.2-.4.4v53.4c0 .2.2.4.4.4h7.6c.2 0 .4-.2.4-.4v-22.6c0-.1.1-.2.2-.2zm31.7 22.4H246c-.1 0-.1 0-.1-.1l-2.1-3.2c-.1-.1-.3-.4-.5-.7l-1.5-2.1-5-8.1c-1.6-2.2-3-4-4.4-5.3-1.3-1.3-2.6-2.3-3.7-2.9-1.1-.6-2.9-.9-5.5-.9h-2c-.2 0-.4.2-.4.4v22.6c0 .1-.1.2-.2.2h-6.5c-.1 0-.2-.1-.2-.2v-52.2c0-.1.1-.2.2-.2H227c5.3 0 9.5 1.3 12.6 3.9 3.1 2.6 4.6 6.1 4.6 10.5 0 3-.8 5.6-2.3 7.8-1.5 2.2-3.7 3.8-6.5 4.9l-.3.3c0 .2.1.3.2.4 1.7 1.1 3.3 2.6 4.9 4.5 1.6 1.9 3.9 5.3 6.8 10.1 1.9 3 3.4 5.3 4.5 6.9l2.1 2.9v.2c.2.3.1.3 0 .3zm-7.5-.3h7.2l-1.9-2.6c-1.1-1.5-2.6-3.9-4.5-6.9-2.9-4.8-5.2-8.1-6.8-10-1.6-1.9-3.2-3.4-4.8-4.4-.2-.2-.4-.4-.3-.7 0-.3.2-.5.5-.6 2.7-1.1 4.9-2.7 6.3-4.8 1.5-2.1 2.2-4.7 2.2-7.6 0-4.3-1.5-7.8-4.5-10.3-3-2.5-7.2-3.8-12.4-3.8h-12.6v51.8h6.1V339c0-.4.3-.8.8-.8h2c2.6 0 4.5.3 5.7.9 1.1.6 2.4 1.6 3.7 2.9 1.3 1.3 2.8 3.1 4.4 5.3l5 8.1 1.5 2.1c.2.3.4.5.5.7l1.9 3.3zM224.2 333h-2.9c-.4 0-.8-.3-.8-.8v-16.8c0-.4.3-.8.8-.8h2.3c3.9 0 6.6.3 8.3.9 1.8.6 3.2 1.7 4.1 3.2 1 1.5 1.5 3.2 1.5 5 0 1.8-.4 3.5-1.3 5s-2.1 2.6-3.7 3.3c-1.6.6-4.3 1-8.3 1zm-2.9-18.1c-.2 0-.4.2-.4.4v16.8c0 .2.2.4.4.4h2.9c4 0 6.6-.3 8.1-1s2.7-1.8 3.5-3.2c.8-1.4 1.3-3 1.3-4.8 0-1.8-.5-3.4-1.4-4.8-.9-1.4-2.3-2.5-4-3-1.7-.6-4.4-.9-8.2-.9h-2.2zm2.9 16.9h-2.3c-.1 0-.2-.1-.2-.2v-15.7c0-.1.1-.2.2-.2h1.7c3.7 0 6.3.3 7.9.8 1.5.5 2.7 1.4 3.6 2.7.8 1.3 1.3 2.7 1.3 4.3 0 1.6-.4 3.1-1.1 4.4-.8 1.3-1.8 2.2-3.2 2.8-1.5.8-4.1 1.1-7.9 1.1zm-2.1-.4h2.1c3.7 0 6.3-.3 7.6-.9 1.3-.6 2.3-1.5 3-2.7.7-1.2 1.1-2.6 1.1-4.2 0-1.5-.4-2.9-1.2-4.1-.8-1.2-1.9-2.1-3.4-2.6s-4.1-.8-7.8-.8H222v15.3z" id="path21" fill="#249585"/></g></g><g id="g23"><g id="g25"><path class="st0" d="M285.3 308.1c8.2 0 15.1 2.6 20.6 7.8 5.5 5.2 8.2 11.8 8.2 19.6 0 7.8-2.8 14.4-8.3 19.5-5.5 5.2-12.5 7.7-20.9 7.7-8 0-14.7-2.6-20.1-7.7-5.4-5.2-8-11.6-8-19.4 0-8 2.7-14.6 8.1-19.8 5.3-5.1 12.2-7.7 20.4-7.7zm.3 7.3c-6.1 0-11.1 1.9-15.1 5.7-3.9 3.8-5.9 8.7-5.9 14.6 0 5.8 2 10.5 5.9 14.4 3.9 3.9 8.9 5.7 14.8 5.7 6 0 10.9-1.9 14.9-5.8s6-8.7 6-14.6c0-5.7-2-10.4-6-14.3-3.9-3.8-8.8-5.7-14.6-5.7z" id="path27" fill="#249585"/><path class="st0" d="M284.9 363c-8 0-14.9-2.6-20.2-7.8-5.4-5.2-8.1-11.7-8.1-19.5 0-8 2.7-14.7 8.1-19.9 5.4-5.2 12.3-7.9 20.6-7.9s15.2 2.7 20.7 7.9 8.3 11.9 8.3 19.8-2.8 14.5-8.4 19.7c-5.5 5.1-12.6 7.7-21 7.7zm.4-54.7c-8.2 0-15 2.6-20.3 7.8-5.3 5.2-8 11.8-8 19.7 0 7.7 2.7 14.2 8 19.3 5.3 5.1 12 7.7 20 7.7 8.3 0 15.3-2.6 20.8-7.7s8.2-11.6 8.2-19.4c0-7.8-2.7-14.3-8.2-19.5-5.5-5.3-12.3-7.9-20.5-7.9zm.1 47.7c-5.9 0-11-1.9-14.9-5.8-4-3.8-6-8.7-6-14.5 0-6 2-10.9 5.9-14.8 3.9-3.8 9-5.8 15.2-5.8 5.8 0 10.8 2 14.8 5.8 4 3.9 6 8.7 6 14.4 0 5.8-2 10.8-6 14.7-4 4-9.1 6-15 6zm.2-40.5c-6 0-11.1 1.9-14.9 5.7-3.9 3.8-5.8 8.6-5.8 14.5 0 5.7 2 10.5 5.9 14.2 3.9 3.8 8.8 5.7 14.7 5.7 5.9 0 10.9-1.9 14.8-5.8 3.9-3.8 5.9-8.7 5.9-14.4 0-5.6-2-10.3-5.9-14.1-4.1-3.8-9-5.8-14.7-5.8z" id="path29" fill="#249585"/></g><g id="g31"><path class="st0" d="M284.9 363.4c-8.2 0-15.1-2.7-20.5-7.9-5.5-5.2-8.2-11.9-8.2-19.8 0-8.1 2.8-14.9 8.3-20.2 5.5-5.3 12.5-8 20.9-8 8.4 0 15.4 2.7 21 8s8.4 12.1 8.4 20.1c0 8-2.9 14.7-8.5 20-5.7 5.2-12.9 7.8-21.4 7.8zm.4-54.7c-8 0-14.8 2.6-20.1 7.7-5.3 5.1-7.9 11.6-7.9 19.4 0 7.6 2.6 13.9 7.9 19 5.2 5 11.8 7.6 19.7 7.6 8.2 0 15.1-2.5 20.5-7.6 5.4-5 8.1-11.4 8.1-19.1 0-7.7-2.7-14.1-8-19.2-5.4-5.2-12.1-7.8-20.2-7.8zm.1 47.7c-6.1 0-11.2-2-15.2-5.9-4-3.9-6.1-8.9-6.1-14.8 0-6.1 2-11.1 6.1-15 4-3.9 9.2-5.9 15.5-5.9 5.9 0 11 2 15.1 6s6.1 8.9 6.1 14.7c0 5.9-2.1 11-6.1 15-4.2 3.9-9.3 5.9-15.4 5.9zm.2-40.5c-5.9 0-10.8 1.9-14.6 5.6-3.8 3.7-5.7 8.5-5.7 14.2 0 5.6 1.9 10.3 5.7 13.9 3.8 3.7 8.7 5.6 14.4 5.6 5.8 0 10.6-1.9 14.5-5.7 3.8-3.8 5.8-8.5 5.8-14.1 0-5.5-1.9-10.1-5.8-13.8-3.9-3.8-8.7-5.7-14.3-5.7z" id="path33" fill="#249585"/><path class="st0" d="M284.9 363.6c-8.2 0-15.1-2.7-20.6-7.9-5.5-5.3-8.3-12-8.3-19.9 0-8.1 2.8-15 8.3-20.3 5.5-5.3 12.6-8 21-8s15.5 2.7 21.1 8c5.6 5.3 8.5 12.1 8.5 20.2s-2.9 14.8-8.5 20.1c-5.7 5.1-12.9 7.8-21.5 7.8zm.4-55.9c-8.3 0-15.3 2.7-20.7 7.9-5.5 5.3-8.2 12-8.2 20.1 0 7.8 2.7 14.5 8.2 19.7 5.4 5.2 12.3 7.9 20.4 7.9 8.5 0 15.6-2.6 21.2-7.8 5.6-5.2 8.4-11.9 8.4-19.8s-2.8-14.7-8.4-19.9c-5.6-5.4-12.6-8.1-20.9-8.1zm-.4 54.7c-7.9 0-14.6-2.6-19.8-7.6-5.2-5.1-7.9-11.5-7.9-19.1 0-7.8 2.7-14.4 8-19.5s12.1-7.7 20.2-7.7 14.9 2.6 20.3 7.7 8.1 11.6 8.1 19.3c0 7.7-2.7 14.2-8.2 19.2-5.5 5.1-12.4 7.7-20.7 7.7zm.4-53.5c-8 0-14.7 2.6-19.9 7.6-5.2 5-7.9 11.5-7.9 19.2 0 7.5 2.6 13.9 7.8 18.8 5.2 5 11.8 7.5 19.6 7.5 8.2 0 15.1-2.5 20.4-7.5 5.3-5 8.1-11.4 8.1-19s-2.7-14-8-19.1c-5.3-5-12.1-7.5-20.1-7.5zm.1 47.7c-6.1 0-11.3-2-15.3-5.9-4.1-3.9-6.1-9-6.1-14.9 0-6.1 2.1-11.2 6.1-15.2 4.1-3.9 9.3-5.9 15.6-5.9 6 0 11.1 2 15.2 6s6.2 9 6.2 14.8c0 6-2.1 11.1-6.2 15.1-4.2 3.9-9.4 6-15.5 6zm.2-41.7c-6.2 0-11.4 2-15.3 5.8-4 3.9-6 8.9-6 14.9 0 5.8 2 10.8 6 14.7 4 3.9 9.1 5.8 15.1 5.8s11.1-2 15.2-6c4-4 6.1-9 6.1-14.8 0-5.7-2.1-10.6-6.1-14.6-4.1-3.8-9.1-5.8-15-5.8zm-.2 40.5c-5.8 0-10.7-1.9-14.5-5.6-3.8-3.7-5.8-8.5-5.8-14.1 0-5.8 1.9-10.6 5.8-14.3 3.8-3.7 8.8-5.6 14.8-5.6 5.7 0 10.5 1.9 14.4 5.7 3.9 3.8 5.8 8.5 5.8 14 0 5.7-2 10.5-5.8 14.3-4 3.7-8.9 5.6-14.7 5.6zm.2-39.3c-5.9 0-10.8 1.9-14.5 5.5-3.8 3.7-5.7 8.4-5.7 14.1 0 5.5 1.9 10.2 5.7 13.8 3.8 3.7 8.6 5.5 14.3 5.5 5.7 0 10.6-1.9 14.4-5.6 3.8-3.7 5.7-8.4 5.7-14 0-5.4-1.9-10-5.7-13.7-3.9-3.7-8.6-5.6-14.2-5.6z" id="path35" fill="#249585"/></g></g><g id="g37"><g id="g39"><path class="st0" d="M339.9 339.9l-5.8-3.5c-3.6-2.2-6.2-4.4-7.8-6.6-1.5-2.2-2.3-4.6-2.3-7.4 0-4.2 1.5-7.6 4.4-10.2 2.9-2.6 6.7-3.9 11.4-3.9 4.5 0 8.5 1.3 12.3 3.8v8.7c-3.8-3.7-8-5.5-12.4-5.5-2.5 0-4.5.6-6.1 1.7-1.6 1.2-2.4 2.6-2.4 4.4 0 1.6.6 3.1 1.8 4.5 1.2 1.4 3.1 2.9 5.7 4.4l5.8 3.5c6.5 3.9 9.8 8.8 9.8 14.8 0 4.3-1.4 7.8-4.3 10.4-2.9 2.6-6.6 4-11.2 4-5.3 0-10.1-1.6-14.4-4.9v-9.7c4.1 5.2 8.9 7.8 14.3 7.8 2.4 0 4.4-.7 6-2 1.6-1.3 2.4-3 2.4-5-.2-3.3-2.6-6.4-7.2-9.3z" id="path41" fill="#249585"/><path class="st0" d="M338.6 363c-5.3 0-10.2-1.6-14.5-4.9l-.1-.1v-9.7c0-.1 0-.1.1-.2.1 0 .1 0 .2.1 4.1 5.2 8.8 7.8 14.2 7.8 2.3 0 4.3-.7 5.9-2 1.5-1.3 2.3-2.9 2.3-4.9 0-3.2-2.3-6.2-6.9-9.1l-5.8-3.5c-3.6-2.2-6.3-4.4-7.8-6.6-1.6-2.2-2.3-4.7-2.3-7.5 0-4.2 1.5-7.7 4.4-10.4 2.9-2.6 6.8-4 11.5-4 4.5 0 8.6 1.3 12.4 3.8l.1.1v8.7c0 .1 0 .1-.1.2h-.2c-3.8-3.6-7.9-5.5-12.3-5.5-2.4 0-4.5.6-6 1.7s-2.3 2.6-2.3 4.3c0 1.6.6 3 1.7 4.4 1.2 1.4 3.1 2.8 5.7 4.4l5.8 3.5c6.5 3.9 9.8 8.9 9.8 15 0 4.3-1.5 7.9-4.4 10.6-3 2.4-6.8 3.8-11.4 3.8zm-14.2-5.1c4.3 3.2 9 4.8 14.2 4.8 4.5 0 8.2-1.3 11.1-4 2.8-2.6 4.2-6.1 4.2-10.3 0-5.9-3.3-10.9-9.7-14.7l-5.8-3.5c-2.6-1.5-4.6-3-5.7-4.4-1.2-1.4-1.8-3-1.8-4.6 0-1.9.8-3.4 2.5-4.6 1.6-1.2 3.7-1.8 6.2-1.8 4.3 0 8.5 1.8 12.2 5.3V312c-3.7-2.4-7.7-3.7-12.1-3.7-4.6 0-8.4 1.3-11.2 3.9-2.9 2.6-4.3 6-4.3 10.1 0 2.8.8 5.2 2.3 7.3 1.5 2.1 4.1 4.3 7.7 6.5l5.8 3.5c4.7 2.9 7.1 6.1 7.1 9.4 0 2-.8 3.8-2.4 5.1-1.6 1.4-3.7 2-6.1 2-5.3 0-10.1-2.5-14.2-7.5v9.3z" id="path43" fill="#249585"/></g><g id="g45"><path class="st0" d="M338.6 363.4c-5.4 0-10.3-1.7-14.8-5-.1-.1-.2-.3-.2-.5v-9.7c0-.2.2-.5.4-.6.2-.1.5 0 .7.2 4 5.1 8.7 7.6 13.9 7.6 2.2 0 4.1-.6 5.6-1.9 1.5-1.2 2.2-2.7 2.2-4.6 0-3-2.3-6-6.7-8.7l-5.8-3.5c-3.7-2.3-6.4-4.5-7.9-6.7-1.6-2.2-2.4-4.9-2.4-7.8 0-4.4 1.5-7.9 4.6-10.7 3-2.7 7-4.1 11.8-4.1 4.6 0 8.8 1.3 12.6 3.9.2.1.3.3.3.5v8.7c0 .2-.1.4-.4.5-.2.1-.5 0-.6-.1-3.7-3.6-7.8-5.4-12-5.4-2.4 0-4.3.5-5.8 1.6-1.5 1-2.2 2.3-2.2 4 0 1.5.5 2.8 1.6 4.1 1.1 1.3 3 2.8 5.5 4.3l5.8 3.5c6.7 4 10.1 9.1 10.1 15.3 0 4.4-1.5 8.1-4.5 10.9-3.2 2.8-7.1 4.2-11.8 4.2zm-13.8-5.7c4.1 3 8.8 4.6 13.8 4.6 4.4 0 8-1.3 10.8-3.9 2.7-2.5 4.1-5.9 4.1-10 0-5.8-3.2-10.6-9.5-14.3l-5.8-3.5c-2.7-1.6-4.6-3.1-5.8-4.5-1.3-1.5-1.9-3.1-1.9-4.9 0-2 .9-3.6 2.7-4.9 1.7-1.2 3.9-1.8 6.5-1.8 4.2 0 8.2 1.6 11.8 4.8v-7c-3.5-2.3-7.5-3.5-11.7-3.5-4.5 0-8.2 1.3-11 3.8-2.8 2.5-4.2 5.8-4.2 9.8 0 2.7.7 5 2.2 7.1 1.5 2.1 4 4.2 7.6 6.4l5.8 3.5c4.8 3 7.3 6.3 7.3 9.7 0 2.2-.9 4-2.6 5.5-1.7 1.4-3.8 2.1-6.4 2.1-5.1 0-9.7-2.3-13.7-6.8v7.8z" id="path47" fill="#249585"/><path class="st0" d="M338.6 363.6c-5.4 0-10.4-1.7-14.9-5-.2-.1-.3-.4-.3-.6v-9.7c0-.3.2-.6.5-.7.3-.1.6 0 .8.2 4 5 8.6 7.5 13.7 7.5 2.2 0 4-.6 5.5-1.8 1.4-1.2 2.1-2.6 2.1-4.4 0-3-2.2-5.8-6.7-8.6l-5.8-3.5c-3.7-2.3-6.4-4.5-8-6.8-1.6-2.3-2.5-4.9-2.5-7.9 0-4.4 1.6-8 4.6-10.8 3-2.7 7-4.1 11.9-4.1 4.6 0 8.9 1.3 12.7 3.9.2.1.3.4.3.6v8.7c0 .3-.2.6-.5.7-.3.1-.6.1-.8-.2-3.7-3.5-7.7-5.3-11.9-5.3-2.3 0-4.2.5-5.7 1.6-1.4 1-2.1 2.3-2.1 3.8 0 1.4.5 2.7 1.6 4 1.1 1.3 3 2.7 5.5 4.2l5.8 3.5c6.7 4 10.1 9.2 10.1 15.5 0 4.5-1.5 8.2-4.5 11-2.7 2.8-6.6 4.2-11.4 4.2zm-14.4-15.7h-.1c-.2.1-.3.2-.3.4v9.7c0 .1.1.3.2.3 4.4 3.3 9.3 4.9 14.6 4.9 4.7 0 8.5-1.4 11.5-4.1 2.9-2.7 4.4-6.4 4.4-10.7 0-6.1-3.4-11.3-10-15.2l-5.8-3.5c-2.6-1.5-4.4-3-5.6-4.3-1.1-1.3-1.7-2.7-1.7-4.2 0-1.7.7-3 2.2-4.1 1.5-1.1 3.5-1.7 5.9-1.7 4.3 0 8.4 1.8 12.1 5.4.1.1.3.1.5.1.2-.1.3-.2.3-.4v-8.7c0-.1-.1-.3-.2-.3-3.8-2.5-8-3.8-12.5-3.8-4.7 0-8.7 1.4-11.6 4-3 2.7-4.5 6.2-4.5 10.5 0 2.9.8 5.5 2.4 7.7 1.6 2.2 4.2 4.4 7.9 6.7l5.8 3.5c4.5 2.8 6.8 5.8 6.8 8.9 0 1.9-.7 3.4-2.2 4.7-1.5 1.3-3.4 1.9-5.7 1.9-5.3 0-10-2.6-14-7.7h-.4zm14.4 14.5c-5.1 0-9.7-1.5-13.9-4.6l-.1-.1v-7.8c0-.1 0-.1.1-.2h.2c4 4.5 8.5 6.7 13.6 6.7 2.5 0 4.6-.7 6.2-2.1 1.7-1.4 2.5-3.2 2.5-5.3 0-3.4-2.4-6.6-7.2-9.6l-5.8-3.5c-3.6-2.2-6.1-4.4-7.7-6.5-1.5-2.1-2.2-4.5-2.2-7.2 0-4.1 1.4-7.4 4.2-9.9 2.8-2.5 6.6-3.8 11.1-3.8 4.2 0 8.2 1.2 11.8 3.5l.1.1v7c0 .1 0 .1-.1.2h-.2c-3.6-3.2-7.6-4.8-11.7-4.8-2.6 0-4.7.6-6.4 1.8-1.7 1.2-2.6 2.8-2.6 4.8 0 1.7.6 3.3 1.9 4.8 1.2 1.4 3.2 2.9 5.8 4.5l5.8 3.5c6.3 3.8 9.6 8.7 9.6 14.5 0 4.1-1.4 7.5-4.2 10.1-2.7 2.6-6.3 3.9-10.8 3.9zm-13.6-4.8c4.1 3 8.7 4.5 13.6 4.5 4.4 0 7.9-1.3 10.7-3.8 2.7-2.5 4.1-5.8 4.1-9.9 0-5.7-3.2-10.5-9.4-14.2l-5.8-3.5c-2.7-1.6-4.7-3.1-5.9-4.6-1.3-1.5-2-3.2-2-5 0-2 .9-3.7 2.7-5 1.7-1.2 3.9-1.9 6.6-1.9 4.1 0 8 1.5 11.7 4.6v-6.6c-3.5-2.3-7.4-3.4-11.5-3.4-4.4 0-8.1 1.3-10.9 3.7-2.7 2.5-4.1 5.7-4.1 9.7 0 2.6.7 5 2.2 7 1.5 2.1 4 4.2 7.6 6.4l5.8 3.5c4.9 3.1 7.4 6.4 7.4 9.9 0 2.2-.9 4.1-2.7 5.6-1.7 1.4-3.9 2.2-6.5 2.2-5 0-9.6-2.2-13.6-6.5v7.3z" id="path49" fill="#249585"/></g></g><g id="g51"><g id="g53"><path class="st0" d="M399.3 308.9h9.3L388.8 334v28.2H381V334l-19.7-25.1h9.2l14.3 18.4 14.5-18.4z" id="path55" fill="#249585"/><path class="st0" d="M388.8 362.4H381c-.1 0-.2-.1-.2-.2V334l-19.7-25v-.2c0-.1.1-.1.2-.1h9.2c.1 0 .1 0 .1.1l14.1 18.2 14.3-18.2.1-.1h9.3c.1 0 .1 0 .2.1v.2L389 334.1v28.2s-.1.1-.2.1zm-7.6-.4h7.5v-28-.1l19.5-24.9h-8.8L385 327.3l-.1.1c-.1 0-.1 0-.1-.1L370.4 309h-8.8l19.5 24.9V362z" id="path57" fill="#249585"/></g><g id="g59"><path class="st0" d="M388.8 362.8H381c-.3 0-.6-.3-.6-.6v-28l-19.6-25c-.1-.2-.2-.4-.1-.6.1-.2.3-.3.5-.3h9.2c.2 0 .4.1.5.2l13.8 17.8 14-17.8c.1-.1.3-.2.5-.2h9.3c.2 0 .4.1.5.3.1.2.1.4-.1.6l-19.6 25v28c.1.3-.2.6-.5.6zm-7.2-1.2h6.7V334c0-.1 0-.3.1-.4l19-24.2h-7.8l-14.3 18.2c-.1.1-.3.2-.5.2s-.4-.1-.5-.2l-14.1-18.2h-7.7l19 24.2c.1.1.1.2.1.4v27.6z" id="path61" fill="#249585"/><path class="st0" d="M388.8 363H381c-.4 0-.8-.3-.8-.8v-28l-19.5-24.9c-.2-.2-.2-.5-.1-.8.1-.3.4-.4.7-.4h9.2c.2 0 .5.1.6.3l13.7 17.6 13.9-17.6c.1-.2.4-.3.6-.3h9.3c.3 0 .6.2.7.4.1.3.1.6-.1.8l-19.5 24.9v28c-.1.4-.5.8-.9.8zm-27.5-54.6c-.2 0-.3.1-.4.2-.1.1-.1.3 0 .4l19.6 25v28.1c0 .2.2.4.4.4h7.8c.2 0 .4-.2.4-.4v-28-.1l19.6-25c.1-.1.1-.3 0-.4-.1-.1-.2-.2-.4-.2H399c-.1 0-.2.1-.3.2l-14 17.8-.1.1c-.1 0-.1 0-.1-.1l-13.8-17.8c-.1-.1-.2-.2-.3-.2h-9.1zm26.9 53.4h-6.7c-.1 0-.2-.1-.2-.2V334c0-.1 0-.2-.1-.3l-19-24.2v-.2c0-.1.1-.1.2-.1h7.7c.1 0 .1 0 .1.1l14.1 18.2c.2.2.5.2.7 0l14.3-18.2.1-.1h7.8c.1 0 .1 0 .2.1v.2l-19 24.2c-.1.1-.1.2-.1.3v27.6c.1.1 0 .2-.1.2zm-6.5-.3h6.3V334c0-.2.1-.3.2-.5l18.7-23.9h-7.3l-14.2 18.1c-.3.4-.9.4-1.2 0l-14-18.1h-7.3l18.7 23.9c.1.1.2.3.2.5v27.5z" id="path63" fill="#249585"/></g></g><g id="g65"><g id="g67"><path class="st0" d="M419.1 308.9h7.6v46.4h24v7H419v-53.4z" id="path69" fill="#249585"/><path class="st0" d="M450.8 362.4h-31.7c-.1 0-.2-.1-.2-.2v-53.4c0-.1.1-.2.2-.2h7.6c.1 0 .2.1.2.2V355h23.9c.1 0 .2.1.2.2v7c-.1.1-.1.2-.2.2zm-31.5-.4h31.3v-6.6h-23.9c-.1 0-.2-.1-.2-.2V309h-7.3v53z" id="path71" fill="#249585"/></g><g id="g73"><path class="st0" d="M450.8 362.8h-31.7c-.3 0-.6-.3-.6-.6v-53.4c0-.3.3-.6.6-.6h7.6c.3 0 .6.3.6.6v45.8h23.4c.3 0 .6.3.6.6v7c.1.3-.2.6-.5.6zm-31.1-1.2h30.5v-5.8h-23.4c-.3 0-.6-.3-.6-.6v-45.8h-6.5v52.2z" id="path75" fill="#249585"/><path class="st0" d="M450.8 363h-31.7c-.4 0-.8-.3-.8-.8v-53.4c0-.4.3-.8.8-.8h7.6c.4 0 .8.3.8.8v45.6h23.3c.4 0 .8.3.8.8v7c-.1.4-.4.8-.8.8zm-31.7-54.6c-.2 0-.4.2-.4.4v53.4c0 .2.2.4.4.4h31.7c.2 0 .4-.2.4-.4v-7c0-.2-.2-.4-.4-.4h-23.4c-.1 0-.2-.1-.2-.2v-45.8c0-.2-.2-.4-.4-.4h-7.7zm31.1 53.4h-30.5c-.1 0-.2-.1-.2-.2v-52.2c0-.1.1-.2.2-.2h6.5c.1 0 .2.1.2.2v45.8c0 .2.2.4.4.4h23.4c.1 0 .2.1.2.2v5.8c-.1.1-.1.2-.2.2zm-30.3-.3H450V356h-23.3c-.4 0-.8-.3-.8-.8v-45.6h-6.1v51.9z" id="path77" fill="#249585"/></g></g><g id="g79"><g id="g81"><path class="st0" d="M479.2 308.6h5.4l23.9 53.7h-7.8l-7.1-15.8h-22.8l-6.7 15.8h-7.9l23-53.7zm11.2 31l-8.6-19.3-8 19.3h16.6z" id="path83" fill="#249585"/><path class="st0" d="M508.5 362.4h-7.8c-.1 0-.1 0-.2-.1l-7.1-15.7h-22.5l-6.6 15.7c0 .1-.1.1-.2.1h-7.9c-.1 0-.1 0-.1-.1v-.2l22.9-53.7c0-.1.1-.1.2-.1h5.4c.1 0 .1 0 .2.1l23.9 53.7v.2c-.1.1-.2.1-.2.1zm-7.7-.4h7.4l-23.8-53.3h-5.1L456.5 362h7.5l6.6-15.7c0-.1.1-.1.2-.1h22.8c.1 0 .1 0 .2.1l7 15.7zm-10.4-22.2h-16.6c-.1 0-.1 0-.1-.1v-.2l8-19.3c0-.1.1-.1.2-.1s.1 0 .2.1l8.6 19.3v.2c-.2 0-.2.1-.3.1zm-16.3-.4h16.1l-8.3-18.7-7.8 18.7z" id="path85" fill="#249585"/></g><g id="g87"><path class="st0" d="M508.5 362.8h-7.8c-.2 0-.4-.1-.5-.3l-7-15.5h-22l-6.5 15.5c-.1.2-.3.4-.5.4h-7.9c-.2 0-.4-.1-.5-.3-.1-.2-.1-.4-.1-.6l22.9-53.7c.1-.2.3-.4.5-.4h5.4c.2 0 .4.1.5.3l24 53.8c.1.2.1.4 0 .6-.1.1-.3.2-.5.2zm-7.5-1.2h6.5l-23.4-52.5h-4.6l-22.4 52.5h6.6l6.5-15.5c.1-.2.3-.4.5-.4h22.8c.2 0 .4.1.5.3l7 15.6zm-10.6-21.4h-16.6c-.2 0-.4-.1-.5-.3-.1-.2-.1-.4-.1-.5l8-19.3c.1-.2.3-.4.5-.4s.4.1.5.3l8.6 19.3c.1.2.1.4 0 .6 0 .2-.2.3-.4.3zm-15.7-1.2h14.8l-7.7-17.3-7.1 17.3z" id="path89" fill="#249585"/><path class="st0" d="M508.5 363h-7.8c-.3 0-.6-.2-.7-.4l-6.9-15.4h-21.8l-6.5 15.3c-.1.3-.4.5-.7.5h-7.9c-.3 0-.5-.1-.6-.3-.1-.2-.2-.5-.1-.7l22.9-53.7c.1-.3.4-.5.7-.5h5.4c.3 0 .6.2.7.4l23.9 53.7c.1.2.1.5-.1.7 0 .2-.3.4-.5.4zm-37.3-16.2h22c.1 0 .1 0 .2.1l7 15.5c.1.1.2.2.4.2h7.8c.1 0 .3-.1.3-.2.1-.1.1-.3 0-.4L485 308.3c-.1-.1-.2-.2-.4-.2h-5.4c-.2 0-.3.1-.4.3l-22.9 53.7c-.1.1 0 .3 0 .4.1.1.2.2.3.2h7.9c.2 0 .3-.1.4-.3l6.5-15.5s.1-.1.2-.1zm36.4 15H501c-.1 0-.1 0-.2-.1l-7-15.5c-.1-.1-.2-.2-.4-.2h-22.8c-.2 0-.3.1-.4.3l-6.5 15.5c0 .1-.1.1-.2.1h-6.6c-.1 0-.1 0-.1-.1v-.2l22.4-52.5c0-.1.1-.1.2-.1h4.6c.1 0 .1 0 .2.1l23.4 52.5v.2c.1 0 0 0 0 0zm-6.5-.3h6.2l-23.2-52.1h-4.4l-22.3 52.1h6.2l6.5-15.3c.1-.3.4-.5.7-.5h22.8c.3 0 .6.2.7.4l6.8 15.4zm-10.7-21.1h-16.6c-.3 0-.5-.1-.6-.3-.1-.2-.2-.5-.1-.7l8-19.3c.1-.3.4-.5.7-.5.3 0 .6.2.7.4l8.6 19.3c.1.2.1.5-.1.7-.1.2-.3.4-.6.4zm-8.6-20.5c-.2 0-.3.1-.4.3l-8 19.3c-.1.1 0 .3 0 .4.1.1.2.2.3.2h16.6c.1 0 .3-.1.3-.2.1-.1.1-.3 0-.4l-8.6-19.3c.1-.2 0-.3-.2-.3zm7.7 19.3h-14.8c-.1 0-.1 0-.1-.1v-.2l7.1-17.3c0-.1.1-.1.2-.1s.1 0 .2.1l7.7 17.3v.2c-.2.1-.2.1-.3.1zm-14.6-.3h14.3l-7.4-16.6-6.9 16.6z" id="path91" fill="#249585"/></g></g><g id="g93"><g id="g95"><path class="st0" d="M559.8 308.9h7.3v53.4h-6.6l-35.7-41.1v41.1h-7.2v-53.4h6.2l36 41.4v-41.4z" id="path97" fill="#249585"/><path class="st0" d="M567.1 362.4h-6.6s-.1 0-.1-.1L525 321.6v40.6c0 .1-.1.2-.2.2h-7.2c-.1 0-.2-.1-.2-.2v-53.4c0-.1.1-.2.2-.2h6.2s.1 0 .1.1l35.7 41.1v-41c0-.1.1-.2.2-.2h7.3c.1 0 .2.1.2.2v53.4c0 .1-.1.2-.2.2zm-6.5-.4h6.3v-53H560v41.3c0 .1 0 .1-.1.2h-.2L523.8 309h-5.9v53h6.8v-40.9c0-.1 0-.1.1-.2h.2l35.6 41.1z" id="path99" fill="#249585"/></g><g id="g101"><path class="st0" d="M567.1 362.8h-6.6c-.2 0-.3-.1-.4-.2l-34.6-39.9v39.5c0 .3-.3.6-.6.6h-7.2c-.3 0-.6-.3-.6-.6v-53.4c0-.3.3-.6.6-.6h6.2c.2 0 .3.1.4.2l34.9 40.3v-39.9c0-.3.3-.6.6-.6h7.3c.3 0 .6.3.6.6v53.4c0 .3-.3.6-.6.6zm-6.3-1.2h5.7v-52.2h-6.1v40.9c0 .2-.2.5-.4.5-.2.1-.5 0-.6-.2l-35.8-41.2h-5.3v52.2h6v-40.5c0-.2.2-.5.4-.5.2-.1.5 0 .6.2l35.5 40.8z" id="path103" fill="#249585"/><path class="st0" d="M567.1 363h-6.6c-.2 0-.4-.1-.6-.3l-34.3-39.6v39.1c0 .4-.3.8-.8.8h-7.2c-.4 0-.8-.3-.8-.8v-53.4c0-.4.3-.8.8-.8h6.2c.2 0 .4.1.6.3l34.6 39.9v-39.4c0-.4.3-.8.8-.8h7.3c.4 0 .8.3.8.8v53.4c0 .4-.4.8-.8.8zm-41.7-40.5s.1 0 .1.1l34.6 39.9c.1.1.2.1.3.1h6.6c.2 0 .4-.2.4-.4v-53.4c0-.2-.2-.4-.4-.4h-7.3c-.2 0-.4.2-.4.4v39.9c0 .1 0 .1-.1.2h-.2l-34.9-40.3c-.1-.1-.2-.1-.3-.1h-6.2c-.2 0-.4.2-.4.4v53.4c0 .2.2.4.4.4h7.2c.2 0 .4-.2.4-.4v-39.5c.1-.2.1-.2.2-.3zm41.1 39.3h-5.7s-.1 0-.1-.1l-35.5-40.9c-.1-.1-.3-.2-.5-.1s-.3.2-.3.4v40.5c0 .1-.1.2-.2.2h-6c-.1 0-.2-.1-.2-.2v-52.2c0-.1.1-.2.2-.2h5.3s.1 0 .1.1l35.8 41.2c.1.1.3.2.5.1s.3-.2.3-.4v-40.9c0-.1.1-.2.2-.2h6.1c.1 0 .2.1.2.2v52.2c0 .2-.1.3-.2.3zm-5.6-.3h5.5v-51.8h-5.7v40.7c0 .3-.2.6-.5.7-.3.1-.6 0-.8-.2l-35.8-41.2h-5.1v51.8h5.7v-40.3c0-.3.2-.6.5-.7.3-.1.6 0 .8.2l35.4 40.8z" id="path105" fill="#249585"/></g></g><g id="g107"><g id="g109"><path class="st0" d="M580.2 362.1v-53.3h18c7.3 0 13 1.1 17.2 3.3 4.2 2.2 7.6 5.4 10.1 9.6 2.5 4.2 3.7 8.8 3.7 13.8 0 3.6-.7 7-2.1 10.2-1.4 3.2-3.3 6.1-5.9 8.6-2.6 2.5-5.6 4.5-9.1 5.8-2 .8-3.9 1.3-5.5 1.6-1.6.3-4.9.4-9.6.4h-16.8zm17.1-46.4h-9.5v39.7h9.8c3.8 0 6.8-.3 8.9-.8 2.1-.5 3.9-1.2 5.3-2s2.7-1.8 3.9-3c3.8-3.8 5.7-8.6 5.7-14.5 0-5.7-1.9-10.4-5.8-14-1.4-1.3-3.1-2.5-4.9-3.3-1.8-.9-3.6-1.4-5.3-1.7-1.7-.3-4.4-.4-8.1-.4z" id="path111" fill="#249585"/><path class="st0" d="M597 362.3h-16.9c-.1 0-.2-.1-.2-.2v-53.3c0-.1.1-.2.2-.2h18c7.3 0 13.1 1.1 17.3 3.3 4.2 2.2 7.7 5.4 10.2 9.7 2.5 4.2 3.8 8.9 3.8 13.9 0 3.6-.7 7-2.1 10.3-1.4 3.3-3.4 6.2-5.9 8.6-2.6 2.6-5.7 4.5-9.1 5.8-2 .8-3.9 1.3-5.6 1.6-1.7.4-4.9.5-9.7.5zm-16.7-.3H597c4.7 0 7.9-.1 9.6-.4 1.7-.3 3.5-.8 5.5-1.6 3.4-1.3 6.4-3.2 9-5.7 2.5-2.4 4.5-5.3 5.8-8.5 1.4-3.2 2-6.6 2-10.2 0-4.9-1.3-9.6-3.7-13.7-2.5-4.2-5.8-7.4-10-9.5-4.2-2.2-10-3.2-17.1-3.2h-17.8V362zm17.3-6.5h-9.8c-.1 0-.2-.1-.2-.2v-39.7c0-.1.1-.2.2-.2h9.5c3.7 0 6.4.1 8 .4 1.7.3 3.4.9 5.3 1.7 1.9.9 3.5 2 5 3.4 3.9 3.6 5.9 8.4 5.9 14.1 0 5.8-1.9 10.8-5.7 14.6-1.2 1.2-2.5 2.2-3.9 3-1.4.8-3.2 1.5-5.3 2-2.2.7-5.2.9-9 .9zm-9.6-.3h9.6c3.8 0 6.8-.3 8.9-.8 2.1-.5 3.9-1.2 5.2-2 1.4-.8 2.7-1.8 3.8-2.9 3.7-3.8 5.6-8.6 5.6-14.4 0-5.7-1.9-10.3-5.8-13.9-1.4-1.3-3-2.4-4.9-3.3-1.8-.9-3.6-1.4-5.2-1.7-1.6-.3-4.3-.4-8-.4H588v39.4z" id="path113" fill="#249585"/></g><g id="g115"><path class="st0" d="M597 362.7h-16.9c-.3 0-.6-.3-.6-.6v-53.3c0-.3.3-.6.6-.6h18c7.3 0 13.2 1.1 17.5 3.3 4.3 2.2 7.8 5.5 10.3 9.8 2.5 4.3 3.8 9 3.8 14.1 0 3.6-.7 7.1-2.1 10.5-1.4 3.3-3.4 6.3-6 8.8-2.6 2.6-5.8 4.6-9.3 5.9-2 .8-3.9 1.3-5.7 1.6-1.6.4-4.7.5-9.6.5zm-16.3-1.1H597c4.7 0 7.9-.1 9.5-.4 1.6-.3 3.5-.8 5.4-1.6 3.4-1.3 6.3-3.2 8.9-5.6 2.5-2.4 4.4-5.2 5.8-8.4 1.3-3.2 2-6.5 2-10 0-4.9-1.2-9.4-3.7-13.5-2.4-4.1-5.7-7.3-9.8-9.4-4.1-2.1-9.8-3.2-17-3.2h-17.4v52.1zm16.9-5.7h-9.8c-.3 0-.6-.3-.6-.6v-39.7c0-.3.3-.6.6-.6h9.5c3.7 0 6.4.1 8.1.4 1.7.3 3.5.9 5.4 1.8 1.9.9 3.6 2 5.1 3.4 4 3.7 6 8.6 6 14.4 0 6-2 11-5.8 14.9-1.2 1.2-2.6 2.2-4 3.1-1.5.8-3.3 1.5-5.4 2-2.2.7-5.3.9-9.1.9zm-9.2-1.1h9.2c3.8 0 6.7-.3 8.8-.8 2.1-.5 3.8-1.2 5.1-1.9 1.4-.8 2.6-1.7 3.8-2.9 3.6-3.7 5.5-8.4 5.5-14.1 0-5.5-1.9-10.1-5.6-13.6-1.4-1.3-3-2.4-4.8-3.2-1.8-.8-3.5-1.4-5.1-1.7-1.6-.3-4.3-.4-7.9-.4h-9v38.6z" id="path117" fill="#249585"/><path class="st0" d="M597 362.9h-16.9c-.4 0-.8-.3-.8-.8v-53.3c0-.4.3-.8.8-.8h18c7.3 0 13.3 1.1 17.6 3.4 4.3 2.2 7.8 5.6 10.4 9.9 2.6 4.3 3.8 9.1 3.8 14.2 0 3.7-.7 7.2-2.1 10.5-1.4 3.3-3.4 6.3-6.1 8.8-2.7 2.6-5.8 4.6-9.3 5.9-2 .8-4 1.3-5.7 1.6-1.7.5-4.8.6-9.7.6zm-16.8-54.5c-.2 0-.4.2-.4.4v53.3c0 .2.2.4.4.4H597c4.8 0 8-.1 9.7-.4 1.7-.3 3.6-.8 5.6-1.6 3.5-1.3 6.6-3.3 9.2-5.9 2.6-2.5 4.6-5.4 6-8.7 1.4-3.3 2.1-6.8 2.1-10.4 0-5-1.3-9.8-3.8-14-2.5-4.3-6-7.6-10.3-9.8-4.3-2.2-10.1-3.3-17.4-3.3h-17.9zm16.8 53.3h-16.3c-.1 0-.2-.1-.2-.2v-52.1c0-.1.1-.2.2-.2h17.4c7.2 0 12.9 1.1 17 3.2s7.5 5.3 9.9 9.4c2.4 4.1 3.7 8.7 3.7 13.6 0 3.5-.7 6.9-2 10.1-1.3 3.2-3.3 6-5.8 8.5s-5.5 4.4-8.9 5.7c-2 .8-3.8 1.3-5.4 1.6-1.6.3-4.9.4-9.6.4zm-16.1-.3H597c4.7 0 7.9-.1 9.5-.4 1.6-.3 3.4-.8 5.4-1.5 3.3-1.3 6.3-3.1 8.8-5.6 2.5-2.4 4.4-5.2 5.7-8.3 1.3-3.1 2-6.5 2-9.9 0-4.8-1.2-9.4-3.6-13.4-2.4-4.1-5.7-7.2-9.8-9.3-4.1-2.1-9.8-3.2-16.9-3.2h-17.2v51.6zm16.7-5.3h-9.8c-.4 0-.8-.3-.8-.8v-39.7c0-.4.3-.8.8-.8h9.5c3.7 0 6.4.1 8.1.4 1.7.3 3.5.9 5.4 1.8 1.9.9 3.6 2.1 5.1 3.5 4 3.7 6 8.6 6 14.6s-2 11.1-5.9 15c-1.2 1.2-2.6 2.3-4 3.1-1.5.8-3.3 1.5-5.5 2.1-2 .5-5.1.8-8.9.8zm-9.8-40.9c-.2 0-.4.2-.4.4v39.7c0 .2.2.4.4.4h9.8c3.8 0 6.9-.3 9-.8 2.1-.5 4-1.2 5.4-2 1.4-.8 2.8-1.8 4-3 3.8-3.9 5.8-8.8 5.8-14.8 0-5.8-2-10.6-5.9-14.3-1.5-1.4-3.1-2.5-5-3.4-1.9-.9-3.7-1.5-5.4-1.8-1.7-.3-4.4-.4-8.1-.4h-9.6zm9.8 39.7h-9.2c-.1 0-.2-.1-.2-.2v-38.5c0-.1.1-.2.2-.2h9c3.6 0 6.3.1 7.9.4 1.6.3 3.3.8 5.1 1.7 1.8.8 3.4 1.9 4.8 3.3 3.8 3.5 5.7 8.1 5.7 13.7 0 5.7-1.9 10.5-5.5 14.2-1.1 1.1-2.4 2.1-3.8 2.9-1.4.8-3.1 1.4-5.2 1.9-2.1.6-5.1.8-8.8.8zm-9-.3h9c3.7 0 6.7-.3 8.7-.8 2-.5 3.8-1.1 5.1-1.9 1.3-.8 2.6-1.7 3.7-2.8 3.6-3.7 5.4-8.3 5.4-13.9 0-5.5-1.9-10-5.6-13.5-1.4-1.3-2.9-2.4-4.7-3.2-1.8-.8-3.5-1.4-5.1-1.7-1.6-.3-4.2-.4-7.9-.4h-8.8v38.2z" id="path119" fill="#249585"/></g></g><path class="st0" d="M311.3 393.5v-.6c0-1.7.4-3 1.1-3.8.7-.8 1.6-1.2 2.6-1.2.4 0 1 .1 1.5.2v2c-.3-.1-.7-.2-1-.2-.8 0-1.4.2-1.7.7-.3.5-.5 1.2-.5 2.3v.6h1.9v1.9h-1.9v8.7h-2.1v-8.7h-1.5v-1.9h1.6z" id="path121" fill="#249585"/><path class="st0" d="M338.1 393.5c1.6 0 2.9.5 4 1.6 1.1 1 1.6 2.3 1.6 3.9 0 1.5-.5 2.8-1.6 3.8s-2.4 1.5-4.1 1.5c-1.6 0-2.9-.5-4-1.5s-1.6-2.3-1.6-3.8.5-2.8 1.6-3.9 2.5-1.6 4.1-1.6zm-.1 1.9c-1 0-1.8.3-2.5 1s-1 1.5-1 2.5.3 1.8 1 2.5 1.5 1 2.5 1 1.9-.3 2.5-1c.7-.6 1-1.5 1-2.5s-.3-1.8-1-2.5c-.6-.7-1.5-1-2.5-1z" id="path123" fill="#249585"/><path class="st0" d="M364.5 393.5v1.3c.9-1 2-1.5 3.2-1.5.7 0 1.3.2 1.8.5s1 .8 1.3 1.4c.3.6.4 1.5.4 2.8v6h-2.1v-6c0-1.1-.2-1.8-.5-2.3-.3-.5-.9-.7-1.6-.7-1 0-1.8.5-2.5 1.5v7.5h-2.1v-10.5h2.1z" id="path125" fill="#249585"/><path class="st0" d="M397.6 388.1h2.1v16h-4.5c-1.6 0-2.8-.5-3.7-1.5-.9-1-1.4-2.3-1.4-4 0-1.6.5-2.8 1.5-3.8s2.2-1.5 3.7-1.5c.7 0 1.5.1 2.3.4v-5.6zm0 14.2v-6.7c-.6-.3-1.3-.5-2-.5-1 0-1.9.3-2.5 1-.6.7-.9 1.6-.9 2.8 0 1.1.3 1.9.8 2.5.3.4.7.6 1 .7.4.1 1 .2 1.9.2h1.7z" id="path127" fill="#249585"/><path class="st0" d="M425.6 397.7v4.5c0 .4.1.5.4.5.3 0 .6-.2 1.2-.6v1.3c-.5.3-.9.5-1.1.6-.3.1-.6.2-.9.2-.9 0-1.4-.4-1.6-1.1-.9.7-1.8 1-2.8 1-.7 0-1.3-.2-1.8-.7-.5-.5-.7-1.1-.7-1.8s.2-1.3.7-1.8c.5-.5 1.2-.9 2-1.2l2.7-.9v-.6c0-1.3-.6-1.9-1.9-1.9-1.1 0-2.2.6-3.3 1.8v-2.3c.8-1 2-1.4 3.5-1.4 1.1 0 2.1.3 2.7.9.2.2.4.4.6.8.2.3.3.6.3 1v1.7zm-2 4.3v-3.1l-1.4.5c-.7.3-1.2.6-1.5.9-.3.3-.4.6-.4 1.1 0 .4.1.8.4 1.1.3.3.6.4 1.1.4.6-.1 1.2-.4 1.8-.9z" id="path129" fill="#249585"/><path class="st0" d="M444 395.2l3.9-3.9v2.2h3.3v1.9h-3.3v5.2c0 1.2.5 1.8 1.5 1.8.7 0 1.5-.2 2.4-.7v1.9c-.8.5-1.7.7-2.6.7-1 0-1.7-.3-2.4-.8-.2-.2-.4-.4-.5-.6-.1-.2-.2-.5-.3-.8-.1-.3-.1-1-.1-1.9v-4.7H444v-.3z" id="path131" fill="#249585"/><path class="st0" d="M470.8 389.1c.3 0 .6.1.9.4.2.2.4.5.4.9 0 .3-.1.6-.4.9-.2.2-.5.4-.9.4-.3 0-.6-.1-.8-.4-.2-.3-.4-.5-.4-.9 0-.3.1-.6.4-.9.2-.3.4-.4.8-.4zm-1.1 4.4h2.1V404h-2.1v-10.5z" id="path133" fill="#249585"/><path class="st0" d="M496.3 393.5c1.6 0 2.9.5 4 1.6 1.1 1 1.6 2.3 1.6 3.9 0 1.5-.5 2.8-1.6 3.8s-2.4 1.5-4.1 1.5c-1.6 0-2.9-.5-4-1.5s-1.6-2.3-1.6-3.8.5-2.8 1.6-3.9 2.5-1.6 4.1-1.6zm-.1 1.9c-1 0-1.8.3-2.5 1s-1 1.5-1 2.5.3 1.8 1 2.5c.7.6 1.5 1 2.5 1s1.9-.3 2.5-1c.6-.7 1-1.5 1-2.5s-.3-1.8-1-2.5-1.5-1-2.5-1z" id="path135" fill="#249585"/><path class="st0" d="M522.7 393.5v1.3c.9-1 2-1.5 3.2-1.5.7 0 1.3.2 1.8.5.6.3 1 .8 1.3 1.4.3.6.4 1.5.4 2.8v6h-2.1v-6c0-1.1-.2-1.8-.5-2.3-.3-.5-.9-.7-1.7-.7-1 0-1.8.5-2.5 1.5v7.5h-2.1v-10.5h2.2z" id="path137" fill="#249585"/></g><g id="g139"><path class="st0" d="M381.9 271.7l-27.4-27.4c-1.3-1.3-3.1-2-4.8-2-1.8 0-3.5.7-4.8 2-1.3 1.3-2 3-2 4.8 0 1.8.7 3.5 2 4.8l27.4 27.4c2.6 2.6 7.1 2.6 9.7 0 1.3-1.3 2-3 2-4.8-.1-1.8-.8-3.5-2.1-4.8z" id="path141" fill="#249585"/><path class="st0" d="M403.6 267.7c0-1.8-.7-3.5-2-4.8L368.8 230c-1.3-1.3-3.1-2-4.8-2-1.8 0-3.5.7-4.8 2-1.3 1.3-2 3-2 4.8 0 1.8.7 3.5 2 4.8l32.8 32.8c2.6 2.6 7.1 2.6 9.7 0 1.1-1.2 1.9-2.9 1.9-4.7z" id="path143" fill="#249585"/><path class="st0" d="M422.5 258.1c0-1.8-.7-3.5-2-4.8L383 215.8c-1.3-1.3-3.1-2-4.8-2-1.8 0-3.5.7-4.8 2-1.3 1.3-2 3-2 4.8 0 1.8.7 3.5 2 4.8l37.5 37.5c2.6 2.6 7.1 2.6 9.7 0 1.2-1.2 1.9-2.9 1.9-4.8z" id="path145" fill="#249585"/><path class="st0" d="M500 249.1c0-1.8-.7-3.5-2-4.8-1.3-1.3-3.1-2-4.8-2-1.8 0-3.5.7-4.8 2L461 271.7c-1.3 1.3-2 3-2 4.8 0 1.8.7 3.5 2 4.8 2.6 2.6 7.1 2.6 9.7 0L498 254c1.3-1.3 2-3.1 2-4.9z" id="path147" fill="#249585"/><path class="st0" d="M439.3 267.7c0 1.8.7 3.5 2 4.8 2.6 2.6 7.1 2.6 9.7 0l32.8-32.8c1.3-1.3 2-3 2-4.8 0-1.8-.7-3.5-2-4.8-1.3-1.3-3.1-2-4.8-2-1.8 0-3.5.7-4.8 2l-32.8 32.8c-1.4 1.2-2.1 2.9-2.1 4.8z" id="path149" fill="#249585"/><path class="st0" d="M426.4 230.4l-29.1-28.9c-1.3-1.3-3.1-2-4.8-2-1.8 0-3.5.7-4.8 2-1.3 1.3-2 3-2 4.8 0 1.8.7 3.5 2 4.8l29.1 28.9c2.6 2.6 7.1 2.6 9.7 0 1.3-1.3 2-3 2-4.8 0-1.8-.8-3.5-2.1-4.8z" id="path151" fill="#249585"/><g id="g153"><path class="st0" d="M455.3 201.5c-2.7-2.7-7-2.7-9.7 0l-21.7 21.7 4.9 4.8c1.8 1.8 2.9 4.2 3 6.7l23.5-23.5c1.3-1.3 2-3 2-4.8 0-1.8-.7-3.6-2-4.9z" id="path155" fill="#249585"/></g><g id="g157"><path class="st0" d="M469.5 215.8c-1.3-1.3-3.1-2-4.8-2-1.8 0-3.5.7-4.8 2l-36.1 36.1c.1.1.2.3.4.4l1 1.8.7 2.4c.1.6.2 1.1.2 1.7 0 2.1-.7 4.3-2 6 2.6 1.3 6 .9 8.1-1.2l37.5-37.5c1.3-1.3 2-3 2-4.8-.2-1.9-.9-3.6-2.2-4.9z" id="path159" fill="#249585"/></g><path class="st0" d="M430.8 190.8c-1.8 0-3.5.7-4.8 2l-9.3 9.3c-1.3 1.3-2 3-2 4.8 0 1.8.7 3.5 2 4.8 2.6 2.6 7.1 2.6 9.7 0l9.3-9.3c1.3-1.3 2-3 2-4.8 0-1.8-.7-3.5-2-4.8-1.3-1.3-3.1-2-4.9-2z" id="path161" fill="#249585"/><path class="st0" d="M419 194.9l-2.1-2.1c-1.3-1.3-3.1-2-4.8-2-1.8 0-3.5.7-4.8 2-1.3 1.3-2 3-2 4.8 0 1.8.7 3.5 2 4.8l4 4c.1-2.6 1.2-5 3-6.8l4.7-4.7z" id="path163" fill="#249585"/></g></g></svg>